<svg xmlns="http://www.w3.org/2000/svg" xmlns:xlink="http://www.w3.org/1999/xlink" contentStyleType="text/css" data-diagram-type="DESCRIPTION" height="753px" preserveAspectRatio="none" style="width:965px;height:753px;background:#FFFFFF;" version="1.1" viewBox="0 0 965 753" width="965px" zoomAndPan="magnify"><defs/><g><!--cluster [UCP02]???????--><g id="cluster_[UCP02]&#24180;&#38291;&#26178;&#38291;&#21106;&#32232;&#25104;"><path d="M145.5,6 L308.6822,6 A3.75,3.75 0 0 1 311.1822,8.5 L318.1822,28.2969 L955.94,28.2969 A2.5,2.5 0 0 1 958.44,30.7969 L958.44,743.5 A2.5,2.5 0 0 1 955.94,746 L145.5,746 A2.5,2.5 0 0 1 143,743.5 L143,8.5 A2.5,2.5 0 0 1 145.5,6 " fill="#FFFFFF" fill-opacity="0.00000" style="stroke:#000000;stroke-width:1.5;"/><line style="stroke:#000000;stroke-width:1.5;" x1="143" x2="318.1822" y1="28.2969" y2="28.2969"/><text fill="#000000" font-family="sans-serif" font-size="14" font-weight="bold" lengthAdjust="spacing" textLength="162.1822" x="147" y="20.9951">[UCP02]&#24180;&#38291;&#26178;&#38291;&#21106;&#32232;&#25104;</text></g><g id="elem_[UC0201] &#21046;&#32004;&#26465;&#20214;&#12434;&#35506;&#12377;&#65288;&#32068;&#12415;&#36796;&#12415;&#65289;"><ellipse cx="320.8342" cy="71.9968" fill="#F1F1F1" rx="141.6342" ry="30.7268" style="stroke:#181818;stroke-width:0.5;"/><text fill="#000000" font-family="sans-serif" font-size="14" lengthAdjust="spacing" textLength="253.0246" x="194.3219" y="74.8435">[UC0201] &#21046;&#32004;&#26465;&#20214;&#12434;&#35506;&#12377;&#65288;&#32068;&#12415;&#36796;&#12415;&#65289;</text></g><g id="elem_[UC0202] &#21046;&#32004;&#26465;&#20214;&#12434;&#35506;&#12377;&#65288;&#12481;&#12515;&#12483;&#12488;&#65289;"><ellipse cx="320.8342" cy="167.9968" fill="#F1F1F1" rx="141.6342" ry="30.7268" style="stroke:#181818;stroke-width:0.5;"/><text fill="#000000" font-family="sans-serif" font-size="14" lengthAdjust="spacing" textLength="253.0246" x="194.3219" y="170.8435">[UC0202] &#21046;&#32004;&#26465;&#20214;&#12434;&#35506;&#12377;&#65288;&#12481;&#12515;&#12483;&#12488;&#65289;</text></g><g id="elem_[UC0203] &#32232;&#25104;&#12434;&#23455;&#34892;&#12377;&#12427;"><ellipse cx="320.8294" cy="257.0019" fill="#F1F1F1" rx="102.2594" ry="22.8519" style="stroke:#181818;stroke-width:0.5;"/><text fill="#000000" font-family="sans-serif" font-size="14" lengthAdjust="spacing" textLength="169.025" x="236.317" y="259.8486">[UC0203] &#32232;&#25104;&#12434;&#23455;&#34892;&#12377;&#12427;</text></g><g id="elem_[UC0204] &#32232;&#25104;&#32080;&#26524;&#12434;&#35211;&#12427;"><ellipse cx="320.8294" cy="338.0019" fill="#F1F1F1" rx="102.2594" ry="22.8519" style="stroke:#181818;stroke-width:0.5;"/><text fill="#000000" font-family="sans-serif" font-size="14" lengthAdjust="spacing" textLength="169.025" x="236.317" y="340.8486">[UC0204] &#32232;&#25104;&#32080;&#26524;&#12434;&#35211;&#12427;</text></g><g id="elem_[UC0209] &#21046;&#32004;&#26465;&#20214;&#12434;&#32233;&#21644;&#12377;&#12427;"><ellipse cx="320.833" cy="421.0046" fill="#F1F1F1" rx="115.173" ry="25.4346" style="stroke:#181818;stroke-width:0.5;"/><text fill="#000000" font-family="sans-serif" font-size="14" lengthAdjust="spacing" textLength="197.0248" x="222.3205" y="423.8513">[UC0209] &#21046;&#32004;&#26465;&#20214;&#12434;&#32233;&#21644;&#12377;&#12427;</text></g><g id="elem_[UC0214] &#12467;&#12510;&#12434;&#20837;&#12428;&#26367;&#12360;&#12427;"><ellipse cx="320.8316" cy="505.9963" fill="#F1F1F1" rx="108.6816" ry="24.1363" style="stroke:#181818;stroke-width:0.5;"/><text fill="#000000" font-family="sans-serif" font-size="14" lengthAdjust="spacing" textLength="183.0249" x="229.3192" y="508.843">[UC0214] &#12467;&#12510;&#12434;&#20837;&#12428;&#26367;&#12360;&#12427;</text></g><g id="elem_[UC0215] &#25215;&#35469;&#21069;&#12398;&#26178;&#38291;&#21106;&#12434;&#12480;&#12454;&#12531;&#12525;&#12540;&#12489;&#12377;&#12427;"><ellipse cx="320.8267" cy="599.9953" fill="#F1F1F1" rx="161.8267" ry="34.7653" style="stroke:#181818;stroke-width:0.5;"/><text fill="#000000" font-family="sans-serif" font-size="14" lengthAdjust="spacing" textLength="295.0244" x="173.3145" y="602.842">[UC0215] &#25215;&#35469;&#21069;&#12398;&#26178;&#38291;&#21106;&#12434;&#12480;&#12454;&#12531;&#12525;&#12540;&#12489;&#12377;&#12427;</text></g><g id="elem_[UC0216] &#26178;&#38291;&#21106;&#12434;&#25215;&#35469;&#12377;&#12427;"><ellipse cx="320.8316" cy="693.9963" fill="#F1F1F1" rx="108.6816" ry="24.1363" style="stroke:#181818;stroke-width:0.5;"/><text fill="#000000" font-family="sans-serif" font-size="14" lengthAdjust="spacing" textLength="183.0249" x="229.3192" y="696.843">[UC0216] &#26178;&#38291;&#21106;&#12434;&#25215;&#35469;&#12377;&#12427;</text></g><g id="elem_[UC0205] &#23398;&#32026;&#12499;&#12517;&#12540;&#12434;&#35211;&#12427;"><ellipse cx="767.0516" cy="313.9963" fill="#F1F1F1" rx="108.6816" ry="24.1363" style="stroke:#181818;stroke-width:0.5;"/><text fill="#000000" font-family="sans-serif" font-size="14" lengthAdjust="spacing" textLength="183.0249" x="675.5392" y="316.843">[UC0205] &#23398;&#32026;&#12499;&#12517;&#12540;&#12434;&#35211;&#12427;</text></g><g id="elem_[UC0206] &#25945;&#21729;&#12499;&#12517;&#12540;&#12434;&#35211;&#12427;"><ellipse cx="767.0516" cy="230.9963" fill="#F1F1F1" rx="108.6816" ry="24.1363" style="stroke:#181818;stroke-width:0.5;"/><text fill="#000000" font-family="sans-serif" font-size="14" lengthAdjust="spacing" textLength="183.0249" x="675.5392" y="233.843">[UC0206] &#25945;&#21729;&#12499;&#12517;&#12540;&#12434;&#35211;&#12427;</text></g><g id="elem_[UC0207] &#25945;&#23460;&#12499;&#12517;&#12540;&#12434;&#35211;&#12427;"><ellipse cx="767.0516" cy="147.9963" fill="#F1F1F1" rx="108.6816" ry="24.1363" style="stroke:#181818;stroke-width:0.5;"/><text fill="#000000" font-family="sans-serif" font-size="14" lengthAdjust="spacing" textLength="183.0249" x="675.5392" y="150.843">[UC0207] &#25945;&#23460;&#12499;&#12517;&#12540;&#12434;&#35211;&#12427;</text></g><g id="elem_[UC0208] &#32113;&#35336;&#12499;&#12517;&#12540;&#12434;&#35211;&#12427;"><ellipse cx="767.0516" cy="64.9963" fill="#F1F1F1" rx="108.6816" ry="24.1363" style="stroke:#181818;stroke-width:0.5;"/><text fill="#000000" font-family="sans-serif" font-size="14" lengthAdjust="spacing" textLength="183.0249" x="675.5392" y="67.843">[UC0208] &#32113;&#35336;&#12499;&#12517;&#12540;&#12434;&#35211;&#12427;</text></g><g id="elem_[UC0213] &#21046;&#32004;&#26465;&#20214;&#12398;&#20869;&#23481;&#12434;&#22793;&#26356;&#12377;&#12427;&#65288;&#12481;&#12515;&#12483;&#12488;&#65289;"><ellipse cx="767.0456" cy="692.9991" fill="#F1F1F1" rx="175.3956" ry="37.4791" style="stroke:#181818;stroke-width:0.5;"/><text fill="#000000" font-family="sans-serif" font-size="14" lengthAdjust="spacing" textLength="323.0243" x="605.5335" y="695.8458">[UC0213] &#21046;&#32004;&#26465;&#20214;&#12398;&#20869;&#23481;&#12434;&#22793;&#26356;&#12377;&#12427;&#65288;&#12481;&#12515;&#12483;&#12488;&#65289;</text></g><g id="elem_[UC0212] &#21046;&#32004;&#26465;&#20214;&#12398;&#20869;&#23481;&#12434;&#22793;&#26356;&#12377;&#12427;&#65288;&#32068;&#12415;&#36796;&#12415;&#65289;"><ellipse cx="767.0456" cy="582.9991" fill="#F1F1F1" rx="175.3956" ry="37.4791" style="stroke:#181818;stroke-width:0.5;"/><text fill="#000000" font-family="sans-serif" font-size="14" lengthAdjust="spacing" textLength="323.0243" x="605.5335" y="585.8458">[UC0212] &#21046;&#32004;&#26465;&#20214;&#12398;&#20869;&#23481;&#12434;&#22793;&#26356;&#12377;&#12427;&#65288;&#32068;&#12415;&#36796;&#12415;&#65289;</text></g><g id="elem_[UC0211] &#21046;&#32004;&#26465;&#20214;&#12434;&#36861;&#21152;&#12377;&#12427;"><ellipse cx="767.053" cy="485.0046" fill="#F1F1F1" rx="115.173" ry="25.4346" style="stroke:#181818;stroke-width:0.5;"/><text fill="#000000" font-family="sans-serif" font-size="14" lengthAdjust="spacing" textLength="197.0248" x="668.5405" y="487.8513">[UC0211] &#21046;&#32004;&#26465;&#20214;&#12434;&#36861;&#21152;&#12377;&#12427;</text></g><g id="elem_[UC0210] &#21046;&#32004;&#26465;&#20214;&#12434;&#38500;&#22806;&#12377;&#12427;"><ellipse cx="767.053" cy="399.0046" fill="#F1F1F1" rx="115.173" ry="25.4346" style="stroke:#181818;stroke-width:0.5;"/><text fill="#000000" font-family="sans-serif" font-size="14" lengthAdjust="spacing" textLength="197.0248" x="668.5405" y="401.8513">[UC0210] &#21046;&#32004;&#26465;&#20214;&#12434;&#38500;&#22806;&#12377;&#12427;</text></g><!--entity ??--><g id="elem_&#25945;&#21209;"><ellipse cx="19.9999" cy="353.35" fill="#F1F1F1" rx="8" ry="8" style="stroke:#181818;stroke-width:0.5;"/><path d="M19.9999,361.35 L19.9999,388.35 M6.9999,369.35 L32.9999,369.35 M19.9999,388.35 L6.9999,403.35 M19.9999,388.35 L32.9999,403.35 " fill="#FFFFFF" fill-opacity="0.00000" style="stroke:#181818;stroke-width:0.5;"/><text fill="#000000" font-family="sans-serif" font-size="14" lengthAdjust="spacing" textLength="27.9999" x="6" y="417.8451">&#25945;&#21209;</text></g><!--link ?? to [UC0201] ?????????????--><g id="link_&#25945;&#21209;_[UC0201] &#21046;&#32004;&#26465;&#20214;&#12434;&#35506;&#12377;&#65288;&#32068;&#12415;&#36796;&#12415;&#65289;"><path d="M26.48,344.71 C36.85,286.86 64.96,177.82 135,120 C153.15,105.02 169.7268,96.4512 192.4768,89.2912 " fill="#FFFFFF" fill-opacity="0.00000" id="&#25945;&#21209;-to-[UC0201] &#21046;&#32004;&#26465;&#20214;&#12434;&#35506;&#12377;&#65288;&#32068;&#12415;&#36796;&#12415;&#65289;" style="stroke:#181818;stroke-width:1;"/><polygon fill="#181818" points="198.2,87.49,188.4143,86.3764,193.4306,88.991,190.816,94.0074,198.2,87.49" style="stroke:#181818;stroke-width:1;"/></g><!--link ?? to [UC0202] ?????????????--><g id="link_&#25945;&#21209;_[UC0202] &#21046;&#32004;&#26465;&#20214;&#12434;&#35506;&#12377;&#65288;&#12481;&#12515;&#12483;&#12488;&#65289;"><path d="M34.4,350.27 C51.78,312.1 85.81,250.04 135,217 C155.8,203.02 174.6529,194.7198 199.0129,187.5698 " fill="#FFFFFF" fill-opacity="0.00000" id="&#25945;&#21209;-to-[UC0202] &#21046;&#32004;&#26465;&#20214;&#12434;&#35506;&#12377;&#65288;&#12481;&#12515;&#12483;&#12488;&#65289;" style="stroke:#181818;stroke-width:1;"/><polygon fill="#181818" points="204.77,185.88,195.0078,184.5766,199.9724,187.2882,197.2608,192.2528,204.77,185.88" style="stroke:#181818;stroke-width:1;"/></g><!--link ?? to [UC0203] ???????--><g id="link_&#25945;&#21209;_[UC0203] &#32232;&#25104;&#12434;&#23455;&#34892;&#12377;&#12427;"><path d="M34.21,366.44 C42.2,357.09 52.95,345.59 64,337 C112.5,299.3 173.1168,280.388 226.1568,269.768 " fill="#FFFFFF" fill-opacity="0.00000" id="&#25945;&#21209;-to-[UC0203] &#32232;&#25104;&#12434;&#23455;&#34892;&#12377;&#12427;" style="stroke:#181818;stroke-width:1;"/><polygon fill="#181818" points="232.04,268.59,222.4298,266.4348,227.1373,269.5716,224.0005,274.2791,232.04,268.59" style="stroke:#181818;stroke-width:1;"/></g><!--link ?? to [UC0204] ???????--><g id="link_&#25945;&#21209;_[UC0204] &#32232;&#25104;&#32080;&#26524;&#12434;&#35211;&#12427;"><path d="M34.49,375.28 C42.75,370.93 53.67,365.82 64,363 C113.83,349.4 164.9114,343.36 212.4914,340.42 " fill="#FFFFFF" fill-opacity="0.00000" id="&#25945;&#21209;-to-[UC0204] &#32232;&#25104;&#32080;&#26524;&#12434;&#35211;&#12427;" style="stroke:#181818;stroke-width:1;"/><polygon fill="#181818" points="218.48,340.05,209.2504,336.6127,213.4895,340.3584,209.7438,344.5974,218.48,340.05" style="stroke:#181818;stroke-width:1;"/></g><!--link ?? to [UC0209] ?????????--><g id="link_&#25945;&#21209;_[UC0209] &#21046;&#32004;&#26465;&#20214;&#12434;&#32233;&#21644;&#12377;&#12427;"><path d="M34.23,384.68 C66.42,388.78 145.308,398.8025 214.218,407.5725 " fill="#FFFFFF" fill-opacity="0.00000" id="&#25945;&#21209;-to-[UC0209] &#21046;&#32004;&#26465;&#20214;&#12434;&#32233;&#21644;&#12377;&#12427;" style="stroke:#181818;stroke-width:1;"/><polygon fill="#181818" points="220.17,408.33,211.747,403.2258,215.21,407.6988,210.737,411.1618,220.17,408.33" style="stroke:#181818;stroke-width:1;"/></g><!--link ?? to [UC0214] ????????--><g id="link_&#25945;&#21209;_[UC0214] &#12467;&#12510;&#12434;&#20837;&#12428;&#26367;&#12360;&#12427;"><path d="M34.29,395.16 C54.51,413 94.89,446.06 135,464 C164.44,477.17 192.5456,485.1889 223.2856,491.5789 " fill="#FFFFFF" fill-opacity="0.00000" id="&#25945;&#21209;-to-[UC0214] &#12467;&#12510;&#12434;&#20837;&#12428;&#26367;&#12360;&#12427;" style="stroke:#181818;stroke-width:1;"/><polygon fill="#181818" points="229.16,492.8,221.1625,487.052,224.2646,491.7824,219.5343,494.8846,229.16,492.8" style="stroke:#181818;stroke-width:1;"/></g><!--link ?? to [UC0215] ????????????????--><g id="link_&#25945;&#21209;_[UC0215] &#25215;&#35469;&#21069;&#12398;&#26178;&#38291;&#21106;&#12434;&#12480;&#12454;&#12531;&#12525;&#12540;&#12489;&#12377;&#12427;"><path d="M34.49,414.37 C52.16,451.76 86.69,513.5 135,548 C152.9,560.79 168.1841,568.4946 189.4241,575.7746 " fill="#FFFFFF" fill-opacity="0.00000" id="&#25945;&#21209;-to-[UC0215] &#25215;&#35469;&#21069;&#12398;&#26178;&#38291;&#21106;&#12434;&#12480;&#12454;&#12531;&#12525;&#12540;&#12489;&#12377;&#12427;" style="stroke:#181818;stroke-width:1;"/><polygon fill="#181818" points="195.1,577.72,187.8831,571.018,190.3701,576.0988,185.2893,578.5858,195.1,577.72" style="stroke:#181818;stroke-width:1;"/></g><!--link ?? to [UC0216] ????????--><g id="link_&#25945;&#21209;_[UC0216] &#26178;&#38291;&#21106;&#12434;&#25215;&#35469;&#12377;&#12427;"><path d="M26.16,421.62 C36.14,480.57 63.81,592.44 135,652 C157.59,670.9 181.1001,680.4772 209.7701,686.5472 " fill="#FFFFFF" fill-opacity="0.00000" id="&#25945;&#21209;-to-[UC0216] &#26178;&#38291;&#21106;&#12434;&#25215;&#35469;&#12377;&#12427;" style="stroke:#181818;stroke-width:1;"/><polygon fill="#181818" points="215.64,687.79,207.6637,682.0126,210.7484,686.7544,206.0067,689.8391,215.64,687.79" style="stroke:#181818;stroke-width:1;"/></g><!--reverse link [UC0204] ??????? to [UC0205] ????????--><g id="link_[UC0204] &#32232;&#25104;&#32080;&#26524;&#12434;&#35211;&#12427;_[UC0205] &#23398;&#32026;&#12499;&#12517;&#12540;&#12434;&#35211;&#12427;"><path d="M438.6638,331.6899 C509.9938,327.8399 588.16,323.61 660.89,319.68 " fill="#FFFFFF" fill-opacity="0.00000" id="[UC0204] &#32232;&#25104;&#32080;&#26524;&#12434;&#35211;&#12427;-backto-[UC0205] &#23398;&#32026;&#12499;&#12517;&#12540;&#12434;&#35211;&#12427;" style="stroke:#181818;stroke-width:1;"/><polygon fill="#FFFFFF" fill-opacity="0.00000" points="420.69,332.66,438.9872,337.6812,438.3405,325.6986,420.69,332.66" style="stroke:#181818;stroke-width:1;"/></g><!--reverse link [UC0204] ??????? to [UC0206] ????????--><g id="link_[UC0204] &#32232;&#25104;&#32080;&#26524;&#12434;&#35211;&#12427;_[UC0206] &#25945;&#21729;&#12499;&#12517;&#12540;&#12434;&#35211;&#12427;"><path d="M408.307,316.6325 C462.797,303.2025 523.3,288.39 591.65,272 C624.17,264.2 660.13,255.72 690.9,248.51 " fill="#FFFFFF" fill-opacity="0.00000" id="[UC0204] &#32232;&#25104;&#32080;&#26524;&#12434;&#35211;&#12427;-backto-[UC0206] &#25945;&#21729;&#12499;&#12517;&#12540;&#12434;&#35211;&#12427;" style="stroke:#181818;stroke-width:1;"/><polygon fill="#FFFFFF" fill-opacity="0.00000" points="390.83,320.94,409.7428,322.4582,406.8712,310.8068,390.83,320.94" style="stroke:#181818;stroke-width:1;"/></g><!--reverse link [UC0204] ??????? to [UC0207] ????????--><g id="link_[UC0204] &#32232;&#25104;&#32080;&#26524;&#12434;&#35211;&#12427;_[UC0207] &#25945;&#23460;&#12499;&#12517;&#12540;&#12434;&#35211;&#12427;"><path d="M423.9544,321.0652 C449.5344,314.9352 459.46,310.13 482.65,297 C542,263.4 532,222.04 591.65,189 C616.28,175.36 645.28,166.24 672.5,160.15 " fill="#FFFFFF" fill-opacity="0.00000" id="[UC0204] &#32232;&#25104;&#32080;&#26524;&#12434;&#35211;&#12427;-backto-[UC0207] &#25945;&#23460;&#12499;&#12517;&#12540;&#12434;&#35211;&#12427;" style="stroke:#181818;stroke-width:1;"/><polygon fill="#FFFFFF" fill-opacity="0.00000" points="406.45,325.26,425.3527,326.9,422.5561,315.2304,406.45,325.26" style="stroke:#181818;stroke-width:1;"/></g><!--reverse link [UC0204] ??????? to [UC0208] ????????--><g id="link_[UC0204] &#32232;&#25104;&#32080;&#26524;&#12434;&#35211;&#12427;_[UC0208] &#32113;&#35336;&#12499;&#12517;&#12540;&#12434;&#35211;&#12427;"><path d="M432.11,324.3141 C456.25,318.2641 463.4,312.83 482.65,297 C506.61,277.31 497.82,261.24 512.65,234 C544.63,175.29 537.41,145.08 591.65,106 C613.48,90.27 640.47,80.49 666.64,74.44 " fill="#FFFFFF" fill-opacity="0.00000" id="[UC0204] &#32232;&#25104;&#32080;&#26524;&#12434;&#35211;&#12427;-backto-[UC0208] &#32113;&#35336;&#12499;&#12517;&#12540;&#12434;&#35211;&#12427;" style="stroke:#181818;stroke-width:1;"/><polygon fill="#FFFFFF" fill-opacity="0.00000" points="414.65,328.69,433.5686,330.1342,430.6514,318.4941,414.65,328.69" style="stroke:#181818;stroke-width:1;"/></g><!--link [UC0209] ????????? to [UC0213] ??????????????????--><g id="link_[UC0209] &#21046;&#32004;&#26465;&#20214;&#12434;&#32233;&#21644;&#12377;&#12427;_[UC0213] &#21046;&#32004;&#26465;&#20214;&#12398;&#20869;&#23481;&#12434;&#22793;&#26356;&#12377;&#12427;&#65288;&#12481;&#12515;&#12483;&#12488;&#65289;"><path d="M422.71,433.12 C444.35,439.55 465.76,449.3 482.65,464 C508.49,486.49 495.42,505.39 512.65,535 C541.67,584.86 544.4,604.9 591.65,638 C607.91,649.38 621.0142,656.351 640.0142,663.601 " fill="#FFFFFF" fill-opacity="0.00000" id="[UC0209] &#21046;&#32004;&#26465;&#20214;&#12434;&#32233;&#21644;&#12377;&#12427;-to-[UC0213] &#21046;&#32004;&#26465;&#20214;&#12398;&#20869;&#23481;&#12434;&#22793;&#26356;&#12377;&#12427;&#65288;&#12481;&#12515;&#12483;&#12488;&#65289;" style="stroke:#181818;stroke-width:1;stroke-dasharray:7.0,7.0;"/><polygon fill="#181818" points="645.62,665.74,638.6374,658.7943,640.9485,663.9575,635.7853,666.2686,645.62,665.74" style="stroke:#181818;stroke-width:1;"/><text fill="#000000" font-family="sans-serif" font-size="13" lengthAdjust="spacing" textLength="47.0996" x="513.65" y="531.0669">include</text></g><!--link [UC0209] ????????? to [UC0212] ??????????????????--><g id="link_[UC0209] &#21046;&#32004;&#26465;&#20214;&#12434;&#32233;&#21644;&#12377;&#12427;_[UC0212] &#21046;&#32004;&#26465;&#20214;&#12398;&#20869;&#23481;&#12434;&#22793;&#26356;&#12377;&#12427;&#65288;&#32068;&#12415;&#36796;&#12415;&#65289;"><path d="M405.07,438.7 C430.45,445.3 458.12,453.74 482.65,464 C508.57,474.84 565.99,516.59 591.65,528 C612.83,537.41 630.4091,544.0593 652.8691,551.4293 " fill="#FFFFFF" fill-opacity="0.00000" id="[UC0209] &#21046;&#32004;&#26465;&#20214;&#12434;&#32233;&#21644;&#12377;&#12427;-to-[UC0212] &#21046;&#32004;&#26465;&#20214;&#12398;&#20869;&#23481;&#12434;&#22793;&#26356;&#12377;&#12427;&#65288;&#32068;&#12415;&#36796;&#12415;&#65289;" style="stroke:#181818;stroke-width:1;stroke-dasharray:7.0,7.0;"/><polygon fill="#181818" points="658.57,553.3,651.2657,546.6933,653.8192,551.7411,648.7715,554.2946,658.57,553.3" style="stroke:#181818;stroke-width:1;"/><text fill="#000000" font-family="sans-serif" font-size="13" lengthAdjust="spacing" textLength="47.0996" x="513.65" y="477.0669">include</text></g><!--link [UC0209] ????????? to [UC0211] ?????????--><g id="link_[UC0209] &#21046;&#32004;&#26465;&#20214;&#12434;&#32233;&#21644;&#12377;&#12427;_[UC0211] &#21046;&#32004;&#26465;&#20214;&#12434;&#36861;&#21152;&#12377;&#12427;"><path d="M418.22,434.89 C492.6,445.6 589.0913,459.5047 663.5213,470.2247 " fill="#FFFFFF" fill-opacity="0.00000" id="[UC0209] &#21046;&#32004;&#26465;&#20214;&#12434;&#32233;&#21644;&#12377;&#12427;-to-[UC0211] &#21046;&#32004;&#26465;&#20214;&#12434;&#36861;&#21152;&#12377;&#12427;" style="stroke:#181818;stroke-width:1;stroke-dasharray:7.0,7.0;"/><polygon fill="#181818" points="669.46,471.08,661.1221,465.8378,664.5111,470.3672,659.9817,473.7561,669.46,471.08" style="stroke:#181818;stroke-width:1;"/><text fill="#000000" font-family="sans-serif" font-size="13" lengthAdjust="spacing" textLength="47.0996" x="513.65" y="446.0669">include</text></g><!--link [UC0209] ????????? to [UC0210] ?????????--><g id="link_[UC0209] &#21046;&#32004;&#26465;&#20214;&#12434;&#32233;&#21644;&#12377;&#12427;_[UC0210] &#21046;&#32004;&#26465;&#20214;&#12434;&#38500;&#22806;&#12377;&#12427;"><path d="M433.64,415.46 C501.1,412.12 580.7773,408.1767 648.2373,404.8367 " fill="#FFFFFF" fill-opacity="0.00000" id="[UC0209] &#21046;&#32004;&#26465;&#20214;&#12434;&#32233;&#21644;&#12377;&#12427;-to-[UC0210] &#21046;&#32004;&#26465;&#20214;&#12434;&#38500;&#22806;&#12377;&#12427;" style="stroke:#181818;stroke-width:1;stroke-dasharray:7.0,7.0;"/><polygon fill="#181818" points="654.23,404.54,645.0432,400.9899,649.2361,404.7873,645.4388,408.9802,654.23,404.54" style="stroke:#181818;stroke-width:1;"/><text fill="#000000" font-family="sans-serif" font-size="13" lengthAdjust="spacing" textLength="47.0996" x="513.65" y="406.0669">include</text></g><!--SRC=[hPJBIW9H7CRtFiLPrcB4IrS9Dxr0crRXGjHiI3J4LXKqSpHcKa6KWico91KJ7CYy85a-pBypCwvyXSuqAU6roBCug-_xVH__SmduzYCe4a9XrdyGGLusxFD4s53GP78eLnA9ImwJ2T5rvFOSklq-jBUxlMEnkKYxthlEA19FToBMr5PP4LBev4kgByFBC8npYJeiDelLXOZGLEjHvIx_yTe4FgrLQi19_OwWDgB0TRNt3jtx7N5vEiGs7GAO0_m860CMPaFiBcJKfNOYtslv12K07vzXMHbOr4PAoTtgkQNuRClcM5MrzKJISxEiD0lu5y0vlLwi27n2oNQ14sQxLbr84RjQ9Kd4973oy60e1F0vy2N0b5a5t04ipksmHca_20Pvu1hQvWq7RPqop4152v9gIQtV0Cu0Bkf5ngVu9w9UaXRFv1T6N3U8Sc5Xn0sgQZnhPM4ISHGvvyeWizdvBRNQHwISJ2vYH6xhTwOWAjcwuPdmBf03iK5FuDZh-qUyxTVneszx8V4J_fBk6xby64WNaM4Pa_Qa0YbSJyuu-mG0]--></g></svg>