<svg xmlns="http://www.w3.org/2000/svg" xmlns:xlink="http://www.w3.org/1999/xlink" contentStyleType="text/css" data-diagram-type="DESCRIPTION" height="613px" preserveAspectRatio="none" style="width:777px;height:613px;background:#FFFFFF;" version="1.1" viewBox="0 0 777 613" width="777px" zoomAndPan="magnify"><defs/><g><!--cluster UCP03 ???????--><g id="cluster_UCP03 &#24180;&#38291;&#12487;&#12540;&#12479;&#20462;&#27491;"><path d="M145.5,6 L300.7593,6 A3.75,3.75 0 0 1 303.2593,8.5 L310.2593,28.2969 L768.04,28.2969 A2.5,2.5 0 0 1 770.54,30.7969 L770.54,603.5 A2.5,2.5 0 0 1 768.04,606 L145.5,606 A2.5,2.5 0 0 1 143,603.5 L143,8.5 A2.5,2.5 0 0 1 145.5,6 " fill="#FFFFFF" fill-opacity="0.00000" style="stroke:#000000;stroke-width:1.5;"/><line style="stroke:#000000;stroke-width:1.5;" x1="143" x2="310.2593" y1="28.2969" y2="28.2969"/><text fill="#000000" font-family="sans-serif" font-size="14" font-weight="bold" lengthAdjust="spacing" textLength="154.2593" x="147" y="20.9951">UCP03 &#24180;&#38291;&#12487;&#12540;&#12479;&#20462;&#27491;</text></g><g id="elem_UC0301 &#26332;&#26085;&#26178;&#38480;&#12434;&#32232;&#38598;&#12377;&#12427;"><ellipse cx="282.1724" cy="65.0005" fill="#F1F1F1" rx="110.1024" ry="24.4205" style="stroke:#181818;stroke-width:0.5;"/><text fill="#000000" font-family="sans-serif" font-size="14" lengthAdjust="spacing" textLength="186.101" x="189.1219" y="67.8472">UC0301 &#26332;&#26085;&#26178;&#38480;&#12434;&#32232;&#38598;&#12377;&#12427;</text></g><g id="elem_UC0302 &#25945;&#21729;&#24773;&#22577;&#12434;&#32232;&#38598;&#12377;&#12427;"><ellipse cx="282.1724" cy="149.0005" fill="#F1F1F1" rx="110.1024" ry="24.4205" style="stroke:#181818;stroke-width:0.5;"/><text fill="#000000" font-family="sans-serif" font-size="14" lengthAdjust="spacing" textLength="186.101" x="189.1219" y="151.8472">UC0302 &#25945;&#21729;&#24773;&#22577;&#12434;&#32232;&#38598;&#12377;&#12427;</text></g><g id="elem_UC0303 &#25945;&#21729;&#12434;&#21066;&#38500;&#12377;&#12427;"><ellipse cx="282.1655" cy="230.0011" fill="#F1F1F1" rx="97.3055" ry="21.8611" style="stroke:#181818;stroke-width:0.5;"/><text fill="#000000" font-family="sans-serif" font-size="14" lengthAdjust="spacing" textLength="158.1011" x="203.1149" y="232.8478">UC0303 &#25945;&#21729;&#12434;&#21066;&#38500;&#12377;&#12427;</text></g><g id="elem_UC0304 &#25945;&#21729;&#12398;&#21220;&#24608;&#12434;&#20462;&#27491;&#12377;&#12427;"><ellipse cx="282.1673" cy="313.0015" fill="#F1F1F1" rx="116.6073" ry="25.7215" style="stroke:#181818;stroke-width:0.5;"/><text fill="#000000" font-family="sans-serif" font-size="14" lengthAdjust="spacing" textLength="200.101" x="182.1169" y="315.8481">UC0304 &#25945;&#21729;&#12398;&#21220;&#24608;&#12434;&#20462;&#27491;&#12377;&#12427;</text></g><g id="elem_UC0305 &#31185;&#30446;&#24773;&#22577;&#12434;&#32232;&#38598;&#12377;&#12427;"><ellipse cx="282.1724" cy="398.0005" fill="#F1F1F1" rx="110.1024" ry="24.4205" style="stroke:#181818;stroke-width:0.5;"/><text fill="#000000" font-family="sans-serif" font-size="14" lengthAdjust="spacing" textLength="186.101" x="189.1219" y="400.8472">UC0305 &#31185;&#30446;&#24773;&#22577;&#12434;&#32232;&#38598;&#12377;&#12427;</text></g><g id="elem_UC0306 &#31185;&#30446;&#12434;&#21066;&#38500;&#12377;&#12427;"><ellipse cx="282.1655" cy="479.0011" fill="#F1F1F1" rx="97.3055" ry="21.8611" style="stroke:#181818;stroke-width:0.5;"/><text fill="#000000" font-family="sans-serif" font-size="14" lengthAdjust="spacing" textLength="158.1011" x="203.1149" y="481.8478">UC0306 &#31185;&#30446;&#12434;&#21066;&#38500;&#12377;&#12427;</text></g><g id="elem_UC0307 &#12459;&#12522;&#12461;&#12517;&#12521;&#12512;&#12434;&#20462;&#27491;&#12377;&#12427;"><ellipse cx="282.1679" cy="563.0036" fill="#F1F1F1" rx="123.1679" ry="27.0336" style="stroke:#181818;stroke-width:0.5;"/><text fill="#000000" font-family="sans-serif" font-size="14" lengthAdjust="spacing" textLength="214.1009" x="175.1175" y="565.8503">UC0307 &#12459;&#12522;&#12461;&#12517;&#12521;&#12512;&#12434;&#20462;&#27491;&#12377;&#12427;</text></g><g id="elem_UC0311 &#35611;&#24231;&#12434;&#21066;&#38500;&#12377;&#12427;"><ellipse cx="644.4355" cy="568.0011" fill="#F1F1F1" rx="97.3055" ry="21.8611" style="stroke:#181818;stroke-width:0.5;"/><text fill="#000000" font-family="sans-serif" font-size="14" lengthAdjust="spacing" textLength="158.1011" x="565.3849" y="570.8478">UC0311 &#35611;&#24231;&#12434;&#21066;&#38500;&#12377;&#12427;</text></g><g id="elem_UC0310 &#35611;&#24231;&#24773;&#22577;&#12434;&#32232;&#38598;&#12377;&#12427;"><ellipse cx="644.4424" cy="487.0005" fill="#F1F1F1" rx="110.1024" ry="24.4205" style="stroke:#181818;stroke-width:0.5;"/><text fill="#000000" font-family="sans-serif" font-size="14" lengthAdjust="spacing" textLength="186.101" x="551.3919" y="489.8472">UC0310 &#35611;&#24231;&#24773;&#22577;&#12434;&#32232;&#38598;&#12377;&#12427;</text></g><g id="elem_UC0309 &#12502;&#12525;&#12483;&#12463;&#12434;&#21066;&#38500;&#12377;&#12427;"><ellipse cx="644.4424" cy="403.0005" fill="#F1F1F1" rx="110.1024" ry="24.4205" style="stroke:#181818;stroke-width:0.5;"/><text fill="#000000" font-family="sans-serif" font-size="14" lengthAdjust="spacing" textLength="186.101" x="551.3919" y="405.8472">UC0309 &#12502;&#12525;&#12483;&#12463;&#12434;&#21066;&#38500;&#12377;&#12427;</text></g><g id="elem_UC0308 &#23398;&#32026;&#12434;&#21066;&#38500;&#12377;&#12427;"><ellipse cx="644.4355" cy="322.0011" fill="#F1F1F1" rx="97.3055" ry="21.8611" style="stroke:#181818;stroke-width:0.5;"/><text fill="#000000" font-family="sans-serif" font-size="14" lengthAdjust="spacing" textLength="158.1011" x="565.3849" y="324.8478">UC0308 &#23398;&#32026;&#12434;&#21066;&#38500;&#12377;&#12427;</text></g><!--entity ??--><g id="elem_&#25945;&#21209;"><ellipse cx="19.9999" cy="283.35" fill="#F1F1F1" rx="8" ry="8" style="stroke:#181818;stroke-width:0.5;"/><path d="M19.9999,291.35 L19.9999,318.35 M6.9999,299.35 L32.9999,299.35 M19.9999,318.35 L6.9999,333.35 M19.9999,318.35 L32.9999,333.35 " fill="#FFFFFF" fill-opacity="0.00000" style="stroke:#181818;stroke-width:0.5;"/><text fill="#000000" font-family="sans-serif" font-size="14" lengthAdjust="spacing" textLength="27.9999" x="6" y="347.8451">&#25945;&#21209;</text></g><!--link ?? to UC0301 ?????????--><g id="link_&#25945;&#21209;_UC0301 &#26332;&#26085;&#26178;&#38480;&#12434;&#32232;&#38598;&#12377;&#12427;"><path d="M31.96,274.53 C47.28,227.82 79.62,149.98 135,107 C151.48,94.21 165.976,87.0867 186.066,80.8967 " fill="#FFFFFF" fill-opacity="0.00000" id="&#25945;&#21209;-to-UC0301 &#26332;&#26085;&#26178;&#38480;&#12434;&#32232;&#38598;&#12377;&#12427;" style="stroke:#181818;stroke-width:1;"/><polygon fill="#181818" points="191.8,79.13,182.0212,77.9574,187.0217,80.6023,184.3768,85.6027,191.8,79.13" style="stroke:#181818;stroke-width:1;"/></g><!--link ?? to UC0302 ?????????--><g id="link_&#25945;&#21209;_UC0302 &#25945;&#21729;&#24773;&#22577;&#12434;&#32232;&#38598;&#12377;&#12427;"><path d="M34.21,292.71 C53.16,265.3 90.71,216.9 135,191 C154.26,179.74 170.9665,173.0078 192.4265,166.7978 " fill="#FFFFFF" fill-opacity="0.00000" id="&#25945;&#21209;-to-UC0302 &#25945;&#21729;&#24773;&#22577;&#12434;&#32232;&#38598;&#12377;&#12427;" style="stroke:#181818;stroke-width:1;"/><polygon fill="#181818" points="198.19,165.13,188.4328,163.7894,193.3871,166.5199,190.6566,171.4741,198.19,165.13" style="stroke:#181818;stroke-width:1;"/></g><!--link ?? to UC0303 ???????--><g id="link_&#25945;&#21209;_UC0303 &#25945;&#21729;&#12434;&#21066;&#38500;&#12377;&#12427;"><path d="M34.41,303.52 C42.63,298.05 53.56,291.42 64,287 C109.68,267.67 157.7504,254.7705 200.4304,245.3705 " fill="#FFFFFF" fill-opacity="0.00000" id="&#25945;&#21209;-to-UC0303 &#25945;&#21729;&#12434;&#21066;&#38500;&#12377;&#12427;" style="stroke:#181818;stroke-width:1;"/><polygon fill="#181818" points="206.29,244.08,196.6403,242.1094,201.407,245.1554,198.361,249.9222,206.29,244.08" style="stroke:#181818;stroke-width:1;"/></g><!--link ?? to UC0304 ??????????--><g id="link_&#25945;&#21209;_UC0304 &#25945;&#21729;&#12398;&#21220;&#24608;&#12434;&#20462;&#27491;&#12377;&#12427;"><path d="M34.26,313 C58.8,313 107.53,313 159.23,313 " fill="#FFFFFF" fill-opacity="0.00000" id="&#25945;&#21209;-to-UC0304 &#25945;&#21729;&#12398;&#21220;&#24608;&#12434;&#20462;&#27491;&#12377;&#12427;" style="stroke:#181818;stroke-width:1;"/><polygon fill="#181818" points="165.23,313,156.23,309,160.23,313,156.23,317,165.23,313" style="stroke:#181818;stroke-width:1;"/></g><!--link ?? to UC0305 ?????????--><g id="link_&#25945;&#21209;_UC0305 &#31185;&#30446;&#24773;&#22577;&#12434;&#32232;&#38598;&#12377;&#12427;"><path d="M34.21,318.38 C55.33,326.89 98.06,343.75 135,356 C159.56,364.15 180.967,370.5752 205.157,377.4252 " fill="#FFFFFF" fill-opacity="0.00000" id="&#25945;&#21209;-to-UC0305 &#31185;&#30446;&#24773;&#22577;&#12434;&#32232;&#38598;&#12377;&#12427;" style="stroke:#181818;stroke-width:1;"/><polygon fill="#181818" points="210.93,379.06,203.3603,372.7592,206.1192,377.6977,201.1807,380.4565,210.93,379.06" style="stroke:#181818;stroke-width:1;"/></g><!--link ?? to UC0306 ???????--><g id="link_&#25945;&#21209;_UC0306 &#31185;&#30446;&#12434;&#21066;&#38500;&#12377;&#12427;"><path d="M34.42,334.47 C53.33,362.94 90.54,412.74 135,440 C155.04,452.29 173.1188,459.2567 195.7288,465.0667 " fill="#FFFFFF" fill-opacity="0.00000" id="&#25945;&#21209;-to-UC0306 &#31185;&#30446;&#12434;&#21066;&#38500;&#12377;&#12427;" style="stroke:#181818;stroke-width:1;"/><polygon fill="#181818" points="201.54,466.56,193.8187,460.4459,196.6973,465.3156,191.8277,468.1942,201.54,466.56" style="stroke:#181818;stroke-width:1;"/></g><!--link ?? to UC0307 ???????????--><g id="link_&#25945;&#21209;_UC0307 &#12459;&#12522;&#12461;&#12517;&#12521;&#12512;&#12434;&#20462;&#27491;&#12377;&#12427;"><path d="M32.46,351.29 C48.21,397.42 80.89,474.16 135,518 C150.06,530.2 162.7579,537.1149 181.2979,543.6149 " fill="#FFFFFF" fill-opacity="0.00000" id="&#25945;&#21209;-to-UC0307 &#12459;&#12522;&#12461;&#12517;&#12521;&#12512;&#12434;&#20462;&#27491;&#12377;&#12427;" style="stroke:#181818;stroke-width:1;"/><polygon fill="#181818" points="186.96,545.6,179.7902,538.8476,182.2416,543.9458,177.1435,546.3971,186.96,545.6" style="stroke:#181818;stroke-width:1;"/></g><!--link UC0307 ??????????? to UC0311 ???????--><g id="link_UC0307 &#12459;&#12522;&#12461;&#12517;&#12521;&#12512;&#12434;&#20462;&#27491;&#12377;&#12427;_UC0311 &#35611;&#24231;&#12434;&#21066;&#38500;&#12377;&#12427;"><path d="M405.39,564.7 C451.61,565.34 497.5206,565.9773 541.0506,566.5773 " fill="#FFFFFF" fill-opacity="0.00000" id="UC0307 &#12459;&#12522;&#12461;&#12517;&#12521;&#12512;&#12434;&#20462;&#27491;&#12377;&#12427;-to-UC0311 &#35611;&#24231;&#12434;&#21066;&#38500;&#12377;&#12427;" style="stroke:#181818;stroke-width:1;stroke-dasharray:7.0,7.0;"/><polygon fill="#181818" points="547.05,566.66,538.106,562.5363,542.0505,566.5911,537.9957,570.5356,547.05,566.66" style="stroke:#181818;stroke-width:1;"/><text fill="#000000" font-family="sans-serif" font-size="13" lengthAdjust="spacing" textLength="67.958" x="436.34" y="561.0669">&#171;extends&#187;</text></g><!--link UC0307 ??????????? to UC0310 ?????????--><g id="link_UC0307 &#12459;&#12522;&#12461;&#12517;&#12521;&#12512;&#12434;&#20462;&#27491;&#12377;&#12427;_UC0310 &#35611;&#24231;&#24773;&#22577;&#12434;&#32232;&#38598;&#12377;&#12427;"><path d="M372.22,544.21 C430.78,531.86 500.879,517.0676 557.519,505.1276 " fill="#FFFFFF" fill-opacity="0.00000" id="UC0307 &#12459;&#12522;&#12461;&#12517;&#12521;&#12512;&#12434;&#20462;&#27491;&#12377;&#12427;-to-UC0310 &#35611;&#24231;&#24773;&#22577;&#12434;&#32232;&#38598;&#12377;&#12427;" style="stroke:#181818;stroke-width:1;stroke-dasharray:7.0,7.0;"/><polygon fill="#181818" points="563.39,503.89,553.7585,501.8325,558.4975,504.9214,555.4086,509.6604,563.39,503.89" style="stroke:#181818;stroke-width:1;"/><text fill="#000000" font-family="sans-serif" font-size="13" lengthAdjust="spacing" textLength="67.958" x="436.34" y="515.0669">&#171;extends&#187;</text></g><!--link UC0307 ??????????? to UC0309 ?????????--><g id="link_UC0307 &#12459;&#12522;&#12461;&#12517;&#12521;&#12512;&#12434;&#20462;&#27491;&#12377;&#12427;_UC0309 &#12502;&#12525;&#12483;&#12463;&#12434;&#21066;&#38500;&#12377;&#12427;"><path d="M354.99,540.92 C371.98,534.52 389.69,526.83 405.34,518 C420.21,509.61 420.93,503.17 435.34,494 C476.74,467.62 489.38,464.73 534.34,445 C550.88,437.74 563.4979,432.5985 580.2379,426.1785 " fill="#FFFFFF" fill-opacity="0.00000" id="UC0307 &#12459;&#12522;&#12461;&#12517;&#12521;&#12512;&#12434;&#20462;&#27491;&#12377;&#12427;-to-UC0309 &#12502;&#12525;&#12483;&#12463;&#12434;&#21066;&#38500;&#12377;&#12427;" style="stroke:#181818;stroke-width:1;stroke-dasharray:7.0,7.0;"/><polygon fill="#181818" points="585.84,424.03,576.0045,423.518,581.1715,425.8204,578.8691,430.9875,585.84,424.03" style="stroke:#181818;stroke-width:1;"/><text fill="#000000" font-family="sans-serif" font-size="13" lengthAdjust="spacing" textLength="67.958" x="436.34" y="455.0669">&#171;extends&#187;</text></g><!--link UC0307 ??????????? to UC0308 ???????--><g id="link_UC0307 &#12459;&#12522;&#12461;&#12517;&#12521;&#12512;&#12434;&#20462;&#27491;&#12377;&#12427;_UC0308 &#23398;&#32026;&#12434;&#21066;&#38500;&#12377;&#12427;"><path d="M367.5,543.09 C381.44,536.85 394.76,528.68 405.34,518 C433.23,489.83 411.69,465.82 435.34,434 C467.95,390.13 486.08,386.7 534.34,361 C549.96,352.68 562.0743,347.4733 578.6743,341.5933 " fill="#FFFFFF" fill-opacity="0.00000" id="UC0307 &#12459;&#12522;&#12461;&#12517;&#12521;&#12512;&#12434;&#20462;&#27491;&#12377;&#12427;-to-UC0308 &#23398;&#32026;&#12434;&#21066;&#38500;&#12377;&#12427;" style="stroke:#181818;stroke-width:1;stroke-dasharray:7.0,7.0;"/><polygon fill="#181818" points="584.33,339.59,574.5109,338.8246,579.6169,341.2594,577.182,346.3655,584.33,339.59" style="stroke:#181818;stroke-width:1;"/><text fill="#000000" font-family="sans-serif" font-size="13" lengthAdjust="spacing" textLength="67.958" x="436.34" y="373.0669">&#171;extends&#187;</text></g><!--SRC=[oqbDAr4eoLSeoapFA558oInAJIx9pC_ZIamkoIzIU3PrvjFkcLnS1Od9sOdfgGfAeSu11iOAJtTkUJbjykFcziVDUnutxN-oVzspjOkL5Agv5800eaTNLzTE8zJPmDZ0KE7Px3dFfYzzDhFfvSm9ZvicFT- -ukNijiUDCnytTMjYrM845fcyy5bpwzC56udIOWpL0bJyjBFhvSmb-1IRm1GthdlQlUHPmmAWBeWdyEaoLNY-VEBpsUj8S9KPL0jHhZ9NUDoq-d7pgiTDQnytBttSlF9nCwR3m3g9Lw-WfsS7KMvegF1YpUodkvQZkqN1Ii769hMY93KlfTZEZdpp3Q3cOmyUAjbYOAdmk7dQusQWskR7JUjfv1S32uMdQvSztp8Bl_aANBK0]--></g></svg>