<svg xmlns="http://www.w3.org/2000/svg" xmlns:xlink="http://www.w3.org/1999/xlink" contentStyleType="text/css" data-diagram-type="DESCRIPTION" height="530px" preserveAspectRatio="none" style="width:773px;height:530px;background:#FFFFFF;" version="1.1" viewBox="0 0 773 530" width="773px" zoomAndPan="magnify"><defs/><g><!--cluster UCP01 ???????--><g id="cluster_UCP01 &#24180;&#38291;&#12487;&#12540;&#12479;&#30331;&#37682;"><path d="M145.5,6 L300.7593,6 A3.75,3.75 0 0 1 303.2593,8.5 L310.2593,28.2969 L764.04,28.2969 A2.5,2.5 0 0 1 766.54,30.7969 L766.54,520.5 A2.5,2.5 0 0 1 764.04,523 L145.5,523 A2.5,2.5 0 0 1 143,520.5 L143,8.5 A2.5,2.5 0 0 1 145.5,6 " fill="#FFFFFF" fill-opacity="0.00000" style="stroke:#000000;stroke-width:1.5;"/><line style="stroke:#000000;stroke-width:1.5;" x1="143" x2="310.2593" y1="28.2969" y2="28.2969"/><text fill="#000000" font-family="sans-serif" font-size="14" font-weight="bold" lengthAdjust="spacing" textLength="154.2593" x="147" y="20.9951">UCP01 &#24180;&#38291;&#12487;&#12540;&#12479;&#30331;&#37682;</text></g><g id="elem_UC0101 &#26332;&#26085;&#26178;&#38480;&#12434;&#35373;&#23450;&#12377;&#12427;"><ellipse cx="282.1724" cy="65.0005" fill="#F1F1F1" rx="110.1024" ry="24.4205" style="stroke:#181818;stroke-width:0.5;"/><text fill="#000000" font-family="sans-serif" font-size="14" lengthAdjust="spacing" textLength="186.101" x="189.1219" y="67.8472">UC0101 &#26332;&#26085;&#26178;&#38480;&#12434;&#35373;&#23450;&#12377;&#12427;</text></g><g id="elem_UC0102 &#25945;&#21729;&#24773;&#22577;&#12434;&#30331;&#37682;&#12377;&#12427;"><ellipse cx="282.1724" cy="149.0005" fill="#F1F1F1" rx="110.1024" ry="24.4205" style="stroke:#181818;stroke-width:0.5;"/><text fill="#000000" font-family="sans-serif" font-size="14" lengthAdjust="spacing" textLength="186.101" x="189.1219" y="151.8472">UC0102 &#25945;&#21729;&#24773;&#22577;&#12434;&#30331;&#37682;&#12377;&#12427;</text></g><g id="elem_UC0103 &#25945;&#21729;&#12398;&#21220;&#24608;&#12434;&#30331;&#37682;&#12377;&#12427;"><ellipse cx="282.1673" cy="234.0015" fill="#F1F1F1" rx="116.6073" ry="25.7215" style="stroke:#181818;stroke-width:0.5;"/><text fill="#000000" font-family="sans-serif" font-size="14" lengthAdjust="spacing" textLength="200.101" x="182.1169" y="236.8481">UC0103 &#25945;&#21729;&#12398;&#21220;&#24608;&#12434;&#30331;&#37682;&#12377;&#12427;</text></g><g id="elem_UC0104 &#31185;&#30446;&#12434;&#30331;&#37682;&#12377;&#12427;"><ellipse cx="282.1655" cy="317.0011" fill="#F1F1F1" rx="97.3055" ry="21.8611" style="stroke:#181818;stroke-width:0.5;"/><text fill="#000000" font-family="sans-serif" font-size="14" lengthAdjust="spacing" textLength="158.1011" x="203.1149" y="319.8478">UC0104 &#31185;&#30446;&#12434;&#30331;&#37682;&#12377;&#12427;</text></g><g id="elem_UC0105 &#25945;&#23460;&#12434;&#30331;&#37682;&#12377;&#12427;"><ellipse cx="282.1655" cy="396.0011" fill="#F1F1F1" rx="97.3055" ry="21.8611" style="stroke:#181818;stroke-width:0.5;"/><text fill="#000000" font-family="sans-serif" font-size="14" lengthAdjust="spacing" textLength="158.1011" x="203.1149" y="398.8478">UC0105 &#25945;&#23460;&#12434;&#30331;&#37682;&#12377;&#12427;</text></g><g id="elem_UC0106 &#12459;&#12522;&#12461;&#12517;&#12521;&#12512;&#12434;&#30331;&#37682;&#12377;&#12427;"><ellipse cx="282.1679" cy="480.0036" fill="#F1F1F1" rx="123.1679" ry="27.0336" style="stroke:#181818;stroke-width:0.5;"/><text fill="#000000" font-family="sans-serif" font-size="14" lengthAdjust="spacing" textLength="214.1009" x="175.1175" y="482.8503">UC0106 &#12459;&#12522;&#12461;&#12517;&#12521;&#12512;&#12434;&#30331;&#37682;&#12377;&#12427;</text></g><g id="elem_UC0109 &#35611;&#24231;&#12434;&#36861;&#21152;&#12377;&#12427;"><ellipse cx="640.4355" cy="485.0011" fill="#F1F1F1" rx="97.3055" ry="21.8611" style="stroke:#181818;stroke-width:0.5;"/><text fill="#000000" font-family="sans-serif" font-size="14" lengthAdjust="spacing" textLength="158.1011" x="561.3849" y="487.8478">UC0109 &#35611;&#24231;&#12434;&#36861;&#21152;&#12377;&#12427;</text></g><g id="elem_UC0108 &#12502;&#12525;&#12483;&#12463;&#12434;&#36861;&#21152;&#12377;&#12427;"><ellipse cx="640.4424" cy="404.0005" fill="#F1F1F1" rx="110.1024" ry="24.4205" style="stroke:#181818;stroke-width:0.5;"/><text fill="#000000" font-family="sans-serif" font-size="14" lengthAdjust="spacing" textLength="186.101" x="547.3919" y="406.8472">UC0108 &#12502;&#12525;&#12483;&#12463;&#12434;&#36861;&#21152;&#12377;&#12427;</text></g><g id="elem_UC0107 &#23398;&#32026;&#12434;&#30331;&#37682;&#12377;&#12427;"><ellipse cx="640.4355" cy="323.0011" fill="#F1F1F1" rx="97.3055" ry="21.8611" style="stroke:#181818;stroke-width:0.5;"/><text fill="#000000" font-family="sans-serif" font-size="14" lengthAdjust="spacing" textLength="158.1011" x="561.3849" y="325.8478">UC0107 &#23398;&#32026;&#12434;&#30331;&#37682;&#12377;&#12427;</text></g><!--entity ??--><g id="elem_&#25945;&#21209;"><ellipse cx="19.9999" cy="249.35" fill="#F1F1F1" rx="8" ry="8" style="stroke:#181818;stroke-width:0.5;"/><path d="M19.9999,257.35 L19.9999,284.35 M6.9999,265.35 L32.9999,265.35 M19.9999,284.35 L6.9999,299.35 M19.9999,284.35 L32.9999,299.35 " fill="#FFFFFF" fill-opacity="0.00000" style="stroke:#181818;stroke-width:0.5;"/><text fill="#000000" font-family="sans-serif" font-size="14" lengthAdjust="spacing" textLength="27.9999" x="6" y="313.8451">&#25945;&#21209;</text></g><!--link ?? to UC0101 ?????????--><g id="link_&#25945;&#21209;_UC0101 &#26332;&#26085;&#26178;&#38480;&#12434;&#35373;&#23450;&#12377;&#12427;"><path d="M34.46,245.08 C51.8,205.83 85.69,142.13 135,107 C152.31,94.67 167.4448,87.67 187.9348,81.5 " fill="#FFFFFF" fill-opacity="0.00000" id="&#25945;&#21209;-to-UC0101 &#26332;&#26085;&#26178;&#38480;&#12434;&#35373;&#23450;&#12377;&#12427;" style="stroke:#181818;stroke-width:1;"/><polygon fill="#181818" points="193.68,79.77,183.9089,78.5349,188.8924,81.2117,186.2156,86.1951,193.68,79.77" style="stroke:#181818;stroke-width:1;"/></g><!--link ?? to UC0102 ?????????--><g id="link_&#25945;&#21209;_UC0102 &#25945;&#21729;&#24773;&#22577;&#12434;&#30331;&#37682;&#12377;&#12427;"><path d="M34.41,262.99 C42.46,253.91 53.21,242.66 64,234 C92.77,210.91 101.2,205.78 135,191 C157.14,181.32 176.3434,174.8221 199.3134,168.3721 " fill="#FFFFFF" fill-opacity="0.00000" id="&#25945;&#21209;-to-UC0102 &#25945;&#21729;&#24773;&#22577;&#12434;&#30331;&#37682;&#12377;&#12427;" style="stroke:#181818;stroke-width:1;"/><polygon fill="#181818" points="205.09,166.75,195.3437,165.3321,200.2762,168.1017,197.5065,173.0342,205.09,166.75" style="stroke:#181818;stroke-width:1;"/></g><!--link ?? to UC0103 ??????????--><g id="link_&#25945;&#21209;_UC0103 &#25945;&#21729;&#12398;&#21220;&#24608;&#12434;&#30331;&#37682;&#12377;&#12427;"><path d="M34.18,271.95 C42.5,267.81 53.61,262.85 64,260 C97.69,250.76 129.2474,245.4785 163.4974,241.6385 " fill="#FFFFFF" fill-opacity="0.00000" id="&#25945;&#21209;-to-UC0103 &#25945;&#21729;&#12398;&#21220;&#24608;&#12434;&#30331;&#37682;&#12377;&#12427;" style="stroke:#181818;stroke-width:1;"/><polygon fill="#181818" points="169.46,240.97,160.0704,237.9977,164.4911,241.5271,160.9617,245.9479,169.46,240.97" style="stroke:#181818;stroke-width:1;"/></g><!--link ?? to UC0104 ???????--><g id="link_&#25945;&#21209;_UC0104 &#31185;&#30446;&#12434;&#30331;&#37682;&#12377;&#12427;"><path d="M34.26,280.94 C64.39,285.34 134.0929,295.5237 193.7829,304.2337 " fill="#FFFFFF" fill-opacity="0.00000" id="&#25945;&#21209;-to-UC0104 &#31185;&#30446;&#12434;&#30331;&#37682;&#12377;&#12427;" style="stroke:#181818;stroke-width:1;"/><polygon fill="#181818" points="199.72,305.1,191.3919,299.8424,194.7724,304.378,190.2367,307.7586,199.72,305.1" style="stroke:#181818;stroke-width:1;"/></g><!--link ?? to UC0105 ???????--><g id="link_&#25945;&#21209;_UC0105 &#25945;&#23460;&#12434;&#30331;&#37682;&#12377;&#12427;"><path d="M34.17,290.03 C54.54,306.59 95.5,337.86 135,356 C158.19,366.65 178.981,373.4683 203.081,379.6983 " fill="#FFFFFF" fill-opacity="0.00000" id="&#25945;&#21209;-to-UC0105 &#25945;&#23460;&#12434;&#30331;&#37682;&#12377;&#12427;" style="stroke:#181818;stroke-width:1;"/><polygon fill="#181818" points="208.89,381.2,201.1776,375.0748,204.0491,379.9486,199.1753,382.8202,208.89,381.2" style="stroke:#181818;stroke-width:1;"/></g><!--link ?? to UC0106 ???????????--><g id="link_&#25945;&#21209;_UC0106 &#12459;&#12522;&#12461;&#12517;&#12521;&#12512;&#12434;&#30331;&#37682;&#12377;&#12427;"><path d="M34.43,307.24 C52.5,342.26 87.88,401.42 135,435 C151.32,446.63 165.0423,453.4093 184.3023,459.8793 " fill="#FFFFFF" fill-opacity="0.00000" id="&#25945;&#21209;-to-UC0106 &#12459;&#12522;&#12461;&#12517;&#12521;&#12512;&#12434;&#30331;&#37682;&#12377;&#12427;" style="stroke:#181818;stroke-width:1;"/><polygon fill="#181818" points="189.99,461.79,182.7323,455.1323,185.2503,460.1978,180.1848,462.7158,189.99,461.79" style="stroke:#181818;stroke-width:1;"/></g><!--link UC0106 ??????????? to UC0109 ???????--><g id="link_UC0106 &#12459;&#12522;&#12461;&#12517;&#12521;&#12512;&#12434;&#30331;&#37682;&#12377;&#12427;_UC0109 &#35611;&#24231;&#12434;&#36861;&#21152;&#12377;&#12427;"><path d="M405.28,481.71 C450.3,482.35 494.6306,482.9652 537.0606,483.5652 " fill="#FFFFFF" fill-opacity="0.00000" id="UC0106 &#12459;&#12522;&#12461;&#12517;&#12521;&#12512;&#12434;&#30331;&#37682;&#12377;&#12427;-to-UC0109 &#35611;&#24231;&#12434;&#36861;&#21152;&#12377;&#12427;" style="stroke:#181818;stroke-width:1;stroke-dasharray:7.0,7.0;"/><polygon fill="#181818" points="543.06,483.65,534.1175,479.5231,538.0605,483.5793,534.0043,487.5223,543.06,483.65" style="stroke:#181818;stroke-width:1;"/><text fill="#000000" font-family="sans-serif" font-size="13" lengthAdjust="spacing" textLength="63.0068" x="436.34" y="478.0669">&#171;include&#187;</text></g><!--link UC0106 ??????????? to UC0108 ?????????--><g id="link_UC0106 &#12459;&#12522;&#12461;&#12517;&#12521;&#12512;&#12434;&#30331;&#37682;&#12377;&#12427;_UC0108 &#12502;&#12525;&#12483;&#12463;&#12434;&#36861;&#21152;&#12377;&#12427;"><path d="M371.69,461.12 C429.4,448.81 498.1921,434.132 554.0121,422.222 " fill="#FFFFFF" fill-opacity="0.00000" id="UC0106 &#12459;&#12522;&#12461;&#12517;&#12521;&#12512;&#12434;&#30331;&#37682;&#12377;&#12427;-to-UC0108 &#12502;&#12525;&#12483;&#12463;&#12434;&#36861;&#21152;&#12377;&#12427;" style="stroke:#181818;stroke-width:1;stroke-dasharray:7.0,7.0;"/><polygon fill="#181818" points="559.88,420.97,550.2435,418.9361,554.9901,422.0133,551.9128,426.76,559.88,420.97" style="stroke:#181818;stroke-width:1;"/><text fill="#000000" font-family="sans-serif" font-size="13" lengthAdjust="spacing" textLength="63.0068" x="436.34" y="432.0669">&#171;include&#187;</text></g><!--link UC0106 ??????????? to UC0107 ???????--><g id="link_UC0106 &#12459;&#12522;&#12461;&#12517;&#12521;&#12512;&#12434;&#30331;&#37682;&#12377;&#12427;_UC0107 &#23398;&#32026;&#12434;&#30331;&#37682;&#12377;&#12427;"><path d="M354.99,457.92 C371.98,451.52 389.69,443.83 405.34,435 C420.21,426.61 421.01,420.29 435.34,411 C475.19,385.14 486.76,380.93 530.34,362 C547.49,354.55 560.9224,349.3578 578.2824,343.2278 " fill="#FFFFFF" fill-opacity="0.00000" id="UC0106 &#12459;&#12522;&#12461;&#12517;&#12521;&#12512;&#12434;&#30331;&#37682;&#12377;&#12427;-to-UC0107 &#23398;&#32026;&#12434;&#30331;&#37682;&#12377;&#12427;" style="stroke:#181818;stroke-width:1;stroke-dasharray:7.0,7.0;"/><polygon fill="#181818" points="583.94,341.23,574.1217,340.4549,579.2253,342.8948,576.7854,347.9984,583.94,341.23" style="stroke:#181818;stroke-width:1;"/><text fill="#000000" font-family="sans-serif" font-size="13" lengthAdjust="spacing" textLength="63.0068" x="436.34" y="372.0669">&#171;include&#187;</text></g><!--SRC=[oqbDAr4eoLSeoapFA558oInAJIx9pC_ZIamkoIzIU3PrvjFkcLnS1Od9sOdfgGfAeSu11eOAJtTkUJbjykFcziVDUnutxNy-S_VBdarA2jLS2a00qQEhgskd4UfiO0XK_cpsd6VJbpwRsVHoveJ7JPDUh5ZxTDsinuqp7pTrQsBLOWGMcRpmMNFhqmKRWLeWDk3JOWpLyhXntTFk9SyQ5X2boqJX-VA9psUl8qgnALXatHAY59ifF6vQ_RXvrUEcjO-RbpvkNlcu6TD9O9t4grVGqxE3AhTKUB5czjDToq71kN_lqwu5C2LM2ZOscNd9EQKfgNPsv9jleV2uUThZPg3QviTDwsbbYxd2qxNBdc-PXQ44rVnQ0000]--></g></svg>