<svg xmlns="http://www.w3.org/2000/svg" xmlns:xlink="http://www.w3.org/1999/xlink" contentStyleType="text/css" data-diagram-type="DESCRIPTION" height="737px" preserveAspectRatio="none" style="width:964px;height:737px;background:#FFFFFF;" version="1.1" viewBox="0 0 964 737" width="964px" zoomAndPan="magnify"><defs/><g><!--cluster UCP02 ???????--><g id="cluster_UCP02 &#24180;&#38291;&#26178;&#38291;&#21106;&#32232;&#25104;"><path d="M145.5,6 L300.7593,6 A3.75,3.75 0 0 1 303.2593,8.5 L310.2593,28.2969 L954.79,28.2969 A2.5,2.5 0 0 1 957.29,30.7969 L957.29,727.5 A2.5,2.5 0 0 1 954.79,730 L145.5,730 A2.5,2.5 0 0 1 143,727.5 L143,8.5 A2.5,2.5 0 0 1 145.5,6 " fill="#FFFFFF" fill-opacity="0.00000" style="stroke:#000000;stroke-width:1.5;"/><line style="stroke:#000000;stroke-width:1.5;" x1="143" x2="310.2593" y1="28.2969" y2="28.2969"/><text fill="#000000" font-family="sans-serif" font-size="14" font-weight="bold" lengthAdjust="spacing" textLength="154.2593" x="147" y="20.9951">UCP02 &#24180;&#38291;&#26178;&#38291;&#21106;&#32232;&#25104;</text></g><g id="elem_UC0201 &#21046;&#32004;&#26465;&#20214;&#12434;&#35506;&#12377;&#65288;&#32068;&#12415;&#36796;&#12415;&#65289;"><ellipse cx="315.5531" cy="71.0046" fill="#F1F1F1" rx="136.4231" ry="29.6846" style="stroke:#181818;stroke-width:0.5;"/><text fill="#000000" font-family="sans-serif" font-size="14" lengthAdjust="spacing" textLength="242.1008" x="194.5027" y="73.8513">UC0201 &#21046;&#32004;&#26465;&#20214;&#12434;&#35506;&#12377;&#65288;&#32068;&#12415;&#36796;&#12415;&#65289;</text></g><g id="elem_UC0202 &#21046;&#32004;&#26465;&#20214;&#12434;&#35506;&#12377;&#65288;&#12481;&#12515;&#12483;&#12488;&#65289;"><ellipse cx="315.5531" cy="165.0046" fill="#F1F1F1" rx="136.4231" ry="29.6846" style="stroke:#181818;stroke-width:0.5;"/><text fill="#000000" font-family="sans-serif" font-size="14" lengthAdjust="spacing" textLength="242.1008" x="194.5027" y="167.8513">UC0202 &#21046;&#32004;&#26465;&#20214;&#12434;&#35506;&#12377;&#65288;&#12481;&#12515;&#12483;&#12488;&#65289;</text></g><g id="elem_UC0203 &#32232;&#25104;&#12434;&#23455;&#34892;&#12377;&#12427;"><ellipse cx="315.5455" cy="252.0011" fill="#F1F1F1" rx="97.3055" ry="21.8611" style="stroke:#181818;stroke-width:0.5;"/><text fill="#000000" font-family="sans-serif" font-size="14" lengthAdjust="spacing" textLength="158.1011" x="236.4949" y="254.8478">UC0203 &#32232;&#25104;&#12434;&#23455;&#34892;&#12377;&#12427;</text></g><g id="elem_UC0204 &#32232;&#25104;&#32080;&#26524;&#12434;&#35211;&#12427;"><ellipse cx="315.5455" cy="331.0011" fill="#F1F1F1" rx="97.3055" ry="21.8611" style="stroke:#181818;stroke-width:0.5;"/><text fill="#000000" font-family="sans-serif" font-size="14" lengthAdjust="spacing" textLength="158.1011" x="236.4949" y="333.8478">UC0204 &#32232;&#25104;&#32080;&#26524;&#12434;&#35211;&#12427;</text></g><g id="elem_UC0209 &#21046;&#32004;&#26465;&#20214;&#12434;&#32233;&#21644;&#12377;&#12427;"><ellipse cx="315.5524" cy="412.0005" fill="#F1F1F1" rx="110.1024" ry="24.4205" style="stroke:#181818;stroke-width:0.5;"/><text fill="#000000" font-family="sans-serif" font-size="14" lengthAdjust="spacing" textLength="186.101" x="222.5019" y="414.8472">UC0209 &#21046;&#32004;&#26465;&#20214;&#12434;&#32233;&#21644;&#12377;&#12427;</text></g><g id="elem_UC0214 &#12467;&#12510;&#12434;&#20837;&#12428;&#26367;&#12360;&#12427;"><ellipse cx="315.5539" cy="495.0028" fill="#F1F1F1" rx="103.6639" ry="23.1328" style="stroke:#181818;stroke-width:0.5;"/><text fill="#000000" font-family="sans-serif" font-size="14" lengthAdjust="spacing" textLength="172.1011" x="229.5034" y="497.8495">UC0214 &#12467;&#12510;&#12434;&#20837;&#12428;&#26367;&#12360;&#12427;</text></g><g id="elem_UC0215 &#25215;&#35469;&#21069;&#12398;&#26178;&#38291;&#21106;&#12434;&#12480;&#12454;&#12531;&#12525;&#12540;&#12489;&#12377;&#12427;"><ellipse cx="315.5539" cy="587.0008" fill="#F1F1F1" rx="156.5539" ry="33.7108" style="stroke:#181818;stroke-width:0.5;"/><text fill="#000000" font-family="sans-serif" font-size="14" lengthAdjust="spacing" textLength="284.1006" x="173.5037" y="589.8475">UC0215 &#25215;&#35469;&#21069;&#12398;&#26178;&#38291;&#21106;&#12434;&#12480;&#12454;&#12531;&#12525;&#12540;&#12489;&#12377;&#12427;</text></g><g id="elem_UC0216 &#26178;&#38291;&#21106;&#12434;&#25215;&#35469;&#12377;&#12427;"><ellipse cx="315.5539" cy="679.0028" fill="#F1F1F1" rx="103.6639" ry="23.1328" style="stroke:#181818;stroke-width:0.5;"/><text fill="#000000" font-family="sans-serif" font-size="14" lengthAdjust="spacing" textLength="172.1011" x="229.5034" y="681.8495">UC0216 &#26178;&#38291;&#21106;&#12434;&#25215;&#35469;&#12377;&#12427;</text></g><g id="elem_UC0205 &#23398;&#32026;&#12499;&#12517;&#12540;&#12434;&#35211;&#12427;"><ellipse cx="771.2039" cy="307.0028" fill="#F1F1F1" rx="103.6639" ry="23.1328" style="stroke:#181818;stroke-width:0.5;"/><text fill="#000000" font-family="sans-serif" font-size="14" lengthAdjust="spacing" textLength="172.1011" x="685.1534" y="309.8495">UC0205 &#23398;&#32026;&#12499;&#12517;&#12540;&#12434;&#35211;&#12427;</text></g><g id="elem_UC0206 &#25945;&#21729;&#12499;&#12517;&#12540;&#12434;&#35211;&#12427;"><ellipse cx="771.2039" cy="226.0028" fill="#F1F1F1" rx="103.6639" ry="23.1328" style="stroke:#181818;stroke-width:0.5;"/><text fill="#000000" font-family="sans-serif" font-size="14" lengthAdjust="spacing" textLength="172.1011" x="685.1534" y="228.8495">UC0206 &#25945;&#21729;&#12499;&#12517;&#12540;&#12434;&#35211;&#12427;</text></g><g id="elem_UC0207 &#25945;&#23460;&#12499;&#12517;&#12540;&#12434;&#35211;&#12427;"><ellipse cx="771.2039" cy="145.0028" fill="#F1F1F1" rx="103.6639" ry="23.1328" style="stroke:#181818;stroke-width:0.5;"/><text fill="#000000" font-family="sans-serif" font-size="14" lengthAdjust="spacing" textLength="172.1011" x="685.1534" y="147.8495">UC0207 &#25945;&#23460;&#12499;&#12517;&#12540;&#12434;&#35211;&#12427;</text></g><g id="elem_UC0208 &#32113;&#35336;&#12499;&#12517;&#12540;&#12434;&#35211;&#12427;"><ellipse cx="771.2039" cy="64.0028" fill="#F1F1F1" rx="103.6639" ry="23.1328" style="stroke:#181818;stroke-width:0.5;"/><text fill="#000000" font-family="sans-serif" font-size="14" lengthAdjust="spacing" textLength="172.1011" x="685.1534" y="66.8495">UC0208 &#32113;&#35336;&#12499;&#12517;&#12540;&#12434;&#35211;&#12427;</text></g><g id="elem_UC0213 &#21046;&#32004;&#26465;&#20214;&#12398;&#20869;&#23481;&#12434;&#22793;&#26356;&#12377;&#12427;&#65288;&#12481;&#12515;&#12483;&#12488;&#65289;"><ellipse cx="771.2034" cy="677.9987" fill="#F1F1F1" rx="170.0934" ry="36.4187" style="stroke:#181818;stroke-width:0.5;"/><text fill="#000000" font-family="sans-serif" font-size="14" lengthAdjust="spacing" textLength="312.1005" x="615.1532" y="680.8454">UC0213 &#21046;&#32004;&#26465;&#20214;&#12398;&#20869;&#23481;&#12434;&#22793;&#26356;&#12377;&#12427;&#65288;&#12481;&#12515;&#12483;&#12488;&#65289;</text></g><g id="elem_UC0212 &#21046;&#32004;&#26465;&#20214;&#12398;&#20869;&#23481;&#12434;&#22793;&#26356;&#12377;&#12427;&#65288;&#32068;&#12415;&#36796;&#12415;&#65289;"><ellipse cx="771.2034" cy="569.9987" fill="#F1F1F1" rx="170.0934" ry="36.4187" style="stroke:#181818;stroke-width:0.5;"/><text fill="#000000" font-family="sans-serif" font-size="14" lengthAdjust="spacing" textLength="312.1005" x="615.1532" y="572.8454">UC0212 &#21046;&#32004;&#26465;&#20214;&#12398;&#20869;&#23481;&#12434;&#22793;&#26356;&#12377;&#12427;&#65288;&#32068;&#12415;&#36796;&#12415;&#65289;</text></g><g id="elem_UC0211 &#21046;&#32004;&#26465;&#20214;&#12434;&#36861;&#21152;&#12377;&#12427;"><ellipse cx="771.2024" cy="474.0005" fill="#F1F1F1" rx="110.1024" ry="24.4205" style="stroke:#181818;stroke-width:0.5;"/><text fill="#000000" font-family="sans-serif" font-size="14" lengthAdjust="spacing" textLength="186.101" x="678.1519" y="476.8472">UC0211 &#21046;&#32004;&#26465;&#20214;&#12434;&#36861;&#21152;&#12377;&#12427;</text></g><g id="elem_UC0210 &#21046;&#32004;&#26465;&#20214;&#12434;&#38500;&#22806;&#12377;&#12427;"><ellipse cx="771.2024" cy="390.0005" fill="#F1F1F1" rx="110.1024" ry="24.4205" style="stroke:#181818;stroke-width:0.5;"/><text fill="#000000" font-family="sans-serif" font-size="14" lengthAdjust="spacing" textLength="186.101" x="678.1519" y="392.8472">UC0210 &#21046;&#32004;&#26465;&#20214;&#12434;&#38500;&#22806;&#12377;&#12427;</text></g><!--entity ??--><g id="elem_&#25945;&#21209;"><ellipse cx="19.9999" cy="345.35" fill="#F1F1F1" rx="8" ry="8" style="stroke:#181818;stroke-width:0.5;"/><path d="M19.9999,353.35 L19.9999,380.35 M6.9999,361.35 L32.9999,361.35 M19.9999,380.35 L6.9999,395.35 M19.9999,380.35 L32.9999,395.35 " fill="#FFFFFF" fill-opacity="0.00000" style="stroke:#181818;stroke-width:0.5;"/><text fill="#000000" font-family="sans-serif" font-size="14" lengthAdjust="spacing" textLength="27.9999" x="6" y="409.8451">&#25945;&#21209;</text></g><!--link ?? to UC0201 ?????????????--><g id="link_&#25945;&#21209;_UC0201 &#21046;&#32004;&#26465;&#20214;&#12434;&#35506;&#12377;&#65288;&#32068;&#12415;&#36796;&#12415;&#65289;"><path d="M26.92,336.63 C37.79,279.84 66.43,174.1 135,118 C152.96,103.31 169.2815,94.9444 191.7215,87.9544 " fill="#FFFFFF" fill-opacity="0.00000" id="&#25945;&#21209;-to-UC0201 &#21046;&#32004;&#26465;&#20214;&#12434;&#35506;&#12377;&#65288;&#32068;&#12415;&#36796;&#12415;&#65289;" style="stroke:#181818;stroke-width:1;"/><polygon fill="#181818" points="197.45,86.17,187.6676,85.0276,192.6762,87.657,190.0468,92.6656,197.45,86.17" style="stroke:#181818;stroke-width:1;"/></g><!--link ?? to UC0202 ?????????????--><g id="link_&#25945;&#21209;_UC0202 &#21046;&#32004;&#26465;&#20214;&#12434;&#35506;&#12377;&#65288;&#12481;&#12515;&#12483;&#12488;&#65289;"><path d="M34.45,343.36 C51.97,306.12 86.25,245.27 135,213 C155.72,199.29 174.4582,191.1539 198.5882,184.1439 " fill="#FFFFFF" fill-opacity="0.00000" id="&#25945;&#21209;-to-UC0202 &#21046;&#32004;&#26465;&#20214;&#12434;&#35506;&#12377;&#65288;&#12481;&#12515;&#12483;&#12488;&#65289;" style="stroke:#181818;stroke-width:1;"/><polygon fill="#181818" points="204.35,182.47,194.5914,181.1396,199.5485,183.8649,196.8232,188.822,204.35,182.47" style="stroke:#181818;stroke-width:1;"/></g><!--link ?? to UC0203 ???????--><g id="link_&#25945;&#21209;_UC0203 &#32232;&#25104;&#12434;&#23455;&#34892;&#12377;&#12427;"><path d="M34.24,358.78 C42.24,349.62 52.99,338.37 64,330 C112.52,293.13 172.8447,274.6676 225.0147,264.3176 " fill="#FFFFFF" fill-opacity="0.00000" id="&#25945;&#21209;-to-UC0203 &#32232;&#25104;&#12434;&#23455;&#34892;&#12377;&#12427;" style="stroke:#181818;stroke-width:1;"/><polygon fill="#181818" points="230.9,263.15,221.2937,260.9778,225.9956,264.123,222.8504,268.8249,230.9,263.15" style="stroke:#181818;stroke-width:1;"/></g><!--link ?? to UC0204 ???????--><g id="link_&#25945;&#21209;_UC0204 &#32232;&#25104;&#32080;&#26524;&#12434;&#35211;&#12427;"><path d="M34.16,367.88 C42.48,363.71 53.58,358.75 64,356 C113.99,342.82 165.2621,336.8609 212.4221,333.8609 " fill="#FFFFFF" fill-opacity="0.00000" id="&#25945;&#21209;-to-UC0204 &#32232;&#25104;&#32080;&#26524;&#12434;&#35211;&#12427;" style="stroke:#181818;stroke-width:1;"/><polygon fill="#181818" points="218.41,333.48,209.1742,330.0594,213.4201,333.7974,209.6821,338.0433,218.41,333.48" style="stroke:#181818;stroke-width:1;"/></g><!--link ?? to UC0209 ?????????--><g id="link_&#25945;&#21209;_UC0209 &#21046;&#32004;&#26465;&#20214;&#12434;&#32233;&#21644;&#12377;&#12427;"><path d="M34.38,376.69 C66.68,380.76 145.3371,390.6699 213.1871,399.2199 " fill="#FFFFFF" fill-opacity="0.00000" id="&#25945;&#21209;-to-UC0209 &#21046;&#32004;&#26465;&#20214;&#12434;&#32233;&#21644;&#12377;&#12427;" style="stroke:#181818;stroke-width:1;"/><polygon fill="#181818" points="219.14,399.97,210.7107,394.8762,214.1792,399.3449,209.7105,402.8134,219.14,399.97" style="stroke:#181818;stroke-width:1;"/></g><!--link ?? to UC0214 ????????--><g id="link_&#25945;&#21209;_UC0214 &#12467;&#12510;&#12434;&#20837;&#12428;&#26367;&#12360;&#12427;"><path d="M34.35,386.84 C54.64,404.21 95.12,436.42 135,454 C164.26,466.9 192.1843,474.7649 222.5043,481.0349 " fill="#FFFFFF" fill-opacity="0.00000" id="&#25945;&#21209;-to-UC0214 &#12467;&#12510;&#12434;&#20837;&#12428;&#26367;&#12360;&#12427;" style="stroke:#181818;stroke-width:1;"/><polygon fill="#181818" points="228.38,482.25,220.3765,476.5103,223.4836,481.2375,218.7564,484.3445,228.38,482.25" style="stroke:#181818;stroke-width:1;"/></g><!--link ?? to UC0215 ????????????????--><g id="link_&#25945;&#21209;_UC0215 &#25215;&#35469;&#21069;&#12398;&#26178;&#38291;&#21106;&#12434;&#12480;&#12454;&#12531;&#12525;&#12540;&#12489;&#12377;&#12427;"><path d="M34.39,404.96 C52.18,441.35 87.05,502.08 135,536 C152.86,548.63 168.0982,556.222 189.2282,563.392 " fill="#FFFFFF" fill-opacity="0.00000" id="&#25945;&#21209;-to-UC0215 &#25215;&#35469;&#21069;&#12398;&#26178;&#38291;&#21106;&#12434;&#12480;&#12454;&#12531;&#12525;&#12540;&#12489;&#12377;&#12427;" style="stroke:#181818;stroke-width:1;"/><polygon fill="#181818" points="194.91,565.32,187.6726,558.6401,190.1752,563.7133,185.102,566.2159,194.91,565.32" style="stroke:#181818;stroke-width:1;"/></g><!--link ?? to UC0216 ????????--><g id="link_&#25945;&#21209;_UC0216 &#26178;&#38291;&#21106;&#12434;&#25215;&#35469;&#12377;&#12427;"><path d="M26.52,413.24 C36.95,471.02 65.14,579.97 135,638 C157.38,656.59 180.6655,665.929 208.9555,671.809 " fill="#FFFFFF" fill-opacity="0.00000" id="&#25945;&#21209;-to-UC0216 &#26178;&#38291;&#21106;&#12434;&#25215;&#35469;&#12377;&#12427;" style="stroke:#181818;stroke-width:1;"/><polygon fill="#181818" points="214.83,673.03,206.8323,667.2822,209.9346,672.0125,205.2043,675.1148,214.83,673.03" style="stroke:#181818;stroke-width:1;"/></g><!--reverse link UC0204 ??????? to UC0205 ????????--><g id="link_UC0204 &#32232;&#25104;&#32080;&#26524;&#12434;&#35211;&#12427;_UC0205 &#23398;&#32026;&#12499;&#12517;&#12540;&#12434;&#35211;&#12427;"><path d="M428.8049,325.0598 C504.4749,321.0598 592.49,316.4 669.76,312.31 " fill="#FFFFFF" fill-opacity="0.00000" id="UC0204 &#32232;&#25104;&#32080;&#26524;&#12434;&#35211;&#12427;-backto-UC0205 &#23398;&#32026;&#12499;&#12517;&#12540;&#12434;&#35211;&#12427;" style="stroke:#181818;stroke-width:1;"/><polygon fill="#FFFFFF" fill-opacity="0.00000" points="410.83,326.01,429.1216,331.0515,428.4882,319.0682,410.83,326.01" style="stroke:#181818;stroke-width:1;"/></g><!--reverse link UC0204 ??????? to UC0206 ????????--><g id="link_UC0204 &#32232;&#25104;&#32080;&#26524;&#12434;&#35211;&#12427;_UC0206 &#25945;&#21729;&#12499;&#12517;&#12540;&#12434;&#35211;&#12427;"><path d="M402.0064,311.221 C486.2964,291.711 611.87,262.65 698.07,242.7 " fill="#FFFFFF" fill-opacity="0.00000" id="UC0204 &#32232;&#25104;&#32080;&#26524;&#12434;&#35211;&#12427;-backto-UC0206 &#25945;&#21729;&#12499;&#12517;&#12540;&#12434;&#35211;&#12427;" style="stroke:#181818;stroke-width:1;"/><polygon fill="#FFFFFF" fill-opacity="0.00000" points="384.47,315.28,403.3594,317.0664,400.6534,305.3755,384.47,315.28" style="stroke:#181818;stroke-width:1;"/></g><!--reverse link UC0204 ??????? to UC0207 ????????--><g id="link_UC0204 &#32232;&#25104;&#32080;&#26524;&#12434;&#35211;&#12427;_UC0207 &#25945;&#23460;&#12499;&#12517;&#12540;&#12434;&#35211;&#12427;"><path d="M412.031,313.7827 C437.621,307.6927 448.11,303.18 472.11,291 C505.19,274.2 567.86,201.47 601.11,185 C626.52,172.41 656.06,163.67 683.28,157.66 " fill="#FFFFFF" fill-opacity="0.00000" id="UC0204 &#32232;&#25104;&#32080;&#26524;&#12434;&#35211;&#12427;-backto-UC0207 &#25945;&#23460;&#12499;&#12517;&#12540;&#12434;&#35211;&#12427;" style="stroke:#181818;stroke-width:1;"/><polygon fill="#FFFFFF" fill-opacity="0.00000" points="394.52,317.95,413.4201,319.6197,410.6418,307.9457,394.52,317.95" style="stroke:#181818;stroke-width:1;"/></g><!--reverse link UC0204 ??????? to UC0208 ????????--><g id="link_UC0204 &#32232;&#25104;&#32080;&#26524;&#12434;&#35211;&#12427;_UC0208 &#32113;&#35336;&#12499;&#12517;&#12540;&#12434;&#35211;&#12427;"><path d="M422.5416,317.6807 C446.2716,311.8007 453.12,306.54 472.11,291 C495.8,271.61 485.84,254.93 502.11,229 C539.77,168.97 541.31,142.04 601.11,104 C624.01,89.43 651.71,80.16 678.01,74.26 " fill="#FFFFFF" fill-opacity="0.00000" id="UC0204 &#32232;&#25104;&#32080;&#26524;&#12434;&#35211;&#12427;-backto-UC0208 &#32113;&#35336;&#12499;&#12517;&#12540;&#12434;&#35211;&#12427;" style="stroke:#181818;stroke-width:1;"/><polygon fill="#FFFFFF" fill-opacity="0.00000" points="405.07,322.01,423.9847,323.5046,421.0985,311.8569,405.07,322.01" style="stroke:#181818;stroke-width:1;"/></g><!--link UC0209 ????????? to UC0213 ??????????????????--><g id="link_UC0209 &#21046;&#32004;&#26465;&#20214;&#12434;&#32233;&#21644;&#12377;&#12427;_UC0213 &#21046;&#32004;&#26465;&#20214;&#12398;&#20869;&#23481;&#12434;&#22793;&#26356;&#12377;&#12427;&#65288;&#12481;&#12515;&#12483;&#12488;&#65289;"><path d="M413.54,423.53 C434.73,429.81 455.7,439.41 472.11,454 C498.93,477.86 482.04,499.23 502.11,529 C536.2,579.56 548.71,592.81 601.11,624 C618.85,634.56 633.2422,641.2646 653.1522,648.4046 " fill="#FFFFFF" fill-opacity="0.00000" id="UC0209 &#21046;&#32004;&#26465;&#20214;&#12434;&#32233;&#21644;&#12377;&#12427;-to-UC0213 &#21046;&#32004;&#26465;&#20214;&#12398;&#20869;&#23481;&#12434;&#22793;&#26356;&#12377;&#12427;&#65288;&#12481;&#12515;&#12483;&#12488;&#65289;" style="stroke:#181818;stroke-width:1;stroke-dasharray:7.0,7.0;"/><polygon fill="#181818" points="658.8,650.43,651.6785,643.6267,654.0935,648.7422,648.978,651.1571,658.8,650.43" style="stroke:#181818;stroke-width:1;"/><text fill="#000000" font-family="sans-serif" font-size="13" lengthAdjust="spacing" textLength="67.958" x="503.11" y="525.0669">&#171;extends&#187;</text></g><!--link UC0209 ????????? to UC0212 ??????????????????--><g id="link_UC0209 &#21046;&#32004;&#26465;&#20214;&#12434;&#32233;&#21644;&#12377;&#12427;_UC0212 &#21046;&#32004;&#26465;&#20214;&#12398;&#20869;&#23481;&#12434;&#22793;&#26356;&#12377;&#12427;&#65288;&#32068;&#12415;&#36796;&#12415;&#65289;"><path d="M396.32,429.02 C421.09,435.49 448.17,443.82 472.11,454 C486.42,460.08 488.31,464.83 502.11,472 C544.83,494.21 556.11,498.87 601.11,516 C623.43,524.5 642.0203,530.9562 665.0603,538.3962 " fill="#FFFFFF" fill-opacity="0.00000" id="UC0209 &#21046;&#32004;&#26465;&#20214;&#12434;&#32233;&#21644;&#12377;&#12427;-to-UC0212 &#21046;&#32004;&#26465;&#20214;&#12398;&#20869;&#23481;&#12434;&#22793;&#26356;&#12377;&#12427;&#65288;&#32068;&#12415;&#36796;&#12415;&#65289;" style="stroke:#181818;stroke-width:1;stroke-dasharray:7.0,7.0;"/><polygon fill="#181818" points="670.77,540.24,663.4346,533.6679,666.0119,538.7035,660.9763,541.2808,670.77,540.24" style="stroke:#181818;stroke-width:1;"/><text fill="#000000" font-family="sans-serif" font-size="13" lengthAdjust="spacing" textLength="67.958" x="503.11" y="468.0669">&#171;extends&#187;</text></g><!--link UC0209 ????????? to UC0211 ?????????--><g id="link_UC0209 &#21046;&#32004;&#26465;&#20214;&#12434;&#32233;&#21644;&#12377;&#12427;_UC0211 &#21046;&#32004;&#26465;&#20214;&#12434;&#36861;&#21152;&#12377;&#12427;"><path d="M410.27,424.81 C488.24,435.46 592.7253,449.7476 670.6553,460.3976 " fill="#FFFFFF" fill-opacity="0.00000" id="UC0209 &#21046;&#32004;&#26465;&#20214;&#12434;&#32233;&#21644;&#12377;&#12427;-to-UC0211 &#21046;&#32004;&#26465;&#20214;&#12434;&#36861;&#21152;&#12377;&#12427;" style="stroke:#181818;stroke-width:1;stroke-dasharray:7.0,7.0;"/><polygon fill="#181818" points="676.6,461.21,668.2245,456.0282,671.646,460.533,667.1413,463.9545,676.6,461.21" style="stroke:#181818;stroke-width:1;"/><text fill="#000000" font-family="sans-serif" font-size="13" lengthAdjust="spacing" textLength="67.958" x="503.11" y="434.0669">&#171;extends&#187;</text></g><!--link UC0209 ????????? to UC0210 ?????????--><g id="link_UC0209 &#21046;&#32004;&#26465;&#20214;&#12434;&#32233;&#21644;&#12377;&#12427;_UC0210 &#21046;&#32004;&#26465;&#20214;&#12434;&#38500;&#22806;&#12377;&#12427;"><path d="M423.49,406.81 C495.79,403.31 584.8971,398.9909 657.2071,395.4809 " fill="#FFFFFF" fill-opacity="0.00000" id="UC0209 &#21046;&#32004;&#26465;&#20214;&#12434;&#32233;&#21644;&#12377;&#12427;-to-UC0210 &#21046;&#32004;&#26465;&#20214;&#12434;&#38500;&#22806;&#12377;&#12427;" style="stroke:#181818;stroke-width:1;stroke-dasharray:7.0,7.0;"/><polygon fill="#181818" points="663.2,395.19,654.0166,391.6311,658.2059,395.4324,654.4045,399.6217,663.2,395.19" style="stroke:#181818;stroke-width:1;"/><text fill="#000000" font-family="sans-serif" font-size="13" lengthAdjust="spacing" textLength="67.958" x="503.11" y="396.0669">&#171;extends&#187;</text></g><!--SRC=[fPFBJi9058RtVOeJLhee0HIyXB3X1Tpu00Gh4eqOxC94JMn7J2kG48Wa5Mz494fY4vLBY2WFSvoshdW52qKZM0YHBcRr_Tz_PgQpnQtpmCSW7eriyB0MZNDXFXhRPfXGc8_5GJjJQ59Xc9rGU3CKuS2n6bnnUO0sgv_vdAQ8vahbPxrnhqaP1-mpO7vMXcNPmCngqELnkO5ATRrwh5qMFrxhA6QDoZCAIgSbwRLZ5Dh6UyjSEorvrZRk6Hb78Y2vHKAGI2FZSs1DPmQfUcqKKsOMnQGzFD-7zLf6kxheTfMJ8-6buS7qnWFDZlExvm755oHNtM4IToYcj48R1MaaxmLDRXkLD9NJAAW_vst6aHoXM4PYsXwHj938utfzy3jhER_vNc3yzi5_mB9znWlqiQnNpv7aaDnrgmTFQNAJhpTchZYzQQ5dKalJcnP1hpqPzvATwPTg_DM3qncmGFVS82Yez2H1rMRt_akoLgXQ2Pj_6PR1x-VsU6vxRJSG-4-rPzBguLSuVVNV5zz-ewStt-3KVjSm-AcKQ2blxp_y0W00]--></g></svg>