<svg xmlns="http://www.w3.org/2000/svg" xmlns:xlink="http://www.w3.org/1999/xlink" contentStyleType="text/css" data-diagram-type="DESCRIPTION" height="451px" preserveAspectRatio="none" style="width:773px;height:451px;background:#FFFFFF;" version="1.1" viewBox="0 0 773 451" width="773px" zoomAndPan="magnify"><defs/><g><!--cluster UCP01 ???????--><g id="cluster_UCP01 &#24180;&#38291;&#12487;&#12540;&#12479;&#30331;&#37682;"><path d="M145.5,6 L300.7593,6 A3.75,3.75 0 0 1 303.2593,8.5 L310.2593,28.2969 L764.04,28.2969 A2.5,2.5 0 0 1 766.54,30.7969 L766.54,441.5 A2.5,2.5 0 0 1 764.04,444 L145.5,444 A2.5,2.5 0 0 1 143,441.5 L143,8.5 A2.5,2.5 0 0 1 145.5,6 " fill="#FFFFFF" fill-opacity="0.00000" style="stroke:#000000;stroke-width:1.5;"/><line style="stroke:#000000;stroke-width:1.5;" x1="143" x2="310.2593" y1="28.2969" y2="28.2969"/><text fill="#000000" font-family="sans-serif" font-size="14" font-weight="bold" lengthAdjust="spacing" textLength="154.2593" x="147" y="20.9951">UCP01 &#24180;&#38291;&#12487;&#12540;&#12479;&#30331;&#37682;</text></g><g id="elem_UC0101 &#26332;&#26085;&#26178;&#38480;&#12434;&#35373;&#23450;&#12377;&#12427;"><ellipse cx="282.1724" cy="65.0005" fill="#F1F1F1" rx="110.1024" ry="24.4205" style="stroke:#181818;stroke-width:0.5;"/><text fill="#000000" font-family="sans-serif" font-size="14" lengthAdjust="spacing" textLength="186.101" x="189.1219" y="67.8472">UC0101 &#26332;&#26085;&#26178;&#38480;&#12434;&#35373;&#23450;&#12377;&#12427;</text></g><g id="elem_UC0102 &#25945;&#21729;&#24773;&#22577;&#12434;&#30331;&#37682;&#12377;&#12427;"><ellipse cx="282.1724" cy="149.0005" fill="#F1F1F1" rx="110.1024" ry="24.4205" style="stroke:#181818;stroke-width:0.5;"/><text fill="#000000" font-family="sans-serif" font-size="14" lengthAdjust="spacing" textLength="186.101" x="189.1219" y="151.8472">UC0102 &#25945;&#21729;&#24773;&#22577;&#12434;&#30331;&#37682;&#12377;&#12427;</text></g><g id="elem_UC0103 &#25945;&#21729;&#12398;&#21220;&#24608;&#12434;&#30331;&#37682;&#12377;&#12427;"><ellipse cx="282.1673" cy="234.0015" fill="#F1F1F1" rx="116.6073" ry="25.7215" style="stroke:#181818;stroke-width:0.5;"/><text fill="#000000" font-family="sans-serif" font-size="14" lengthAdjust="spacing" textLength="200.101" x="182.1169" y="236.8481">UC0103 &#25945;&#21729;&#12398;&#21220;&#24608;&#12434;&#30331;&#37682;&#12377;&#12427;</text></g><g id="elem_UC0104 &#31185;&#30446;&#12434;&#30331;&#37682;&#12377;&#12427;"><ellipse cx="282.1655" cy="317.0011" fill="#F1F1F1" rx="97.3055" ry="21.8611" style="stroke:#181818;stroke-width:0.5;"/><text fill="#000000" font-family="sans-serif" font-size="14" lengthAdjust="spacing" textLength="158.1011" x="203.1149" y="319.8478">UC0104 &#31185;&#30446;&#12434;&#30331;&#37682;&#12377;&#12427;</text></g><g id="elem_UC0105 &#12459;&#12522;&#12461;&#12517;&#12521;&#12512;&#12434;&#30331;&#37682;&#12377;&#12427;"><ellipse cx="282.1679" cy="401.0036" fill="#F1F1F1" rx="123.1679" ry="27.0336" style="stroke:#181818;stroke-width:0.5;"/><text fill="#000000" font-family="sans-serif" font-size="14" lengthAdjust="spacing" textLength="214.1009" x="175.1175" y="403.8503">UC0105 &#12459;&#12522;&#12461;&#12517;&#12521;&#12512;&#12434;&#30331;&#37682;&#12377;&#12427;</text></g><g id="elem_UC0108 &#35611;&#24231;&#12434;&#36861;&#21152;&#12377;&#12427;"><ellipse cx="640.4355" cy="406.0011" fill="#F1F1F1" rx="97.3055" ry="21.8611" style="stroke:#181818;stroke-width:0.5;"/><text fill="#000000" font-family="sans-serif" font-size="14" lengthAdjust="spacing" textLength="158.1011" x="561.3849" y="408.8478">UC0108 &#35611;&#24231;&#12434;&#36861;&#21152;&#12377;&#12427;</text></g><g id="elem_UC0107 &#12502;&#12525;&#12483;&#12463;&#12434;&#36861;&#21152;&#12377;&#12427;"><ellipse cx="640.4424" cy="325.0005" fill="#F1F1F1" rx="110.1024" ry="24.4205" style="stroke:#181818;stroke-width:0.5;"/><text fill="#000000" font-family="sans-serif" font-size="14" lengthAdjust="spacing" textLength="186.101" x="547.3919" y="327.8472">UC0107 &#12502;&#12525;&#12483;&#12463;&#12434;&#36861;&#21152;&#12377;&#12427;</text></g><g id="elem_UC0106 &#23398;&#32026;&#12434;&#30331;&#37682;&#12377;&#12427;"><ellipse cx="640.4355" cy="244.0011" fill="#F1F1F1" rx="97.3055" ry="21.8611" style="stroke:#181818;stroke-width:0.5;"/><text fill="#000000" font-family="sans-serif" font-size="14" lengthAdjust="spacing" textLength="158.1011" x="561.3849" y="246.8478">UC0106 &#23398;&#32026;&#12434;&#30331;&#37682;&#12377;&#12427;</text></g><!--entity ??--><g id="elem_&#25945;&#21209;"><ellipse cx="19.9999" cy="204.35" fill="#F1F1F1" rx="8" ry="8" style="stroke:#181818;stroke-width:0.5;"/><path d="M19.9999,212.35 L19.9999,239.35 M6.9999,220.35 L32.9999,220.35 M19.9999,239.35 L6.9999,254.35 M19.9999,239.35 L32.9999,254.35 " fill="#FFFFFF" fill-opacity="0.00000" style="stroke:#181818;stroke-width:0.5;"/><text fill="#000000" font-family="sans-serif" font-size="14" lengthAdjust="spacing" textLength="27.9999" x="6" y="268.8451">&#25945;&#21209;</text></g><!--link ?? to UC0101 ?????????--><g id="link_&#25945;&#21209;_UC0101 &#26332;&#26085;&#26178;&#38480;&#12434;&#35373;&#23450;&#12377;&#12427;"><path d="M34.39,212.48 C53.27,183.96 90.44,134.09 135,107 C153.84,95.55 170.1798,88.7795 191.4098,82.5895 " fill="#FFFFFF" fill-opacity="0.00000" id="&#25945;&#21209;-to-UC0101 &#26332;&#26085;&#26178;&#38480;&#12434;&#35373;&#23450;&#12377;&#12427;" style="stroke:#181818;stroke-width:1;"/><polygon fill="#181818" points="197.17,80.91,187.4101,79.5891,192.3699,82.3096,189.6494,87.2693,197.17,80.91" style="stroke:#181818;stroke-width:1;"/></g><!--link ?? to UC0102 ?????????--><g id="link_&#25945;&#21209;_UC0102 &#25945;&#21729;&#24773;&#22577;&#12434;&#30331;&#37682;&#12377;&#12427;"><path d="M34.42,224.55 C42.65,219.1 53.57,212.46 64,208 C107.28,189.47 152.0903,176.6876 193.5903,166.8976 " fill="#FFFFFF" fill-opacity="0.00000" id="&#25945;&#21209;-to-UC0102 &#25945;&#21729;&#24773;&#22577;&#12434;&#30331;&#37682;&#12377;&#12427;" style="stroke:#181818;stroke-width:1;"/><polygon fill="#181818" points="199.43,165.52,189.752,163.6933,194.5636,166.668,191.5888,171.4796,199.43,165.52" style="stroke:#181818;stroke-width:1;"/></g><!--link ?? to UC0103 ??????????--><g id="link_&#25945;&#21209;_UC0103 &#25945;&#21729;&#12398;&#21220;&#24608;&#12434;&#30331;&#37682;&#12377;&#12427;"><path d="M34.26,234 C58.8,234 107.53,234 159.23,234 " fill="#FFFFFF" fill-opacity="0.00000" id="&#25945;&#21209;-to-UC0103 &#25945;&#21729;&#12398;&#21220;&#24608;&#12434;&#30331;&#37682;&#12377;&#12427;" style="stroke:#181818;stroke-width:1;"/><polygon fill="#181818" points="165.23,234,156.23,230,160.23,234,156.23,238,165.23,234" style="stroke:#181818;stroke-width:1;"/></g><!--link ?? to UC0104 ???????--><g id="link_&#25945;&#21209;_UC0104 &#31185;&#30446;&#12434;&#30331;&#37682;&#12377;&#12427;"><path d="M34.2,239.44 C55.28,248.03 97.98,264.98 135,277 C161.27,285.53 184.7925,292.2443 210.2225,299.0243 " fill="#FFFFFF" fill-opacity="0.00000" id="&#25945;&#21209;-to-UC0104 &#31185;&#30446;&#12434;&#30331;&#37682;&#12377;&#12427;" style="stroke:#181818;stroke-width:1;"/><polygon fill="#181818" points="216.02,300.57,208.3542,294.3865,211.1888,299.2819,206.2933,302.1165,216.02,300.57" style="stroke:#181818;stroke-width:1;"/></g><!--link ?? to UC0105 ???????????--><g id="link_&#25945;&#21209;_UC0105 &#12459;&#12522;&#12461;&#12517;&#12521;&#12512;&#12434;&#30331;&#37682;&#12377;&#12427;"><path d="M34.44,253.91 C53.66,280.89 91.5,328.79 135,356 C152.67,367.05 167.541,373.714 187.581,380.194 " fill="#FFFFFF" fill-opacity="0.00000" id="&#25945;&#21209;-to-UC0105 &#12459;&#12522;&#12461;&#12517;&#12521;&#12512;&#12434;&#30331;&#37682;&#12377;&#12427;" style="stroke:#181818;stroke-width:1;"/><polygon fill="#181818" points="193.29,382.04,185.9572,375.465,188.5325,380.5017,183.4959,383.077,193.29,382.04" style="stroke:#181818;stroke-width:1;"/></g><!--link UC0105 ??????????? to UC0108 ???????--><g id="link_UC0105 &#12459;&#12522;&#12461;&#12517;&#12521;&#12512;&#12434;&#30331;&#37682;&#12377;&#12427;_UC0108 &#35611;&#24231;&#12434;&#36861;&#21152;&#12377;&#12427;"><path d="M405.28,402.71 C450.3,403.35 494.6306,403.9652 537.0606,404.5652 " fill="#FFFFFF" fill-opacity="0.00000" id="UC0105 &#12459;&#12522;&#12461;&#12517;&#12521;&#12512;&#12434;&#30331;&#37682;&#12377;&#12427;-to-UC0108 &#35611;&#24231;&#12434;&#36861;&#21152;&#12377;&#12427;" style="stroke:#181818;stroke-width:1;stroke-dasharray:7.0,7.0;"/><polygon fill="#181818" points="543.06,404.65,534.1175,400.5231,538.0605,404.5793,534.0043,408.5223,543.06,404.65" style="stroke:#181818;stroke-width:1;"/><text fill="#000000" font-family="sans-serif" font-size="13" lengthAdjust="spacing" textLength="63.0068" x="436.34" y="399.0669">&#171;include&#187;</text></g><!--link UC0105 ??????????? to UC0107 ?????????--><g id="link_UC0105 &#12459;&#12522;&#12461;&#12517;&#12521;&#12512;&#12434;&#30331;&#37682;&#12377;&#12427;_UC0107 &#12502;&#12525;&#12483;&#12463;&#12434;&#36861;&#21152;&#12377;&#12427;"><path d="M371.69,382.12 C429.4,369.81 498.1921,355.132 554.0121,343.222 " fill="#FFFFFF" fill-opacity="0.00000" id="UC0105 &#12459;&#12522;&#12461;&#12517;&#12521;&#12512;&#12434;&#30331;&#37682;&#12377;&#12427;-to-UC0107 &#12502;&#12525;&#12483;&#12463;&#12434;&#36861;&#21152;&#12377;&#12427;" style="stroke:#181818;stroke-width:1;stroke-dasharray:7.0,7.0;"/><polygon fill="#181818" points="559.88,341.97,550.2435,339.9361,554.9901,343.0133,551.9128,347.76,559.88,341.97" style="stroke:#181818;stroke-width:1;"/><text fill="#000000" font-family="sans-serif" font-size="13" lengthAdjust="spacing" textLength="63.0068" x="436.34" y="353.0669">&#171;include&#187;</text></g><!--link UC0105 ??????????? to UC0106 ???????--><g id="link_UC0105 &#12459;&#12522;&#12461;&#12517;&#12521;&#12512;&#12434;&#30331;&#37682;&#12377;&#12427;_UC0106 &#23398;&#32026;&#12434;&#30331;&#37682;&#12377;&#12427;"><path d="M354.99,378.92 C371.98,372.52 389.69,364.83 405.34,356 C420.21,347.61 421.01,341.29 435.34,332 C475.19,306.14 486.76,301.93 530.34,283 C547.49,275.55 560.9224,270.3578 578.2824,264.2278 " fill="#FFFFFF" fill-opacity="0.00000" id="UC0105 &#12459;&#12522;&#12461;&#12517;&#12521;&#12512;&#12434;&#30331;&#37682;&#12377;&#12427;-to-UC0106 &#23398;&#32026;&#12434;&#30331;&#37682;&#12377;&#12427;" style="stroke:#181818;stroke-width:1;stroke-dasharray:7.0,7.0;"/><polygon fill="#181818" points="583.94,262.23,574.1217,261.4549,579.2253,263.8948,576.7854,268.9984,583.94,262.23" style="stroke:#181818;stroke-width:1;"/><text fill="#000000" font-family="sans-serif" font-size="13" lengthAdjust="spacing" textLength="63.0068" x="436.34" y="293.0669">&#171;include&#187;</text></g><!--SRC=[oqbDAr4eoLSeoapFA558oInAJIx9pC_ZuafCBialKdWsTURJxfbSN0M9oTc9wQaAIg7E0GQ62aztRdavRVBZvlR7pNiUD-r_FdFtovvDIWhLN0f00D6Zgwjhfn7gR608LFvizfndqvS-czdqSkQ4nqsJNgnO-tJThCUDCnytTMjYrM845fcyy5bpwzC56u5Q83RWqs8CrVAuSTtJxYNF6XOGfSj4uVdoYSzdhoDAiQd2uwRLZvjNFMvQ-xXvwUFcbO-RCMq1woHUlOAUdXrKkON2YpMpd-vQ3WgX_NkVTYs0AR5IiB79p4lEAKr9jRCZttnpXSVDqnut0zKsFsvQJojRp1IUhbtsVCii32MevjS20000]--></g></svg>