<?xml version="1.0" encoding="us-ascii" standalone="no"?><svg xmlns="http://www.w3.org/2000/svg" xmlns:xlink="http://www.w3.org/1999/xlink" contentStyleType="text/css" height="460px" preserveAspectRatio="none" style="width:775px;height:460px;background:#FFFFFF;" version="1.1" viewBox="0 0 775 460" width="775px" zoomAndPan="magnify"><defs/><g><!--cluster [UCP01]???????--><g id="cluster_[UCP01]&#24180;&#38291;&#12487;&#12540;&#12479;&#30331;&#37682;"><path d="M145.5,6 L301.5,6 A3.75,3.75 0 0 1 304,8.5 L311,28.4883 L766.23,28.4883 A2.5,2.5 0 0 1 768.73,30.9883 L768.73,450.5 A2.5,2.5 0 0 1 766.23,453 L145.5,453 A2.5,2.5 0 0 1 143,450.5 L143,8.5 A2.5,2.5 0 0 1 145.5,6 " fill="none" style="stroke:#000000;stroke-width:1.5;"/><line style="stroke:#000000;stroke-width:1.5;" x1="143" x2="311" y1="28.4883" y2="28.4883"/><text fill="#000000" font-family="sans-serif" font-size="14" font-weight="bold" lengthAdjust="spacing" textLength="155" x="147" y="21.5352">[UCP01]&#24180;&#38291;&#12487;&#12540;&#12479;&#30331;&#37682;</text></g><g id="elem_[UC0101] &#26332;&#26085;&#26178;&#38480;&#12434;&#35373;&#23450;&#12377;&#12427;"><ellipse cx="286.9911" cy="66.0042" fill="#F1F1F1" rx="114.8711" ry="25.3742" style="stroke:#181818;stroke-width:0.5;"/><text fill="#000000" font-family="sans-serif" font-size="14" lengthAdjust="spacing" textLength="196" x="188.9911" y="69.2952">[UC0101] &#26332;&#26085;&#26178;&#38480;&#12434;&#35373;&#23450;&#12377;&#12427;</text></g><g id="elem_[UC0102] &#25945;&#21729;&#24773;&#22577;&#12434;&#30331;&#37682;&#12377;&#12427;"><ellipse cx="286.9911" cy="152.0042" fill="#F1F1F1" rx="114.8711" ry="25.3742" style="stroke:#181818;stroke-width:0.5;"/><text fill="#000000" font-family="sans-serif" font-size="14" lengthAdjust="spacing" textLength="196" x="188.9911" y="155.2952">[UC0102] &#25945;&#21729;&#24773;&#22577;&#12434;&#30331;&#37682;&#12377;&#12427;</text></g><g id="elem_[UC0103] &#25945;&#21729;&#12398;&#21220;&#24608;&#12434;&#30331;&#37682;&#12377;&#12427;"><ellipse cx="286.9867" cy="239.0013" fill="#F1F1F1" rx="121.4067" ry="26.6813" style="stroke:#181818;stroke-width:0.5;"/><text fill="#000000" font-family="sans-serif" font-size="14" lengthAdjust="spacing" textLength="210" x="181.9867" y="242.2924">[UC0103] &#25945;&#21729;&#12398;&#21220;&#24608;&#12434;&#30331;&#37682;&#12377;&#12427;</text></g><g id="elem_[UC0104] &#31185;&#30446;&#12434;&#30331;&#37682;&#12377;&#12427;"><ellipse cx="286.9906" cy="322.9981" fill="#F1F1F1" rx="101.9906" ry="22.7981" style="stroke:#181818;stroke-width:0.5;"/><text fill="#000000" font-family="sans-serif" font-size="14" lengthAdjust="spacing" textLength="168" x="202.9906" y="326.2891">[UC0104] &#31185;&#30446;&#12434;&#30331;&#37682;&#12377;&#12427;</text></g><g id="elem_[UC0105] &#12459;&#12522;&#12461;&#12517;&#12521;&#12512;&#12434;&#30331;&#37682;&#12377;&#12427;"><ellipse cx="286.9926" cy="408.9985" fill="#F1F1F1" rx="127.9926" ry="27.9985" style="stroke:#181818;stroke-width:0.5;"/><text fill="#000000" font-family="sans-serif" font-size="14" lengthAdjust="spacing" textLength="224" x="174.9926" y="412.2895">[UC0105] &#12459;&#12522;&#12461;&#12517;&#12521;&#12512;&#12434;&#30331;&#37682;&#12377;&#12427;</text></g><g id="elem_[UC0108] &#35611;&#24231;&#12434;&#36861;&#21152;&#12377;&#12427;"><ellipse cx="637.8606" cy="413.9981" fill="#F1F1F1" rx="101.9906" ry="22.7981" style="stroke:#181818;stroke-width:0.5;"/><text fill="#000000" font-family="sans-serif" font-size="14" lengthAdjust="spacing" textLength="168" x="553.8606" y="417.2891">[UC0108] &#35611;&#24231;&#12434;&#36861;&#21152;&#12377;&#12427;</text></g><g id="elem_[UC0107] &#12502;&#12525;&#12483;&#12463;&#12434;&#36861;&#21152;&#12377;&#12427;"><ellipse cx="637.8611" cy="331.0042" fill="#F1F1F1" rx="114.8711" ry="25.3742" style="stroke:#181818;stroke-width:0.5;"/><text fill="#000000" font-family="sans-serif" font-size="14" lengthAdjust="spacing" textLength="196" x="539.8611" y="334.2952">[UC0107] &#12502;&#12525;&#12483;&#12463;&#12434;&#36861;&#21152;&#12377;&#12427;</text></g><g id="elem_[UC0106] &#23398;&#32026;&#12434;&#30331;&#37682;&#12377;&#12427;"><ellipse cx="637.8606" cy="247.9981" fill="#F1F1F1" rx="101.9906" ry="22.7981" style="stroke:#181818;stroke-width:0.5;"/><text fill="#000000" font-family="sans-serif" font-size="14" lengthAdjust="spacing" textLength="168" x="553.8606" y="251.2891">[UC0106] &#23398;&#32026;&#12434;&#30331;&#37682;&#12377;&#12427;</text></g><!--entity ??--><g id="elem_&#25945;&#21209;"><ellipse cx="20" cy="209.26" fill="#F1F1F1" rx="8" ry="8" style="stroke:#181818;stroke-width:0.5;"/><path d="M20,217.26 L20,244.26 M7,225.26 L33,225.26 M20,244.26 L7,259.26 M20,244.26 L33,259.26 " fill="none" style="stroke:#181818;stroke-width:0.5;"/><text fill="#000000" font-family="sans-serif" font-size="14" lengthAdjust="spacing" textLength="28" x="6" y="274.2952">&#25945;&#21209;</text></g><!--link ?? to [UC0101] ?????????--><g id="link_&#25945;&#21209;_[UC0101] &#26332;&#26085;&#26178;&#38480;&#12434;&#35373;&#23450;&#12377;&#12427;"><path d="M34.45,216.75 C53.26,187.55 90.22,136.76 135,109 C154,97.22 170.5616,90.2653 192.1216,83.9553 " fill="none" id="&#25945;&#21209;-to-[UC0101] &#26332;&#26085;&#26178;&#38480;&#12434;&#35373;&#23450;&#12377;&#12427;" style="stroke:#181818;stroke-width:1.0;"/><polygon fill="#181818" points="197.88,82.27,188.1188,80.959,193.0813,83.6744,190.3659,88.637,197.88,82.27" style="stroke:#181818;stroke-width:1.0;"/></g><!--link ?? to [UC0102] ?????????--><g id="link_&#25945;&#21209;_[UC0102] &#25945;&#21729;&#24773;&#22577;&#12434;&#30331;&#37682;&#12377;&#12427;"><path d="M34.42,229.56 C42.66,224.11 53.58,217.48 64,213 C107.97,194.1 153.5458,180.9309 195.8158,170.7809 " fill="none" id="&#25945;&#21209;-to-[UC0102] &#25945;&#21729;&#24773;&#22577;&#12434;&#30331;&#37682;&#12377;&#12427;" style="stroke:#181818;stroke-width:1.0;"/><polygon fill="#181818" points="201.65,169.38,191.9648,167.5919,196.7882,170.5474,193.8327,175.3708,201.65,169.38" style="stroke:#181818;stroke-width:1.0;"/></g><!--link ?? to [UC0103] ??????????--><g id="link_&#25945;&#21209;_[UC0103] &#25945;&#21729;&#12398;&#21220;&#24608;&#12434;&#30331;&#37682;&#12377;&#12427;"><path d="M34.14,239 C58.53,239 107.05,239 159.15,239 " fill="none" id="&#25945;&#21209;-to-[UC0103] &#25945;&#21729;&#12398;&#21220;&#24608;&#12434;&#30331;&#37682;&#12377;&#12427;" style="stroke:#181818;stroke-width:1.0;"/><polygon fill="#181818" points="165.15,239,156.15,235,160.15,239,156.15,243,165.15,239" style="stroke:#181818;stroke-width:1.0;"/></g><!--link ?? to [UC0104] ???????--><g id="link_&#25945;&#21209;_[UC0104] &#31185;&#30446;&#12434;&#30331;&#37682;&#12377;&#12427;"><path d="M34.17,244.63 C55.22,253.49 97.87,270.96 135,283 C161.31,291.53 184.8202,298.1213 210.5602,304.7613 " fill="none" id="&#25945;&#21209;-to-[UC0104] &#31185;&#30446;&#12434;&#30331;&#37682;&#12377;&#12427;" style="stroke:#181818;stroke-width:1.0;"/><polygon fill="#181818" points="216.37,306.26,208.6544,300.1387,211.5285,305.0111,206.6561,307.8851,216.37,306.26" style="stroke:#181818;stroke-width:1.0;"/></g><!--link ?? to [UC0105] ???????????--><g id="link_&#25945;&#21209;_[UC0105] &#12459;&#12522;&#12461;&#12517;&#12521;&#12512;&#12434;&#30331;&#37682;&#12377;&#12427;"><path d="M34.35,259.26 C53.46,286.71 91.19,335.44 135,363 C152.86,374.24 167.9326,381.019 188.2526,387.609 " fill="none" id="&#25945;&#21209;-to-[UC0105] &#12459;&#12522;&#12461;&#12517;&#12521;&#12512;&#12434;&#30331;&#37682;&#12377;&#12427;" style="stroke:#181818;stroke-width:1.0;"/><polygon fill="#181818" points="193.96,389.46,186.6329,382.8787,189.2039,387.9175,184.165,390.4885,193.96,389.46" style="stroke:#181818;stroke-width:1.0;"/></g><!--link [UC0105] ??????????? to [UC0108] ???????--><g id="link_[UC0105] &#12459;&#12522;&#12461;&#12517;&#12521;&#12512;&#12434;&#30331;&#37682;&#12377;&#12427;_[UC0108] &#35611;&#24231;&#12434;&#36861;&#21152;&#12377;&#12427;"><path d="M414.93,410.82 C454.67,411.39 491.9806,411.9241 529.6906,412.4641 " fill="none" id="[UC0105] &#12459;&#12522;&#12461;&#12517;&#12521;&#12512;&#12434;&#30331;&#37682;&#12377;&#12427;-to-[UC0108] &#35611;&#24231;&#12434;&#36861;&#21152;&#12377;&#12427;" style="stroke:#181818;stroke-width:1.0;stroke-dasharray:7.0,7.0;"/><polygon fill="#181818" points="535.69,412.55,526.7482,408.4215,530.6905,412.4784,526.6336,416.4207,535.69,412.55" style="stroke:#181818;stroke-width:1.0;"/><text fill="#000000" font-family="sans-serif" font-size="13" lengthAdjust="spacing" textLength="46" x="445.99" y="407.9184">include</text></g><!--link [UC0105] ??????????? to [UC0107] ?????????--><g id="link_[UC0105] &#12459;&#12522;&#12461;&#12517;&#12521;&#12512;&#12434;&#30331;&#37682;&#12377;&#12427;_[UC0107] &#12502;&#12525;&#12483;&#12463;&#12434;&#36861;&#21152;&#12377;&#12427;"><path d="M377.83,388.91 C432.75,376.64 496.5647,362.3696 549.8147,350.4596 " fill="none" id="[UC0105] &#12459;&#12522;&#12461;&#12517;&#12521;&#12512;&#12434;&#30331;&#37682;&#12377;&#12427;-to-[UC0107] &#12502;&#12525;&#12483;&#12463;&#12434;&#36861;&#21152;&#12377;&#12427;" style="stroke:#181818;stroke-width:1.0;stroke-dasharray:7.0,7.0;"/><polygon fill="#181818" points="555.67,349.15,546.0139,347.2109,550.7906,350.2413,547.7601,355.018,555.67,349.15" style="stroke:#181818;stroke-width:1.0;"/><text fill="#000000" font-family="sans-serif" font-size="13" lengthAdjust="spacing" textLength="46" x="445.99" y="361.8984">include</text></g><!--link [UC0105] ??????????? to [UC0106] ???????--><g id="link_[UC0105] &#12459;&#12522;&#12461;&#12517;&#12521;&#12512;&#12434;&#30331;&#37682;&#12377;&#12427;_[UC0106] &#23398;&#32026;&#12434;&#30331;&#37682;&#12377;&#12427;"><path d="M363.2,386.07 C380.65,379.58 398.84,371.84 414.99,363 C429.72,354.93 431.32,349.78 444.99,340 C478.87,315.76 485.71,306.61 522.99,288 C539.48,279.77 552.4346,274.4457 569.7546,268.4057 " fill="none" id="[UC0105] &#12459;&#12522;&#12461;&#12517;&#12521;&#12512;&#12434;&#30331;&#37682;&#12377;&#12427;-to-[UC0106] &#23398;&#32026;&#12434;&#30331;&#37682;&#12377;&#12427;" style="stroke:#181818;stroke-width:1.0;stroke-dasharray:7.0,7.0;"/><polygon fill="#181818" points="575.42,266.43,565.6048,265.6166,570.6988,268.0764,568.239,273.1705,575.42,266.43" style="stroke:#181818;stroke-width:1.0;"/><text fill="#000000" font-family="sans-serif" font-size="13" lengthAdjust="spacing" textLength="46" x="445.99" y="302.1284">include</text></g><!--SRC=[oqbDAr4eoLSeoapFA558oInAJIx9pC_Zuh9wDdNcq-wPLbnS2a1Ga9YSdPYUgX0TwXnWO1ZxTEUMbzCcFsvkVzoyvt7J_kSpTx_isQHG3LOA0X2zkhgwTXf07GQ6G2qApsRFUJPzwREPJIzdJdZSDEd5YhLFryrwt3ZpSLEt9cwDHh5WiSaBdpMtFbsm4QWHOXb1ZSOmZOyRrptjNlAiOG7nUarY5Puld_XyzZhYjPZ6AZnkMlsuUTNZfhMFcvS-Rbxvk1dJHhX-KdGfwEdPmJHOn2gyM3FxwQxbe13Sl_TfrmAO8Yk5pBpadDAKL8hjC0TgQ9xsk1ceklbnqteQscGMg_1qxRBdMsPXAB9IGB6abWi0]--></g></svg>