<svg xmlns="http://www.w3.org/2000/svg" xmlns:xlink="http://www.w3.org/1999/xlink" contentStyleType="text/css" data-diagram-type="DESCRIPTION" height="461px" preserveAspectRatio="none" style="width:777px;height:461px;background:#FFFFFF;" version="1.1" viewBox="0 0 777 461" width="777px" zoomAndPan="magnify"><defs/><g><!--cluster [UCP01]????????--><g id="cluster_[UCP01]&#24180;&#38291;&#12487;&#12540;&#12479;&#12398;&#30331;&#37682;"><path d="M145.5,6 L322.6821,6 A3.75,3.75 0 0 1 325.1821,8.5 L332.1821,28.2969 L768.49,28.2969 A2.5,2.5 0 0 1 770.99,30.7969 L770.99,451.5 A2.5,2.5 0 0 1 768.49,454 L145.5,454 A2.5,2.5 0 0 1 143,451.5 L143,8.5 A2.5,2.5 0 0 1 145.5,6 " fill="#FFFFFF" fill-opacity="0.00000" style="stroke:#000000;stroke-width:1.5;"/><line style="stroke:#000000;stroke-width:1.5;" x1="143" x2="332.1821" y1="28.2969" y2="28.2969"/><text fill="#000000" font-family="sans-serif" font-size="14" font-weight="bold" lengthAdjust="spacing" textLength="176.1821" x="147" y="20.9951">[UCP01]&#24180;&#38291;&#12487;&#12540;&#12479;&#12398;&#30331;&#37682;</text></g><g id="elem_[UC0101] &#26332;&#26085;&#26178;&#38480;&#12434;&#35373;&#23450;&#12377;&#12427;"><ellipse cx="287.323" cy="66.0046" fill="#F1F1F1" rx="115.173" ry="25.4346" style="stroke:#181818;stroke-width:0.5;"/><text fill="#000000" font-family="sans-serif" font-size="14" lengthAdjust="spacing" textLength="197.0248" x="188.8105" y="68.8513">[UC0101] &#26332;&#26085;&#26178;&#38480;&#12434;&#35373;&#23450;&#12377;&#12427;</text></g><g id="elem_[UC0102] &#25945;&#21729;&#24773;&#22577;&#12434;&#30331;&#37682;&#12377;&#12427;"><ellipse cx="287.323" cy="152.0046" fill="#F1F1F1" rx="115.173" ry="25.4346" style="stroke:#181818;stroke-width:0.5;"/><text fill="#000000" font-family="sans-serif" font-size="14" lengthAdjust="spacing" textLength="197.0248" x="188.8105" y="154.8513">[UC0102] &#25945;&#21729;&#24773;&#22577;&#12434;&#30331;&#37682;&#12377;&#12427;</text></g><g id="elem_[UC0103] &#25945;&#21729;&#12398;&#21220;&#24608;&#12434;&#30331;&#37682;&#12377;&#12427;"><ellipse cx="287.3221" cy="239.0044" fill="#F1F1F1" rx="121.7221" ry="26.7444" style="stroke:#181818;stroke-width:0.5;"/><text fill="#000000" font-family="sans-serif" font-size="14" lengthAdjust="spacing" textLength="211.0248" x="181.8097" y="241.8511">[UC0103] &#25945;&#21729;&#12398;&#21220;&#24608;&#12434;&#30331;&#37682;&#12377;&#12427;</text></g><g id="elem_[UC0104] &#31185;&#30446;&#12434;&#30331;&#37682;&#12377;&#12427;"><ellipse cx="287.3194" cy="324.0019" fill="#F1F1F1" rx="102.2594" ry="22.8519" style="stroke:#181818;stroke-width:0.5;"/><text fill="#000000" font-family="sans-serif" font-size="14" lengthAdjust="spacing" textLength="169.025" x="202.807" y="326.8486">[UC0104] &#31185;&#30446;&#12434;&#30331;&#37682;&#12377;&#12427;</text></g><g id="elem_[UC0105] &#12459;&#12522;&#12461;&#12517;&#12521;&#12512;&#12434;&#30331;&#37682;&#12377;&#12427;"><ellipse cx="287.32" cy="410.004" fill="#F1F1F1" rx="128.32" ry="28.064" style="stroke:#181818;stroke-width:0.5;"/><text fill="#000000" font-family="sans-serif" font-size="14" lengthAdjust="spacing" textLength="225.0247" x="174.8077" y="412.8507">[UC0105] &#12459;&#12522;&#12461;&#12517;&#12521;&#12512;&#12434;&#30331;&#37682;&#12377;&#12427;</text></g><g id="elem_[UC0108] &#35611;&#24231;&#12434;&#36861;&#21152;&#12377;&#12427;"><ellipse cx="639.8094" cy="415.0019" fill="#F1F1F1" rx="102.2594" ry="22.8519" style="stroke:#181818;stroke-width:0.5;"/><text fill="#000000" font-family="sans-serif" font-size="14" lengthAdjust="spacing" textLength="169.025" x="555.297" y="417.8486">[UC0108] &#35611;&#24231;&#12434;&#36861;&#21152;&#12377;&#12427;</text></g><g id="elem_[UC0107] &#12502;&#12525;&#12483;&#12463;&#12434;&#36861;&#21152;&#12377;&#12427;"><ellipse cx="639.813" cy="332.0046" fill="#F1F1F1" rx="115.173" ry="25.4346" style="stroke:#181818;stroke-width:0.5;"/><text fill="#000000" font-family="sans-serif" font-size="14" lengthAdjust="spacing" textLength="197.0248" x="541.3005" y="334.8513">[UC0107] &#12502;&#12525;&#12483;&#12463;&#12434;&#36861;&#21152;&#12377;&#12427;</text></g><g id="elem_[UC0106] &#23398;&#32026;&#12434;&#30331;&#37682;&#12377;&#12427;"><ellipse cx="639.8094" cy="249.0019" fill="#F1F1F1" rx="102.2594" ry="22.8519" style="stroke:#181818;stroke-width:0.5;"/><text fill="#000000" font-family="sans-serif" font-size="14" lengthAdjust="spacing" textLength="169.025" x="555.297" y="251.8486">[UC0106] &#23398;&#32026;&#12434;&#30331;&#37682;&#12377;&#12427;</text></g><!--entity ??--><g id="elem_&#25945;&#21209;"><ellipse cx="19.9999" cy="209.35" fill="#F1F1F1" rx="8" ry="8" style="stroke:#181818;stroke-width:0.5;"/><path d="M19.9999,217.35 L19.9999,244.35 M6.9999,225.35 L32.9999,225.35 M19.9999,244.35 L6.9999,259.35 M19.9999,244.35 L32.9999,259.35 " fill="#FFFFFF" fill-opacity="0.00000" style="stroke:#181818;stroke-width:0.5;"/><text fill="#000000" font-family="sans-serif" font-size="14" lengthAdjust="spacing" textLength="27.9999" x="6" y="273.8451">&#25945;&#21209;</text></g><!--link ?? to [UC0101] ?????????--><g id="link_&#25945;&#21209;_[UC0101] &#26332;&#26085;&#26178;&#38480;&#12434;&#35373;&#23450;&#12377;&#12427;"><path d="M34.44,216.75 C53.26,187.54 90.21,136.74 135,109 C153.92,97.28 170.3723,90.3479 191.8623,84.0479 " fill="#FFFFFF" fill-opacity="0.00000" id="&#25945;&#21209;-to-[UC0101] &#26332;&#26085;&#26178;&#38480;&#12434;&#35373;&#23450;&#12377;&#12427;" style="stroke:#181818;stroke-width:1;"/><polygon fill="#181818" points="197.62,82.36,187.8582,81.0534,192.8219,83.7666,190.1088,88.7303,197.62,82.36" style="stroke:#181818;stroke-width:1;"/></g><!--link ?? to [UC0102] ?????????--><g id="link_&#25945;&#21209;_[UC0102] &#25945;&#21729;&#24773;&#22577;&#12434;&#30331;&#37682;&#12377;&#12427;"><path d="M34.42,229.56 C42.65,224.11 53.58,217.48 64,213 C108.04,194.08 153.6851,180.9077 196.0151,170.7677 " fill="#FFFFFF" fill-opacity="0.00000" id="&#25945;&#21209;-to-[UC0102] &#25945;&#21729;&#24773;&#22577;&#12434;&#30331;&#37682;&#12377;&#12427;" style="stroke:#181818;stroke-width:1;"/><polygon fill="#181818" points="201.85,169.37,192.1658,167.5767,196.9876,170.5348,194.0294,175.3566,201.85,169.37" style="stroke:#181818;stroke-width:1;"/></g><!--link ?? to [UC0103] ??????????--><g id="link_&#25945;&#21209;_[UC0103] &#25945;&#21729;&#12398;&#21220;&#24608;&#12434;&#30331;&#37682;&#12377;&#12427;"><path d="M34.16,239 C58.57,239 107.16,239 159.33,239 " fill="#FFFFFF" fill-opacity="0.00000" id="&#25945;&#21209;-to-[UC0103] &#25945;&#21729;&#12398;&#21220;&#24608;&#12434;&#30331;&#37682;&#12377;&#12427;" style="stroke:#181818;stroke-width:1;"/><polygon fill="#181818" points="165.33,239,156.33,235,160.33,239,156.33,243,165.33,239" style="stroke:#181818;stroke-width:1;"/></g><!--link ?? to [UC0104] ???????--><g id="link_&#25945;&#21209;_[UC0104] &#31185;&#30446;&#12434;&#30331;&#37682;&#12377;&#12427;"><path d="M34.18,244.6 C55.24,253.44 97.9,270.85 135,283 C161.64,291.72 185.5381,298.5408 211.5281,305.3908 " fill="#FFFFFF" fill-opacity="0.00000" id="&#25945;&#21209;-to-[UC0104] &#31185;&#30446;&#12434;&#30331;&#37682;&#12377;&#12427;" style="stroke:#181818;stroke-width:1;"/><polygon fill="#181818" points="217.33,306.92,209.6466,300.7584,212.4951,305.6457,207.6078,308.4942,217.33,306.92" style="stroke:#181818;stroke-width:1;"/></g><!--link ?? to [UC0105] ???????????--><g id="link_&#25945;&#21209;_[UC0105] &#12459;&#12522;&#12461;&#12517;&#12521;&#12512;&#12434;&#30331;&#37682;&#12377;&#12427;"><path d="M34.31,259.43 C53.37,287.11 91.04,336.24 135,364 C152.76,375.22 167.7131,381.9875 187.9531,388.5575 " fill="#FFFFFF" fill-opacity="0.00000" id="&#25945;&#21209;-to-[UC0105] &#12459;&#12522;&#12461;&#12517;&#12521;&#12512;&#12434;&#30331;&#37682;&#12377;&#12427;" style="stroke:#181818;stroke-width:1;"/><polygon fill="#181818" points="193.66,390.41,186.3347,383.8267,188.9043,388.8663,183.8647,391.4359,193.66,390.41" style="stroke:#181818;stroke-width:1;"/></g><!--link [UC0105] ??????????? to [UC0108] ???????--><g id="link_[UC0105] &#12459;&#12522;&#12461;&#12517;&#12521;&#12512;&#12434;&#30331;&#37682;&#12377;&#12427;_[UC0108] &#35611;&#24231;&#12434;&#36861;&#21152;&#12377;&#12427;"><path d="M415.85,411.82 C455.87,412.39 493.5006,412.9247 531.4606,413.4647 " fill="#FFFFFF" fill-opacity="0.00000" id="[UC0105] &#12459;&#12522;&#12461;&#12517;&#12521;&#12512;&#12434;&#30331;&#37682;&#12377;&#12427;-to-[UC0108] &#35611;&#24231;&#12434;&#36861;&#21152;&#12377;&#12427;" style="stroke:#181818;stroke-width:1;stroke-dasharray:7.0,7.0;"/><polygon fill="#181818" points="537.46,413.55,528.5178,409.4224,532.4605,413.4789,528.404,417.4216,537.46,413.55" style="stroke:#181818;stroke-width:1;"/><text fill="#000000" font-family="sans-serif" font-size="13" lengthAdjust="spacing" textLength="47.0996" x="446.64" y="408.0669">include</text></g><!--link [UC0105] ??????????? to [UC0107] ?????????--><g id="link_[UC0105] &#12459;&#12522;&#12461;&#12517;&#12521;&#12512;&#12434;&#30331;&#37682;&#12377;&#12427;_[UC0107] &#12502;&#12525;&#12483;&#12463;&#12434;&#36861;&#21152;&#12377;&#12427;"><path d="M378.58,389.91 C433.75,377.64 497.8934,363.3638 551.3934,351.4538 " fill="#FFFFFF" fill-opacity="0.00000" id="[UC0105] &#12459;&#12522;&#12461;&#12517;&#12521;&#12512;&#12434;&#30331;&#37682;&#12377;&#12427;-to-[UC0107] &#12502;&#12525;&#12483;&#12463;&#12434;&#36861;&#21152;&#12377;&#12427;" style="stroke:#181818;stroke-width:1;stroke-dasharray:7.0,7.0;"/><polygon fill="#181818" points="557.25,350.15,547.5959,348.2013,552.3695,351.2365,549.3342,356.0101,557.25,350.15" style="stroke:#181818;stroke-width:1;"/><text fill="#000000" font-family="sans-serif" font-size="13" lengthAdjust="spacing" textLength="47.0996" x="446.64" y="363.0669">include</text></g><!--link [UC0105] ??????????? to [UC0106] ???????--><g id="link_[UC0105] &#12459;&#12522;&#12461;&#12517;&#12521;&#12512;&#12434;&#30331;&#37682;&#12377;&#12427;_[UC0106] &#23398;&#32026;&#12434;&#30331;&#37682;&#12377;&#12427;"><path d="M363.25,386.96 C380.86,380.46 399.26,372.73 415.64,364 C430.23,356.22 432.1,351.5 445.64,342 C480.25,317.72 486.83,307.92 524.64,289 C541.17,280.73 554.1632,275.3916 571.5232,269.3516 " fill="#FFFFFF" fill-opacity="0.00000" id="[UC0105] &#12459;&#12522;&#12461;&#12517;&#12521;&#12512;&#12434;&#30331;&#37682;&#12377;&#12427;-to-[UC0106] &#23398;&#32026;&#12434;&#30331;&#37682;&#12377;&#12427;" style="stroke:#181818;stroke-width:1;stroke-dasharray:7.0,7.0;"/><polygon fill="#181818" points="577.19,267.38,567.3754,266.5596,572.4677,269.023,570.0042,274.1153,577.19,267.38" style="stroke:#181818;stroke-width:1;"/><text fill="#000000" font-family="sans-serif" font-size="13" lengthAdjust="spacing" textLength="47.0996" x="446.64" y="303.0669">include</text></g><!--SRC=[oqbDAr4eoLSeoapFA558oInAJIx9pC_Zuh9wDdNcq-wPLbmAG52Gc9oTc9wg41tg761W6FjqvvQNqoO_Rcv_tBpdSTF-nuthdi_S_R9daq8rM3K8G7JhwkhQQG0r6HW2TIaycptdsVIbpsOslPmvuN7Jf1ShrZvTD-jnuyp7JTsQk3KQnOB59YzyrjpwTC56e4Q8PGGr6iCq0jttj7l9iuO5nEirYLLuldpYyzdhYDTY6glmk6dru-PLZvlMFcvU-hXvvUDcJ1lX-adHfQ2dPmVJO16hy6BDxAUxbeD2SF_UfrqBO8gi53BpadDAKr8fjiCSgA5vskDceEhcnqthQMYJMQp2qxNBdc-PXQ78IW75abe0]--></g></svg>