<svg xmlns="http://www.w3.org/2000/svg" xmlns:xlink="http://www.w3.org/1999/xlink" contentStyleType="text/css" data-diagram-type="DESCRIPTION" height="461px" preserveAspectRatio="none" style="width:793px;height:461px;background:#FFFFFF;" version="1.1" viewBox="0 0 793 461" width="793px" zoomAndPan="magnify"><defs/><g><!--cluster UCP01 ???????--><g id="cluster_UCP01 &#24180;&#38291;&#12487;&#12540;&#12479;&#30331;&#37682;"><path d="M145.5,6 L300.7593,6 A3.75,3.75 0 0 1 303.2593,8.5 L310.2593,28.2969 L784.49,28.2969 A2.5,2.5 0 0 1 786.99,30.7969 L786.99,451.5 A2.5,2.5 0 0 1 784.49,454 L145.5,454 A2.5,2.5 0 0 1 143,451.5 L143,8.5 A2.5,2.5 0 0 1 145.5,6 " fill="#FFFFFF" fill-opacity="0.00000" style="stroke:#000000;stroke-width:1.5;"/><line style="stroke:#000000;stroke-width:1.5;" x1="143" x2="310.2593" y1="28.2969" y2="28.2969"/><text fill="#000000" font-family="sans-serif" font-size="14" font-weight="bold" lengthAdjust="spacing" textLength="154.2593" x="147" y="20.9951">UCP01 &#24180;&#38291;&#12487;&#12540;&#12479;&#30331;&#37682;</text></g><g id="elem_[UC0101] &#26332;&#26085;&#26178;&#38480;&#12434;&#35373;&#23450;&#12377;&#12427;"><ellipse cx="287.323" cy="66.0046" fill="#F1F1F1" rx="115.173" ry="25.4346" style="stroke:#181818;stroke-width:0.5;"/><text fill="#000000" font-family="sans-serif" font-size="14" lengthAdjust="spacing" textLength="197.0248" x="188.8105" y="68.8513">[UC0101] &#26332;&#26085;&#26178;&#38480;&#12434;&#35373;&#23450;&#12377;&#12427;</text></g><g id="elem_[UC0102] &#25945;&#21729;&#24773;&#22577;&#12434;&#30331;&#37682;&#12377;&#12427;"><ellipse cx="287.323" cy="152.0046" fill="#F1F1F1" rx="115.173" ry="25.4346" style="stroke:#181818;stroke-width:0.5;"/><text fill="#000000" font-family="sans-serif" font-size="14" lengthAdjust="spacing" textLength="197.0248" x="188.8105" y="154.8513">[UC0102] &#25945;&#21729;&#24773;&#22577;&#12434;&#30331;&#37682;&#12377;&#12427;</text></g><g id="elem_[UC0103] &#25945;&#21729;&#12398;&#21220;&#24608;&#12434;&#30331;&#37682;&#12377;&#12427;"><ellipse cx="287.3221" cy="239.0044" fill="#F1F1F1" rx="121.7221" ry="26.7444" style="stroke:#181818;stroke-width:0.5;"/><text fill="#000000" font-family="sans-serif" font-size="14" lengthAdjust="spacing" textLength="211.0248" x="181.8097" y="241.8511">[UC0103] &#25945;&#21729;&#12398;&#21220;&#24608;&#12434;&#30331;&#37682;&#12377;&#12427;</text></g><g id="elem_[UC0104] &#31185;&#30446;&#12434;&#30331;&#37682;&#12377;&#12427;"><ellipse cx="287.3194" cy="324.0019" fill="#F1F1F1" rx="102.2594" ry="22.8519" style="stroke:#181818;stroke-width:0.5;"/><text fill="#000000" font-family="sans-serif" font-size="14" lengthAdjust="spacing" textLength="169.025" x="202.807" y="326.8486">[UC0104] &#31185;&#30446;&#12434;&#30331;&#37682;&#12377;&#12427;</text></g><g id="elem_[UC0105] &#12459;&#12522;&#12461;&#12517;&#12521;&#12512;&#12434;&#30331;&#37682;&#12377;&#12427;"><ellipse cx="287.32" cy="410.004" fill="#F1F1F1" rx="128.32" ry="28.064" style="stroke:#181818;stroke-width:0.5;"/><text fill="#000000" font-family="sans-serif" font-size="14" lengthAdjust="spacing" textLength="225.0247" x="174.8077" y="412.8507">[UC0105] &#12459;&#12522;&#12461;&#12517;&#12521;&#12512;&#12434;&#30331;&#37682;&#12377;&#12427;</text></g><g id="elem_[UC0108] &#35611;&#24231;&#12434;&#36861;&#21152;&#12377;&#12427;"><ellipse cx="655.8094" cy="415.0019" fill="#F1F1F1" rx="102.2594" ry="22.8519" style="stroke:#181818;stroke-width:0.5;"/><text fill="#000000" font-family="sans-serif" font-size="14" lengthAdjust="spacing" textLength="169.025" x="571.297" y="417.8486">[UC0108] &#35611;&#24231;&#12434;&#36861;&#21152;&#12377;&#12427;</text></g><g id="elem_[UC0107] &#12502;&#12525;&#12483;&#12463;&#12434;&#36861;&#21152;&#12377;&#12427;"><ellipse cx="655.813" cy="332.0046" fill="#F1F1F1" rx="115.173" ry="25.4346" style="stroke:#181818;stroke-width:0.5;"/><text fill="#000000" font-family="sans-serif" font-size="14" lengthAdjust="spacing" textLength="197.0248" x="557.3005" y="334.8513">[UC0107] &#12502;&#12525;&#12483;&#12463;&#12434;&#36861;&#21152;&#12377;&#12427;</text></g><g id="elem_[UC0106] &#23398;&#32026;&#12434;&#30331;&#37682;&#12377;&#12427;"><ellipse cx="655.8094" cy="249.0019" fill="#F1F1F1" rx="102.2594" ry="22.8519" style="stroke:#181818;stroke-width:0.5;"/><text fill="#000000" font-family="sans-serif" font-size="14" lengthAdjust="spacing" textLength="169.025" x="571.297" y="251.8486">[UC0106] &#23398;&#32026;&#12434;&#30331;&#37682;&#12377;&#12427;</text></g><!--entity ??--><g id="elem_&#25945;&#21209;"><ellipse cx="19.9999" cy="209.35" fill="#F1F1F1" rx="8" ry="8" style="stroke:#181818;stroke-width:0.5;"/><path d="M19.9999,217.35 L19.9999,244.35 M6.9999,225.35 L32.9999,225.35 M19.9999,244.35 L6.9999,259.35 M19.9999,244.35 L32.9999,259.35 " fill="#FFFFFF" fill-opacity="0.00000" style="stroke:#181818;stroke-width:0.5;"/><text fill="#000000" font-family="sans-serif" font-size="14" lengthAdjust="spacing" textLength="27.9999" x="6" y="273.8451">&#25945;&#21209;</text></g><!--link ?? to [UC0101] ?????????--><g id="link_&#25945;&#21209;_[UC0101] &#26332;&#26085;&#26178;&#38480;&#12434;&#35373;&#23450;&#12377;&#12427;"><path d="M34.44,216.75 C53.26,187.54 90.21,136.74 135,109 C153.92,97.28 170.3723,90.3479 191.8623,84.0479 " fill="#FFFFFF" fill-opacity="0.00000" id="&#25945;&#21209;-to-[UC0101] &#26332;&#26085;&#26178;&#38480;&#12434;&#35373;&#23450;&#12377;&#12427;" style="stroke:#181818;stroke-width:1;"/><polygon fill="#181818" points="197.62,82.36,187.8582,81.0534,192.8219,83.7666,190.1088,88.7303,197.62,82.36" style="stroke:#181818;stroke-width:1;"/></g><!--link ?? to [UC0102] ?????????--><g id="link_&#25945;&#21209;_[UC0102] &#25945;&#21729;&#24773;&#22577;&#12434;&#30331;&#37682;&#12377;&#12427;"><path d="M34.42,229.56 C42.65,224.11 53.58,217.48 64,213 C108.04,194.08 153.6851,180.9077 196.0151,170.7677 " fill="#FFFFFF" fill-opacity="0.00000" id="&#25945;&#21209;-to-[UC0102] &#25945;&#21729;&#24773;&#22577;&#12434;&#30331;&#37682;&#12377;&#12427;" style="stroke:#181818;stroke-width:1;"/><polygon fill="#181818" points="201.85,169.37,192.1658,167.5767,196.9876,170.5348,194.0294,175.3566,201.85,169.37" style="stroke:#181818;stroke-width:1;"/></g><!--link ?? to [UC0103] ??????????--><g id="link_&#25945;&#21209;_[UC0103] &#25945;&#21729;&#12398;&#21220;&#24608;&#12434;&#30331;&#37682;&#12377;&#12427;"><path d="M34.16,239 C58.57,239 107.16,239 159.33,239 " fill="#FFFFFF" fill-opacity="0.00000" id="&#25945;&#21209;-to-[UC0103] &#25945;&#21729;&#12398;&#21220;&#24608;&#12434;&#30331;&#37682;&#12377;&#12427;" style="stroke:#181818;stroke-width:1;"/><polygon fill="#181818" points="165.33,239,156.33,235,160.33,239,156.33,243,165.33,239" style="stroke:#181818;stroke-width:1;"/></g><!--link ?? to [UC0104] ???????--><g id="link_&#25945;&#21209;_[UC0104] &#31185;&#30446;&#12434;&#30331;&#37682;&#12377;&#12427;"><path d="M34.18,244.6 C55.24,253.44 97.9,270.85 135,283 C161.64,291.72 185.5381,298.5408 211.5281,305.3908 " fill="#FFFFFF" fill-opacity="0.00000" id="&#25945;&#21209;-to-[UC0104] &#31185;&#30446;&#12434;&#30331;&#37682;&#12377;&#12427;" style="stroke:#181818;stroke-width:1;"/><polygon fill="#181818" points="217.33,306.92,209.6466,300.7584,212.4951,305.6457,207.6078,308.4942,217.33,306.92" style="stroke:#181818;stroke-width:1;"/></g><!--link ?? to [UC0105] ???????????--><g id="link_&#25945;&#21209;_[UC0105] &#12459;&#12522;&#12461;&#12517;&#12521;&#12512;&#12434;&#30331;&#37682;&#12377;&#12427;"><path d="M34.31,259.43 C53.37,287.11 91.04,336.24 135,364 C152.76,375.22 167.7131,381.9875 187.9531,388.5575 " fill="#FFFFFF" fill-opacity="0.00000" id="&#25945;&#21209;-to-[UC0105] &#12459;&#12522;&#12461;&#12517;&#12521;&#12512;&#12434;&#30331;&#37682;&#12377;&#12427;" style="stroke:#181818;stroke-width:1;"/><polygon fill="#181818" points="193.66,390.41,186.3347,383.8267,188.9043,388.8663,183.8647,391.4359,193.66,390.41" style="stroke:#181818;stroke-width:1;"/></g><!--link [UC0105] ??????????? to [UC0108] ???????--><g id="link_[UC0105] &#12459;&#12522;&#12461;&#12517;&#12521;&#12512;&#12434;&#30331;&#37682;&#12377;&#12427;_[UC0108] &#35611;&#24231;&#12434;&#36861;&#21152;&#12377;&#12427;"><path d="M415.73,411.74 C460.78,412.35 504.8106,412.9583 547.4206,413.5383 " fill="#FFFFFF" fill-opacity="0.00000" id="[UC0105] &#12459;&#12522;&#12461;&#12517;&#12521;&#12512;&#12434;&#30331;&#37682;&#12377;&#12427;-to-[UC0108] &#35611;&#24231;&#12434;&#36861;&#21152;&#12377;&#12427;" style="stroke:#181818;stroke-width:1;stroke-dasharray:7.0,7.0;"/><polygon fill="#181818" points="553.42,413.62,544.4753,409.4979,548.4205,413.5519,544.3664,417.4971,553.42,413.62" style="stroke:#181818;stroke-width:1;"/><text fill="#000000" font-family="sans-serif" font-size="13" lengthAdjust="spacing" textLength="63.0068" x="446.64" y="408.0669">&#171;include&#187;</text></g><!--link [UC0105] ??????????? to [UC0107] ?????????--><g id="link_[UC0105] &#12459;&#12522;&#12461;&#12517;&#12521;&#12512;&#12434;&#30331;&#37682;&#12377;&#12427;_[UC0107] &#12502;&#12525;&#12483;&#12463;&#12434;&#36861;&#21152;&#12377;&#12427;"><path d="M380.33,390.42 C439.06,377.92 508.7214,363.0889 565.6714,350.9689 " fill="#FFFFFF" fill-opacity="0.00000" id="[UC0105] &#12459;&#12522;&#12461;&#12517;&#12521;&#12512;&#12434;&#30331;&#37682;&#12377;&#12427;-to-[UC0107] &#12502;&#12525;&#12483;&#12463;&#12434;&#36861;&#21152;&#12377;&#12427;" style="stroke:#181818;stroke-width:1;stroke-dasharray:7.0,7.0;"/><polygon fill="#181818" points="571.54,349.72,561.9045,347.681,566.6495,350.7608,563.5698,355.5058,571.54,349.72" style="stroke:#181818;stroke-width:1;"/><text fill="#000000" font-family="sans-serif" font-size="13" lengthAdjust="spacing" textLength="63.0068" x="446.64" y="361.0669">&#171;include&#187;</text></g><!--link [UC0105] ??????????? to [UC0106] ???????--><g id="link_[UC0105] &#12459;&#12522;&#12461;&#12517;&#12521;&#12512;&#12434;&#30331;&#37682;&#12377;&#12427;_[UC0106] &#23398;&#32026;&#12434;&#30331;&#37682;&#12377;&#12427;"><path d="M364.19,387.21 C381.58,380.73 399.65,372.96 415.64,364 C430.54,355.65 431.39,349.41 445.64,340 C485.63,313.59 496.78,308.31 540.64,289 C558.13,281.3 571.9412,275.9858 589.7912,269.7958 " fill="#FFFFFF" fill-opacity="0.00000" id="[UC0105] &#12459;&#12522;&#12461;&#12517;&#12521;&#12512;&#12434;&#30331;&#37682;&#12377;&#12427;-to-[UC0106] &#23398;&#32026;&#12434;&#30331;&#37682;&#12377;&#12427;" style="stroke:#181818;stroke-width:1;stroke-dasharray:7.0,7.0;"/><polygon fill="#181818" points="595.46,267.83,585.6462,266.9995,590.736,269.4682,588.2673,274.558,595.46,267.83" style="stroke:#181818;stroke-width:1;"/><text fill="#000000" font-family="sans-serif" font-size="13" lengthAdjust="spacing" textLength="63.0068" x="446.64" y="299.0669">&#171;include&#187;</text></g><!--SRC=[oqbDAr4eoLSeoapFA558oInAJIx9pC_ZuafCBialKdWsTURJxfbSN0M9oTc9wQaAIg7E0GQ62aztRdavRVBZvlR7pNiUD-r_FdFtovvDIWhLN0f00D6Zgwjhfn4TwcnWQ60Og_1izfndqvS-czdqSkQ4nqsJNgnO-tJThCUDCnytTMjYrsGK2nQRlF1PS-lJ1Hk1cY2suDLa3DFqk77Tq-ubpneM4AVF95RX-VA9psUl8qwvQQp2uwRLZvjNFMvQ-xXvwUFcbO-RCMq2woL5XuAUdXrCWqMimeiriv_kMWuAhVrxdtOjW2coKh2noSnBpYbDIRMpeyWESw26vccFcu6gcnythQUXJMQn2a_NBdk-PHQ68bGxQW40]--></g></svg>