<svg xmlns="http://www.w3.org/2000/svg" xmlns:xlink="http://www.w3.org/1999/xlink" contentStyleType="text/css" data-diagram-type="DESCRIPTION" height="627px" preserveAspectRatio="none" style="width:797px;height:627px;background:#FFFFFF;" version="1.1" viewBox="0 0 797 627" width="797px" zoomAndPan="magnify"><defs/><g><!--cluster UCP03 ???????--><g id="cluster_UCP03 &#24180;&#38291;&#12487;&#12540;&#12479;&#20462;&#27491;"><path d="M145.5,6 L300.7593,6 A3.75,3.75 0 0 1 303.2593,8.5 L310.2593,28.2969 L788.49,28.2969 A2.5,2.5 0 0 1 790.99,30.7969 L790.99,617.5 A2.5,2.5 0 0 1 788.49,620 L145.5,620 A2.5,2.5 0 0 1 143,617.5 L143,8.5 A2.5,2.5 0 0 1 145.5,6 " fill="#FFFFFF" fill-opacity="0.00000" style="stroke:#000000;stroke-width:1.5;"/><line style="stroke:#000000;stroke-width:1.5;" x1="143" x2="310.2593" y1="28.2969" y2="28.2969"/><text fill="#000000" font-family="sans-serif" font-size="14" font-weight="bold" lengthAdjust="spacing" textLength="154.2593" x="147" y="20.9951">UCP03 &#24180;&#38291;&#12487;&#12540;&#12479;&#20462;&#27491;</text></g><g id="elem_[UC0301] &#26332;&#26085;&#26178;&#38480;&#12434;&#32232;&#38598;&#12377;&#12427;"><ellipse cx="287.323" cy="66.0046" fill="#F1F1F1" rx="115.173" ry="25.4346" style="stroke:#181818;stroke-width:0.5;"/><text fill="#000000" font-family="sans-serif" font-size="14" lengthAdjust="spacing" textLength="197.0248" x="188.8105" y="68.8513">[UC0301] &#26332;&#26085;&#26178;&#38480;&#12434;&#32232;&#38598;&#12377;&#12427;</text></g><g id="elem_[UC0302] &#25945;&#21729;&#24773;&#22577;&#12434;&#32232;&#38598;&#12377;&#12427;"><ellipse cx="287.323" cy="152.0046" fill="#F1F1F1" rx="115.173" ry="25.4346" style="stroke:#181818;stroke-width:0.5;"/><text fill="#000000" font-family="sans-serif" font-size="14" lengthAdjust="spacing" textLength="197.0248" x="188.8105" y="154.8513">[UC0302] &#25945;&#21729;&#24773;&#22577;&#12434;&#32232;&#38598;&#12377;&#12427;</text></g><g id="elem_[UC0303] &#25945;&#21729;&#12434;&#21066;&#38500;&#12377;&#12427;"><ellipse cx="287.3194" cy="235.0019" fill="#F1F1F1" rx="102.2594" ry="22.8519" style="stroke:#181818;stroke-width:0.5;"/><text fill="#000000" font-family="sans-serif" font-size="14" lengthAdjust="spacing" textLength="169.025" x="202.807" y="237.8486">[UC0303] &#25945;&#21729;&#12434;&#21066;&#38500;&#12377;&#12427;</text></g><g id="elem_[UC0304] &#25945;&#21729;&#12398;&#21220;&#24608;&#12434;&#20462;&#27491;&#12377;&#12427;"><ellipse cx="287.3221" cy="320.0044" fill="#F1F1F1" rx="121.7221" ry="26.7444" style="stroke:#181818;stroke-width:0.5;"/><text fill="#000000" font-family="sans-serif" font-size="14" lengthAdjust="spacing" textLength="211.0248" x="181.8097" y="322.8511">[UC0304] &#25945;&#21729;&#12398;&#21220;&#24608;&#12434;&#20462;&#27491;&#12377;&#12427;</text></g><g id="elem_[UC0305] &#31185;&#30446;&#24773;&#22577;&#12434;&#32232;&#38598;&#12377;&#12427;"><ellipse cx="287.323" cy="407.0046" fill="#F1F1F1" rx="115.173" ry="25.4346" style="stroke:#181818;stroke-width:0.5;"/><text fill="#000000" font-family="sans-serif" font-size="14" lengthAdjust="spacing" textLength="197.0248" x="188.8105" y="409.8513">[UC0305] &#31185;&#30446;&#24773;&#22577;&#12434;&#32232;&#38598;&#12377;&#12427;</text></g><g id="elem_[UC0306] &#31185;&#30446;&#12434;&#21066;&#38500;&#12377;&#12427;"><ellipse cx="287.3194" cy="490.0019" fill="#F1F1F1" rx="102.2594" ry="22.8519" style="stroke:#181818;stroke-width:0.5;"/><text fill="#000000" font-family="sans-serif" font-size="14" lengthAdjust="spacing" textLength="169.025" x="202.807" y="492.8486">[UC0306] &#31185;&#30446;&#12434;&#21066;&#38500;&#12377;&#12427;</text></g><g id="elem_[UC0307] &#12459;&#12522;&#12461;&#12517;&#12521;&#12512;&#12434;&#20462;&#27491;&#12377;&#12427;"><ellipse cx="287.32" cy="576.004" fill="#F1F1F1" rx="128.32" ry="28.064" style="stroke:#181818;stroke-width:0.5;"/><text fill="#000000" font-family="sans-serif" font-size="14" lengthAdjust="spacing" textLength="225.0247" x="174.8077" y="578.8507">[UC0307] &#12459;&#12522;&#12461;&#12517;&#12521;&#12512;&#12434;&#20462;&#27491;&#12377;&#12427;</text></g><g id="elem_[UC0311] &#35611;&#24231;&#12434;&#21066;&#38500;&#12377;&#12427;"><ellipse cx="659.8094" cy="581.0019" fill="#F1F1F1" rx="102.2594" ry="22.8519" style="stroke:#181818;stroke-width:0.5;"/><text fill="#000000" font-family="sans-serif" font-size="14" lengthAdjust="spacing" textLength="169.025" x="575.297" y="583.8486">[UC0311] &#35611;&#24231;&#12434;&#21066;&#38500;&#12377;&#12427;</text></g><g id="elem_[UC0310] &#35611;&#24231;&#24773;&#22577;&#12434;&#32232;&#38598;&#12377;&#12427;"><ellipse cx="659.813" cy="498.0046" fill="#F1F1F1" rx="115.173" ry="25.4346" style="stroke:#181818;stroke-width:0.5;"/><text fill="#000000" font-family="sans-serif" font-size="14" lengthAdjust="spacing" textLength="197.0248" x="561.3005" y="500.8513">[UC0310] &#35611;&#24231;&#24773;&#22577;&#12434;&#32232;&#38598;&#12377;&#12427;</text></g><g id="elem_[UC0309] &#12502;&#12525;&#12483;&#12463;&#12434;&#21066;&#38500;&#12377;&#12427;"><ellipse cx="659.813" cy="412.0046" fill="#F1F1F1" rx="115.173" ry="25.4346" style="stroke:#181818;stroke-width:0.5;"/><text fill="#000000" font-family="sans-serif" font-size="14" lengthAdjust="spacing" textLength="197.0248" x="561.3005" y="414.8513">[UC0309] &#12502;&#12525;&#12483;&#12463;&#12434;&#21066;&#38500;&#12377;&#12427;</text></g><g id="elem_[UC0308] &#23398;&#32026;&#12434;&#21066;&#38500;&#12377;&#12427;"><ellipse cx="659.8094" cy="329.0019" fill="#F1F1F1" rx="102.2594" ry="22.8519" style="stroke:#181818;stroke-width:0.5;"/><text fill="#000000" font-family="sans-serif" font-size="14" lengthAdjust="spacing" textLength="169.025" x="575.297" y="331.8486">[UC0308] &#23398;&#32026;&#12434;&#21066;&#38500;&#12377;&#12427;</text></g><!--entity ??--><g id="elem_&#25945;&#21209;"><ellipse cx="19.9999" cy="290.35" fill="#F1F1F1" rx="8" ry="8" style="stroke:#181818;stroke-width:0.5;"/><path d="M19.9999,298.35 L19.9999,325.35 M6.9999,306.35 L32.9999,306.35 M19.9999,325.35 L6.9999,340.35 M19.9999,325.35 L32.9999,340.35 " fill="#FFFFFF" fill-opacity="0.00000" style="stroke:#181818;stroke-width:0.5;"/><text fill="#000000" font-family="sans-serif" font-size="14" lengthAdjust="spacing" textLength="27.9999" x="6" y="354.8451">&#25945;&#21209;</text></g><!--link ?? to [UC0301] ?????????--><g id="link_&#25945;&#21209;_[UC0301] &#26332;&#26085;&#26178;&#38480;&#12434;&#32232;&#38598;&#12377;&#12427;"><path d="M31.42,281.42 C46.34,233.67 78.43,153.25 135,109 C151.56,96.04 166.1217,88.7751 186.4017,82.4551 " fill="#FFFFFF" fill-opacity="0.00000" id="&#25945;&#21209;-to-[UC0301] &#26332;&#26085;&#26178;&#38480;&#12434;&#32232;&#38598;&#12377;&#12427;" style="stroke:#181818;stroke-width:1;"/><polygon fill="#181818" points="192.13,80.67,182.3475,79.5289,187.3564,82.1576,184.7277,87.1666,192.13,80.67" style="stroke:#181818;stroke-width:1;"/></g><!--link ?? to [UC0302] ?????????--><g id="link_&#25945;&#21209;_[UC0302] &#25945;&#21729;&#24773;&#22577;&#12434;&#32232;&#38598;&#12377;&#12427;"><path d="M34.44,298.77 C53.37,270.64 90.61,221.49 135,195 C154.35,183.45 171.1778,176.5525 192.9178,170.2425 " fill="#FFFFFF" fill-opacity="0.00000" id="&#25945;&#21209;-to-[UC0302] &#25945;&#21729;&#24773;&#22577;&#12434;&#32232;&#38598;&#12377;&#12427;" style="stroke:#181818;stroke-width:1;"/><polygon fill="#181818" points="198.68,168.57,188.9217,167.2372,193.8782,169.9637,191.1517,174.9202,198.68,168.57" style="stroke:#181818;stroke-width:1;"/></g><!--link ?? to [UC0303] ???????--><g id="link_&#25945;&#21209;_[UC0303] &#25945;&#21729;&#12434;&#21066;&#38500;&#12377;&#12427;"><path d="M34.41,310.53 C42.64,305.07 53.56,298.43 64,294 C110.4,274.29 159.2551,260.9814 202.7851,251.2314 " fill="#FFFFFF" fill-opacity="0.00000" id="&#25945;&#21209;-to-[UC0303] &#25945;&#21729;&#12434;&#21066;&#38500;&#12377;&#12427;" style="stroke:#181818;stroke-width:1;"/><polygon fill="#181818" points="208.64,249.92,198.9833,247.9838,203.7609,251.0128,200.7319,255.7904,208.64,249.92" style="stroke:#181818;stroke-width:1;"/></g><!--link ?? to [UC0304] ??????????--><g id="link_&#25945;&#21209;_[UC0304] &#25945;&#21729;&#12398;&#21220;&#24608;&#12434;&#20462;&#27491;&#12377;&#12427;"><path d="M34.16,320 C58.57,320 107.16,320 159.33,320 " fill="#FFFFFF" fill-opacity="0.00000" id="&#25945;&#21209;-to-[UC0304] &#25945;&#21729;&#12398;&#21220;&#24608;&#12434;&#20462;&#27491;&#12377;&#12427;" style="stroke:#181818;stroke-width:1;"/><polygon fill="#181818" points="165.33,320,156.33,316,160.33,320,156.33,324,165.33,320" style="stroke:#181818;stroke-width:1;"/></g><!--link ?? to [UC0305] ?????????--><g id="link_&#25945;&#21209;_[UC0305] &#31185;&#30446;&#24773;&#22577;&#12434;&#32232;&#38598;&#12377;&#12427;"><path d="M34.19,325.55 C55.28,334.31 97.98,351.62 135,364 C159.87,372.31 181.5825,378.8211 206.2425,385.7311 " fill="#FFFFFF" fill-opacity="0.00000" id="&#25945;&#21209;-to-[UC0305] &#31185;&#30446;&#24773;&#22577;&#12434;&#32232;&#38598;&#12377;&#12427;" style="stroke:#181818;stroke-width:1;"/><polygon fill="#181818" points="212.02,387.35,204.4331,381.07,207.2054,386.0009,202.2745,388.7733,212.02,387.35" style="stroke:#181818;stroke-width:1;"/></g><!--link ?? to [UC0306] ???????--><g id="link_&#25945;&#21209;_[UC0306] &#31185;&#30446;&#12434;&#21066;&#38500;&#12377;&#12427;"><path d="M34.44,342.25 C53.26,371.45 90.22,422.26 135,450 C155.21,462.52 173.4817,469.6554 196.4117,475.5954 " fill="#FFFFFF" fill-opacity="0.00000" id="&#25945;&#21209;-to-[UC0306] &#31185;&#30446;&#12434;&#21066;&#38500;&#12377;&#12427;" style="stroke:#181818;stroke-width:1;"/><polygon fill="#181818" points="202.22,477.1,194.5107,470.9709,197.3798,475.8461,192.5045,478.7152,202.22,477.1" style="stroke:#181818;stroke-width:1;"/></g><!--link ?? to [UC0307] ???????????--><g id="link_&#25945;&#21209;_[UC0307] &#12459;&#12522;&#12461;&#12517;&#12521;&#12512;&#12434;&#20462;&#27491;&#12377;&#12427;"><path d="M31.91,358.42 C47.26,405.6 79.71,484.9 135,530 C150.21,542.41 163.0709,549.4862 181.8609,556.1062 " fill="#FFFFFF" fill-opacity="0.00000" id="&#25945;&#21209;-to-[UC0307] &#12459;&#12522;&#12461;&#12517;&#12521;&#12512;&#12434;&#20462;&#27491;&#12377;&#12427;" style="stroke:#181818;stroke-width:1;"/><polygon fill="#181818" points="187.52,558.1,180.3606,551.3366,182.8041,556.4385,177.7022,558.882,187.52,558.1" style="stroke:#181818;stroke-width:1;"/></g><!--link [UC0307] ??????????? to [UC0311] ???????--><g id="link_[UC0307] &#12459;&#12522;&#12461;&#12517;&#12521;&#12512;&#12434;&#20462;&#27491;&#12377;&#12427;_[UC0311] &#35611;&#24231;&#12434;&#21066;&#38500;&#12377;&#12427;"><path d="M415.82,577.72 C462.08,578.35 507.6805,578.959 551.3905,579.549 " fill="#FFFFFF" fill-opacity="0.00000" id="[UC0307] &#12459;&#12522;&#12461;&#12517;&#12521;&#12512;&#12434;&#20462;&#27491;&#12377;&#12427;-to-[UC0311] &#35611;&#24231;&#12434;&#21066;&#38500;&#12377;&#12427;" style="stroke:#181818;stroke-width:1;stroke-dasharray:7.0,7.0;"/><polygon fill="#181818" points="557.39,579.63,548.4448,575.5089,552.3905,579.5625,548.3368,583.5082,557.39,579.63" style="stroke:#181818;stroke-width:1;"/><text fill="#000000" font-family="sans-serif" font-size="13" lengthAdjust="spacing" textLength="67.958" x="446.64" y="574.0669">&#171;extends&#187;</text></g><!--link [UC0307] ??????????? to [UC0310] ?????????--><g id="link_[UC0307] &#12459;&#12522;&#12461;&#12517;&#12521;&#12512;&#12434;&#20462;&#27491;&#12377;&#12427;_[UC0310] &#35611;&#24231;&#24773;&#22577;&#12434;&#32232;&#38598;&#12377;&#12427;"><path d="M380.86,556.52 C440.44,543.97 511.3886,529.0357 569.1686,516.8757 " fill="#FFFFFF" fill-opacity="0.00000" id="[UC0307] &#12459;&#12522;&#12461;&#12517;&#12521;&#12512;&#12434;&#20462;&#27491;&#12377;&#12427;-to-[UC0310] &#35611;&#24231;&#24773;&#22577;&#12434;&#32232;&#38598;&#12377;&#12427;" style="stroke:#181818;stroke-width:1;stroke-dasharray:7.0,7.0;"/><polygon fill="#181818" points="575.04,515.64,565.4092,513.5792,570.1472,516.6697,567.0567,521.4077,575.04,515.64" style="stroke:#181818;stroke-width:1;"/><text fill="#000000" font-family="sans-serif" font-size="13" lengthAdjust="spacing" textLength="67.958" x="446.64" y="527.0669">&#171;extends&#187;</text></g><!--link [UC0307] ??????????? to [UC0309] ?????????--><g id="link_[UC0307] &#12459;&#12522;&#12461;&#12517;&#12521;&#12512;&#12434;&#20462;&#27491;&#12377;&#12427;_[UC0309] &#12502;&#12525;&#12483;&#12463;&#12434;&#21066;&#38500;&#12377;&#12427;"><path d="M364.19,553.21 C381.58,546.73 399.65,538.96 415.64,530 C430.54,521.65 431.31,515.29 445.64,506 C487.17,479.07 499.4,475.09 544.64,455 C561.48,447.52 574.4435,442.2707 591.6335,435.8107 " fill="#FFFFFF" fill-opacity="0.00000" id="[UC0307] &#12459;&#12522;&#12461;&#12517;&#12521;&#12512;&#12434;&#20462;&#27491;&#12377;&#12427;-to-[UC0309] &#12502;&#12525;&#12483;&#12463;&#12434;&#21066;&#38500;&#12377;&#12427;" style="stroke:#181818;stroke-width:1;stroke-dasharray:7.0,7.0;"/><polygon fill="#181818" points="597.25,433.7,587.4181,433.1217,592.5696,435.4589,590.2324,440.6103,597.25,433.7" style="stroke:#181818;stroke-width:1;"/><text fill="#000000" font-family="sans-serif" font-size="13" lengthAdjust="spacing" textLength="67.958" x="446.64" y="465.0669">&#171;extends&#187;</text></g><!--link [UC0307] ??????????? to [UC0308] ???????--><g id="link_[UC0307] &#12459;&#12522;&#12461;&#12517;&#12521;&#12512;&#12434;&#20462;&#27491;&#12377;&#12427;_[UC0308] &#23398;&#32026;&#12434;&#21066;&#38500;&#12377;&#12427;"><path d="M376.92,555.68 C391.19,549.3 404.81,540.95 415.64,530 C444.11,501.22 421.82,476.73 445.64,444 C478.12,399.37 496,395.11 544.64,369 C560.55,360.46 572.9958,355.119 590.0258,349.169 " fill="#FFFFFF" fill-opacity="0.00000" id="[UC0307] &#12459;&#12522;&#12461;&#12517;&#12521;&#12512;&#12434;&#20462;&#27491;&#12377;&#12427;-to-[UC0308] &#23398;&#32026;&#12434;&#21066;&#38500;&#12377;&#12427;" style="stroke:#181818;stroke-width:1;stroke-dasharray:7.0,7.0;"/><polygon fill="#181818" points="595.69,347.19,585.8743,346.3823,590.9698,348.8392,588.513,353.9346,595.69,347.19" style="stroke:#181818;stroke-width:1;"/><text fill="#000000" font-family="sans-serif" font-size="13" lengthAdjust="spacing" textLength="67.958" x="446.64" y="381.0669">&#171;extends&#187;</text></g><!--SRC=[oqbDAr4eoLSeoapFA558oInAJIx9pC_ZuafCBialKdWsTURJxfbSN0M9oTc9wQaAIg7E0GR62aztRdavRVBZvlR7pNiUD-r_id_TixMBbHIgkHI00A97LrVNJYCwrDd0sC0mLk7Px3dFfYzzDhFfvSm9ZvicFT- -ukNijiUDCnytTMjYrsGK2nQRlF1PS-lJ1Hk9qsGCqmHK_hIpw-NC9NYLcy2LDwvxshtaMSC2e3w8P_3gCurLUBvyulFPwqXncnbC4t5kCuzLUDoq-d7pgiTDQnytBttSlF9nCwRpm7f9qQ6WfsS7rM08Z9SNQsO_tRKStKKALWesDgaL9QbvASLsTXJPOG2p0tjGKSyc0qkWXkPfZvk1gfiVDwsddPyCB68LdgvTzdpBBFnsA73L0W00]--></g></svg>