<?xml version="1.0" encoding="us-ascii" standalone="no"?><svg xmlns="http://www.w3.org/2000/svg" xmlns:xlink="http://www.w3.org/1999/xlink" contentStyleType="text/css" height="746px" preserveAspectRatio="none" style="width:955px;height:746px;background:#FFFFFF;" version="1.1" viewBox="0 0 955 746" width="955px" zoomAndPan="magnify"><defs/><g><!--cluster [UCP02]???????--><g id="cluster_[UCP02]&#24180;&#38291;&#26178;&#38291;&#21106;&#32232;&#25104;"><path d="M145.5,6 L301.5,6 A3.75,3.75 0 0 1 304,8.5 L311,28.4883 L945.69,28.4883 A2.5,2.5 0 0 1 948.19,30.9883 L948.19,736.5 A2.5,2.5 0 0 1 945.69,739 L145.5,739 A2.5,2.5 0 0 1 143,736.5 L143,8.5 A2.5,2.5 0 0 1 145.5,6 " fill="none" style="stroke:#000000;stroke-width:1.5;"/><line style="stroke:#000000;stroke-width:1.5;" x1="143" x2="311" y1="28.4883" y2="28.4883"/><text fill="#000000" font-family="sans-serif" font-size="14" font-weight="bold" lengthAdjust="spacing" textLength="155" x="147" y="21.5352">[UCP02]&#24180;&#38291;&#26178;&#38291;&#21106;&#32232;&#25104;</text></g><g id="elem_[UC0201]&#21046;&#32004;&#26465;&#20214;&#12434;&#35506;&#12377;&#65288;&#32068;&#12415;&#36796;&#12415;&#65289;"><ellipse cx="318.5287" cy="70.9957" fill="#F1F1F1" rx="139.3787" ry="30.2757" style="stroke:#181818;stroke-width:0.5;"/><text fill="#000000" font-family="sans-serif" font-size="14" lengthAdjust="spacing" textLength="248" x="194.5287" y="74.2868">[UC0201]&#21046;&#32004;&#26465;&#20214;&#12434;&#35506;&#12377;&#65288;&#32068;&#12415;&#36796;&#12415;&#65289;</text></g><g id="elem_[UC0202]&#21046;&#32004;&#26465;&#20214;&#12434;&#35506;&#12377;&#65288;&#12481;&#12515;&#12483;&#12488;&#65289;"><ellipse cx="318.5287" cy="166.9957" fill="#F1F1F1" rx="139.3787" ry="30.2757" style="stroke:#181818;stroke-width:0.5;"/><text fill="#000000" font-family="sans-serif" font-size="14" lengthAdjust="spacing" textLength="248" x="194.5287" y="170.2868">[UC0202]&#21046;&#32004;&#26465;&#20214;&#12434;&#35506;&#12377;&#65288;&#12481;&#12515;&#12483;&#12488;&#65289;</text></g><g id="elem_[UC0203]&#32232;&#25104;&#12434;&#23455;&#34892;&#12377;&#12427;"><ellipse cx="318.5259" cy="254.9952" fill="#F1F1F1" rx="100.1759" ry="22.4352" style="stroke:#181818;stroke-width:0.5;"/><text fill="#000000" font-family="sans-serif" font-size="14" lengthAdjust="spacing" textLength="164" x="236.5259" y="258.2862">[UC0203]&#32232;&#25104;&#12434;&#23455;&#34892;&#12377;&#12427;</text></g><g id="elem_[UC0204]&#32232;&#25104;&#32080;&#26524;&#12434;&#35211;&#12427;"><ellipse cx="318.5259" cy="334.9952" fill="#F1F1F1" rx="100.1759" ry="22.4352" style="stroke:#181818;stroke-width:0.5;"/><text fill="#000000" font-family="sans-serif" font-size="14" lengthAdjust="spacing" textLength="164" x="236.5259" y="338.2862">[UC0204]&#32232;&#25104;&#32080;&#26524;&#12434;&#35211;&#12427;</text></g><g id="elem_[UC0209]&#21046;&#32004;&#26465;&#20214;&#12434;&#32233;&#21644;&#12377;&#12427;"><ellipse cx="318.5343" cy="417.0029" fill="#F1F1F1" rx="113.0143" ry="25.0029" style="stroke:#181818;stroke-width:0.5;"/><text fill="#000000" font-family="sans-serif" font-size="14" lengthAdjust="spacing" textLength="192" x="222.5343" y="420.2939">[UC0209]&#21046;&#32004;&#26465;&#20214;&#12434;&#32233;&#21644;&#12377;&#12427;</text></g><g id="elem_[UC0214]&#12467;&#12510;&#12434;&#20837;&#12428;&#26367;&#12360;&#12427;"><ellipse cx="318.5275" cy="501.0015" fill="#F1F1F1" rx="106.5575" ry="23.7115" style="stroke:#181818;stroke-width:0.5;"/><text fill="#000000" font-family="sans-serif" font-size="14" lengthAdjust="spacing" textLength="178" x="229.5275" y="504.2925">[UC0214]&#12467;&#12510;&#12434;&#20837;&#12428;&#26367;&#12360;&#12427;</text></g><g id="elem_[UC0215]&#25215;&#35469;&#21069;&#12398;&#26178;&#38291;&#21106;&#12434;&#12480;&#12454;&#12531;&#12525;&#12540;&#12489;&#12377;&#12427;"><ellipse cx="318.5252" cy="593.995" fill="#F1F1F1" rx="159.5252" ry="34.305" style="stroke:#181818;stroke-width:0.5;"/><text fill="#000000" font-family="sans-serif" font-size="14" lengthAdjust="spacing" textLength="290" x="173.5252" y="597.2861">[UC0215]&#25215;&#35469;&#21069;&#12398;&#26178;&#38291;&#21106;&#12434;&#12480;&#12454;&#12531;&#12525;&#12540;&#12489;&#12377;&#12427;</text></g><g id="elem_[UC0216]&#26178;&#38291;&#21106;&#12434;&#25215;&#35469;&#12377;&#12427;"><ellipse cx="318.5275" cy="687.0015" fill="#F1F1F1" rx="106.5575" ry="23.7115" style="stroke:#181818;stroke-width:0.5;"/><text fill="#000000" font-family="sans-serif" font-size="14" lengthAdjust="spacing" textLength="178" x="229.5275" y="690.2925">[UC0216]&#26178;&#38291;&#21106;&#12434;&#25215;&#35469;&#12377;&#12427;</text></g><g id="elem_[UC0205]&#23398;&#32026;&#12499;&#12517;&#12540;&#12434;&#35211;&#12427;"><ellipse cx="759.1175" cy="311.0015" fill="#F1F1F1" rx="106.5575" ry="23.7115" style="stroke:#181818;stroke-width:0.5;"/><text fill="#000000" font-family="sans-serif" font-size="14" lengthAdjust="spacing" textLength="178" x="670.1175" y="314.2925">[UC0205]&#23398;&#32026;&#12499;&#12517;&#12540;&#12434;&#35211;&#12427;</text></g><g id="elem_[UC0206]&#25945;&#21729;&#12499;&#12517;&#12540;&#12434;&#35211;&#12427;"><ellipse cx="759.1175" cy="229.0015" fill="#F1F1F1" rx="106.5575" ry="23.7115" style="stroke:#181818;stroke-width:0.5;"/><text fill="#000000" font-family="sans-serif" font-size="14" lengthAdjust="spacing" textLength="178" x="670.1175" y="232.2925">[UC0206]&#25945;&#21729;&#12499;&#12517;&#12540;&#12434;&#35211;&#12427;</text></g><g id="elem_[UC0207]&#25945;&#23460;&#12499;&#12517;&#12540;&#12434;&#35211;&#12427;"><ellipse cx="759.1175" cy="147.0015" fill="#F1F1F1" rx="106.5575" ry="23.7115" style="stroke:#181818;stroke-width:0.5;"/><text fill="#000000" font-family="sans-serif" font-size="14" lengthAdjust="spacing" textLength="178" x="670.1175" y="150.2925">[UC0207]&#25945;&#23460;&#12499;&#12517;&#12540;&#12434;&#35211;&#12427;</text></g><g id="elem_[UC0208]&#32113;&#35336;&#12499;&#12517;&#12540;&#12434;&#35211;&#12427;"><ellipse cx="759.1175" cy="65.0015" fill="#F1F1F1" rx="106.5575" ry="23.7115" style="stroke:#181818;stroke-width:0.5;"/><text fill="#000000" font-family="sans-serif" font-size="14" lengthAdjust="spacing" textLength="178" x="670.1175" y="68.2925">[UC0208]&#32113;&#35336;&#12499;&#12517;&#12540;&#12434;&#35211;&#12427;</text></g><g id="elem_[UC0213]&#21046;&#32004;&#26465;&#20214;&#12398;&#20869;&#23481;&#12434;&#22793;&#26356;&#12377;&#12427;&#65288;&#12481;&#12515;&#12483;&#12488;&#65289;"><ellipse cx="759.121" cy="686.0042" fill="#F1F1F1" rx="173.071" ry="37.0142" style="stroke:#181818;stroke-width:0.5;"/><text fill="#000000" font-family="sans-serif" font-size="14" lengthAdjust="spacing" textLength="318" x="600.121" y="689.2952">[UC0213]&#21046;&#32004;&#26465;&#20214;&#12398;&#20869;&#23481;&#12434;&#22793;&#26356;&#12377;&#12427;&#65288;&#12481;&#12515;&#12483;&#12488;&#65289;</text></g><g id="elem_[UC0212]&#21046;&#32004;&#26465;&#20214;&#12398;&#20869;&#23481;&#12434;&#22793;&#26356;&#12377;&#12427;&#65288;&#32068;&#12415;&#36796;&#12415;&#65289;"><ellipse cx="759.121" cy="577.0042" fill="#F1F1F1" rx="173.071" ry="37.0142" style="stroke:#181818;stroke-width:0.5;"/><text fill="#000000" font-family="sans-serif" font-size="14" lengthAdjust="spacing" textLength="318" x="600.121" y="580.2952">[UC0212]&#21046;&#32004;&#26465;&#20214;&#12398;&#20869;&#23481;&#12434;&#22793;&#26356;&#12377;&#12427;&#65288;&#32068;&#12415;&#36796;&#12415;&#65289;</text></g><g id="elem_[UC0211]&#21046;&#32004;&#26465;&#20214;&#12434;&#36861;&#21152;&#12377;&#12427;"><ellipse cx="759.1243" cy="480.0029" fill="#F1F1F1" rx="113.0143" ry="25.0029" style="stroke:#181818;stroke-width:0.5;"/><text fill="#000000" font-family="sans-serif" font-size="14" lengthAdjust="spacing" textLength="192" x="663.1243" y="483.2939">[UC0211]&#21046;&#32004;&#26465;&#20214;&#12434;&#36861;&#21152;&#12377;&#12427;</text></g><g id="elem_[UC0210]&#21046;&#32004;&#26465;&#20214;&#12434;&#38500;&#22806;&#12377;&#12427;"><ellipse cx="759.1243" cy="395.0029" fill="#F1F1F1" rx="113.0143" ry="25.0029" style="stroke:#181818;stroke-width:0.5;"/><text fill="#000000" font-family="sans-serif" font-size="14" lengthAdjust="spacing" textLength="192" x="663.1243" y="398.2939">[UC0210]&#21046;&#32004;&#26465;&#20214;&#12434;&#38500;&#22806;&#12377;&#12427;</text></g><!--entity ??--><g id="elem_&#25945;&#21209;"><ellipse cx="20" cy="349.26" fill="#F1F1F1" rx="8" ry="8" style="stroke:#181818;stroke-width:0.5;"/><path d="M20,357.26 L20,384.26 M7,365.26 L33,365.26 M20,384.26 L7,399.26 M20,384.26 L33,399.26 " fill="none" style="stroke:#181818;stroke-width:0.5;"/><text fill="#000000" font-family="sans-serif" font-size="14" lengthAdjust="spacing" textLength="28" x="6" y="414.2952">&#25945;&#21209;</text></g><!--link ?? to [UC0201]?????????????--><g id="link_&#25945;&#21209;_[UC0201]&#21046;&#32004;&#26465;&#20214;&#12434;&#35506;&#12377;&#65288;&#32068;&#12415;&#36796;&#12415;&#65289;"><path d="M26.71,340.68 C37.35,283.38 65.76,176.03 135,119 C153.21,104 169.8842,95.4331 192.6842,88.2931 " fill="none" id="&#25945;&#21209;-to-[UC0201]&#21046;&#32004;&#26465;&#20214;&#12434;&#35506;&#12377;&#65288;&#32068;&#12415;&#36796;&#12415;&#65289;" style="stroke:#181818;stroke-width:1.0;"/><polygon fill="#181818" points="198.41,86.5,188.6259,85.3724,193.6385,87.9942,191.0167,93.0068,198.41,86.5" style="stroke:#181818;stroke-width:1.0;"/></g><!--link ?? to [UC0202]?????????????--><g id="link_&#25945;&#21209;_[UC0202]&#21046;&#32004;&#26465;&#20214;&#12434;&#35506;&#12377;&#65288;&#12481;&#12515;&#12483;&#12488;&#65289;"><path d="M34.35,346.98 C51.77,309.29 85.95,247.7 135,215 C155.58,201.28 174.1395,193.1583 198.1995,186.1483 " fill="none" id="&#25945;&#21209;-to-[UC0202]&#21046;&#32004;&#26465;&#20214;&#12434;&#35506;&#12377;&#65288;&#12481;&#12515;&#12483;&#12488;&#65289;" style="stroke:#181818;stroke-width:1.0;"/><polygon fill="#181818" points="203.96,184.47,194.2004,183.1472,199.1596,185.8686,196.4382,190.8278,203.96,184.47" style="stroke:#181818;stroke-width:1.0;"/></g><!--link ?? to [UC0203]???????--><g id="link_&#25945;&#21209;_[UC0203]&#32232;&#25104;&#12434;&#23455;&#34892;&#12377;&#12427;"><path d="M34.27,362.82 C42.28,353.68 53.03,342.43 64,334 C112.44,296.78 172.7658,278.0933 225.3758,267.6033 " fill="none" id="&#25945;&#21209;-to-[UC0203]&#32232;&#25104;&#12434;&#23455;&#34892;&#12377;&#12427;" style="stroke:#181818;stroke-width:1.0;"/><polygon fill="#181818" points="231.26,266.43,221.6516,264.2671,226.3565,267.4077,223.2159,272.1127,231.26,266.43" style="stroke:#181818;stroke-width:1.0;"/></g><!--link ?? to [UC0204]???????--><g id="link_&#25945;&#21209;_[UC0204]&#32232;&#25104;&#32080;&#26524;&#12434;&#35211;&#12427;"><path d="M34.16,371.87 C42.47,367.71 53.58,362.74 64,360 C114.05,346.84 165.3121,340.8601 212.7321,337.8501 " fill="none" id="&#25945;&#21209;-to-[UC0204]&#32232;&#25104;&#32080;&#26524;&#12434;&#35211;&#12427;" style="stroke:#181818;stroke-width:1.0;"/><polygon fill="#181818" points="218.72,337.47,209.4847,334.0482,213.73,337.7867,209.9915,342.0321,218.72,337.47" style="stroke:#181818;stroke-width:1.0;"/></g><!--link ?? to [UC0209]?????????--><g id="link_&#25945;&#21209;_[UC0209]&#21046;&#32004;&#26465;&#20214;&#12434;&#32233;&#21644;&#12377;&#12427;"><path d="M34.12,380.68 C66.24,384.8 145.1987,394.9171 213.7687,403.7071 " fill="none" id="&#25945;&#21209;-to-[UC0209]&#21046;&#32004;&#26465;&#20214;&#12434;&#32233;&#21644;&#12377;&#12427;" style="stroke:#181818;stroke-width:1.0;"/><polygon fill="#181818" points="219.72,404.47,211.3016,399.3581,214.7606,403.8343,210.2844,407.2932,219.72,404.47" style="stroke:#181818;stroke-width:1.0;"/></g><!--link ?? to [UC0214]????????--><g id="link_&#25945;&#21209;_[UC0214]&#12467;&#12510;&#12434;&#20837;&#12428;&#26367;&#12360;&#12427;"><path d="M34.29,391.18 C54.49,409.02 94.86,442.11 135,460 C164.07,472.96 191.7521,480.8058 222.1121,487.0258 " fill="none" id="&#25945;&#21209;-to-[UC0214]&#12467;&#12510;&#12434;&#20837;&#12428;&#26367;&#12360;&#12427;" style="stroke:#181818;stroke-width:1.0;"/><polygon fill="#181818" points="227.99,488.23,219.976,482.505,223.0917,487.2265,218.3703,490.3423,227.99,488.23" style="stroke:#181818;stroke-width:1.0;"/></g><!--link ?? to [UC0215]????????????????--><g id="link_&#25945;&#21209;_[UC0215]&#25215;&#35469;&#21069;&#12398;&#26178;&#38291;&#21106;&#12434;&#12480;&#12454;&#12531;&#12525;&#12540;&#12489;&#12377;&#12427;"><path d="M34.45,409.64 C52.2,446.52 86.91,507.74 135,542 C153.11,554.9 168.6902,562.6862 190.1602,569.9962 " fill="none" id="&#25945;&#21209;-to-[UC0215]&#25215;&#35469;&#21069;&#12398;&#26178;&#38291;&#21106;&#12434;&#12480;&#12454;&#12531;&#12525;&#12540;&#12489;&#12377;&#12427;" style="stroke:#181818;stroke-width:1.0;"/><polygon fill="#181818" points="195.84,571.93,188.6095,565.2427,191.1068,570.3185,186.0311,572.8158,195.84,571.93" style="stroke:#181818;stroke-width:1.0;"/></g><!--link ?? to [UC0216]????????--><g id="link_&#25945;&#21209;_[UC0216]&#26178;&#38291;&#21106;&#12434;&#25215;&#35469;&#12377;&#12427;"><path d="M26.23,417.36 C36.31,475.91 64.1,587 135,646 C157.34,664.59 180.4974,673.9699 208.8074,679.8999 " fill="none" id="&#25945;&#21209;-to-[UC0216]&#26178;&#38291;&#21106;&#12434;&#25215;&#35469;&#12377;&#12427;" style="stroke:#181818;stroke-width:1.0;"/><polygon fill="#181818" points="214.68,681.13,206.6912,675.3698,209.7862,680.1049,205.0511,683.1999,214.68,681.13" style="stroke:#181818;stroke-width:1.0;"/></g><!--reverse link [UC0204]??????? to [UC0205]????????--><g id="link_[UC0204]&#32232;&#25104;&#32080;&#26524;&#12434;&#35211;&#12427;_[UC0205]&#23398;&#32026;&#12499;&#12517;&#12540;&#12434;&#35211;&#12427;"><path d="M434.2931,328.717 C505.0531,324.847 582.9,320.59 655.08,316.64 " fill="none" id="[UC0204]&#32232;&#25104;&#32080;&#26524;&#12434;&#35211;&#12427;-backto-[UC0205]&#23398;&#32026;&#12499;&#12517;&#12540;&#12434;&#35211;&#12427;" style="stroke:#181818;stroke-width:1.0;"/><polygon fill="none" points="416.32,329.7,434.6208,334.7081,433.9655,322.726,416.32,329.7" style="stroke:#181818;stroke-width:1.0;"/></g><!--reverse link [UC0204]??????? to [UC0206]????????--><g id="link_[UC0204]&#32232;&#25104;&#32080;&#26524;&#12434;&#35211;&#12427;_[UC0206]&#25945;&#21729;&#12499;&#12517;&#12540;&#12434;&#35211;&#12427;"><path d="M404.9032,314.0577 C458.7532,300.8677 518.45,286.3 586.05,270 C618.44,262.19 654.29,253.64 684.84,246.37 " fill="none" id="[UC0204]&#32232;&#25104;&#32080;&#26524;&#12434;&#35211;&#12427;-backto-[UC0206]&#25945;&#21729;&#12499;&#12517;&#12540;&#12434;&#35211;&#12427;" style="stroke:#181818;stroke-width:1.0;"/><polygon fill="none" points="387.42,318.34,406.3306,319.8854,403.4757,308.2299,387.42,318.34" style="stroke:#181818;stroke-width:1.0;"/></g><!--reverse link [UC0204]??????? to [UC0207]????????--><g id="link_[UC0204]&#32232;&#25104;&#32080;&#26524;&#12434;&#35211;&#12427;_[UC0207]&#25945;&#23460;&#12499;&#12517;&#12540;&#12434;&#35211;&#12427;"><path d="M420.454,318.5355 C445.664,312.5555 455.19,307.91 478.05,295 C536.89,261.78 526.99,220.83 586.05,188 C610.61,174.35 639.6,165.22 666.71,159.12 " fill="none" id="[UC0204]&#32232;&#25104;&#32080;&#26524;&#12434;&#35211;&#12427;-backto-[UC0207]&#25945;&#23460;&#12499;&#12517;&#12540;&#12434;&#35211;&#12427;" style="stroke:#181818;stroke-width:1.0;"/><polygon fill="none" points="402.94,322.69,421.8388,324.3735,419.0692,312.6975,402.94,322.69" style="stroke:#181818;stroke-width:1.0;"/></g><!--reverse link [UC0204]??????? to [UC0208]????????--><g id="link_[UC0204]&#32232;&#25104;&#32080;&#26524;&#12434;&#35211;&#12427;_[UC0208]&#32113;&#35336;&#12499;&#12517;&#12540;&#12434;&#35211;&#12427;"><path d="M428.4795,321.752 C452.2795,315.842 459.06,310.57 478.05,295 C502.03,275.34 493.2,259.23 508.05,232 C539.59,174.18 532.65,144.55 586.05,106 C607.84,90.27 634.83,80.51 660.93,74.47 " fill="none" id="[UC0204]&#32232;&#25104;&#32080;&#26524;&#12434;&#35211;&#12427;-backto-[UC0208]&#32113;&#35336;&#12499;&#12517;&#12540;&#12434;&#35211;&#12427;" style="stroke:#181818;stroke-width:1.0;"/><polygon fill="none" points="411.01,326.09,429.9255,327.5751,427.0335,315.9288,411.01,326.09" style="stroke:#181818;stroke-width:1.0;"/></g><!--link [UC0209]????????? to [UC0213]??????????????????--><g id="link_[UC0209]&#21046;&#32004;&#26465;&#20214;&#12434;&#32233;&#21644;&#12377;&#12427;_[UC0213]&#21046;&#32004;&#26465;&#20214;&#12398;&#20869;&#23481;&#12434;&#22793;&#26356;&#12377;&#12427;&#65288;&#12481;&#12515;&#12483;&#12488;&#65289;"><path d="M418.1,429.17 C439.71,435.6 461.15,445.32 478.05,460 C503.6,482.2 490.97,500.78 508.05,530 C536.85,579.27 539.31,599.26 586.05,632 C601.95,643.14 614.6349,649.9093 633.2249,657.0093 " fill="none" id="[UC0209]&#21046;&#32004;&#26465;&#20214;&#12434;&#32233;&#21644;&#12377;&#12427;-to-[UC0213]&#21046;&#32004;&#26465;&#20214;&#12398;&#20869;&#23481;&#12434;&#22793;&#26356;&#12377;&#12427;&#65288;&#12481;&#12515;&#12483;&#12488;&#65289;" style="stroke:#181818;stroke-width:1.0;stroke-dasharray:7.0,7.0;"/><polygon fill="#181818" points="638.83,659.15,631.8495,652.2022,634.1591,657.3661,628.9952,659.6756,638.83,659.15" style="stroke:#181818;stroke-width:1.0;"/><text fill="#000000" font-family="sans-serif" font-size="13" lengthAdjust="spacing" textLength="46" x="509.05" y="526.5684">include</text></g><!--link [UC0209]????????? to [UC0212]??????????????????--><g id="link_[UC0209]&#21046;&#32004;&#26465;&#20214;&#12434;&#32233;&#21644;&#12377;&#12427;_[UC0212]&#21046;&#32004;&#26465;&#20214;&#12398;&#20869;&#23481;&#12434;&#22793;&#26356;&#12377;&#12427;&#65288;&#32068;&#12415;&#36796;&#12415;&#65289;"><path d="M400.33,434.54 C425.68,441.19 453.46,449.7 478.05,460 C503.68,470.73 560.64,511.77 586.05,523 C606.81,532.17 623.9171,538.6153 645.9371,545.8153 " fill="none" id="[UC0209]&#21046;&#32004;&#26465;&#20214;&#12434;&#32233;&#21644;&#12377;&#12427;-to-[UC0212]&#21046;&#32004;&#26465;&#20214;&#12398;&#20869;&#23481;&#12434;&#22793;&#26356;&#12377;&#12427;&#65288;&#32068;&#12415;&#36796;&#12415;&#65289;" style="stroke:#181818;stroke-width:1.0;stroke-dasharray:7.0,7.0;"/><polygon fill="#181818" points="651.64,547.68,644.3288,541.081,646.8876,546.1261,641.8425,548.6849,651.64,547.68" style="stroke:#181818;stroke-width:1.0;"/><text fill="#000000" font-family="sans-serif" font-size="13" lengthAdjust="spacing" textLength="46" x="509.05" y="474.2084">include</text></g><!--link [UC0209]????????? to [UC0211]?????????--><g id="link_[UC0209]&#21046;&#32004;&#26465;&#20214;&#12434;&#32233;&#21644;&#12377;&#12427;_[UC0211]&#21046;&#32004;&#26465;&#20214;&#12434;&#36861;&#21152;&#12377;&#12427;"><path d="M414.42,430.63 C488.1,441.21 583.8309,454.9674 657.4609,465.5374 " fill="none" id="[UC0209]&#21046;&#32004;&#26465;&#20214;&#12434;&#32233;&#21644;&#12377;&#12427;-to-[UC0211]&#21046;&#32004;&#26465;&#20214;&#12434;&#36861;&#21152;&#12377;&#12427;" style="stroke:#181818;stroke-width:1.0;stroke-dasharray:7.0,7.0;"/><polygon fill="#181818" points="663.4,466.39,655.0597,461.1517,658.4507,465.6795,653.9229,469.0705,663.4,466.39" style="stroke:#181818;stroke-width:1.0;"/><text fill="#000000" font-family="sans-serif" font-size="13" lengthAdjust="spacing" textLength="46" x="509.05" y="441.2984">include</text></g><!--link [UC0209]????????? to [UC0210]?????????--><g id="link_[UC0209]&#21046;&#32004;&#26465;&#20214;&#12434;&#32233;&#21644;&#12377;&#12427;_[UC0210]&#21046;&#32004;&#26465;&#20214;&#12434;&#38500;&#22806;&#12377;&#12427;"><path d="M429.35,411.49 C496.34,408.13 575.6675,404.1508 642.5975,400.7908 " fill="none" id="[UC0209]&#21046;&#32004;&#26465;&#20214;&#12434;&#32233;&#21644;&#12377;&#12427;-to-[UC0210]&#21046;&#32004;&#26465;&#20214;&#12434;&#38500;&#22806;&#12377;&#12427;" style="stroke:#181818;stroke-width:1.0;stroke-dasharray:7.0,7.0;"/><polygon fill="#181818" points="648.59,400.49,639.4008,396.9463,643.5963,400.7407,639.8019,404.9362,648.59,400.49" style="stroke:#181818;stroke-width:1.0;"/><text fill="#000000" font-family="sans-serif" font-size="13" lengthAdjust="spacing" textLength="46" x="509.05" y="401.9084">include</text></g><!--SRC=[hPJBIW9H7CRtynHdMOiHjUmYqQONQDCgPY5g9Ob6sAg2Pex6J2f8aZ1PbgHYGGEP5oJBX_btPiQLhz0PRvINiSApEAll-tqV_tFnUtT2A1H4XxxTlH3o-0wzxf0l660OftebawZiP1X4ru7BlU_QzQBjhOrDgvqZzN8hbLHbWUv4AccreYecq757QgokbsNPzJdgiDgjDew8LQqSLc-pdszL42xrfnBmShiXQfKmy4tzeq7tTaEQdyomJsG0vW4_0CQ0HNF60jVjIjr4kTEpCGe08MhYMEmvj4f2pTmOgOMekMDrkATMUoINKvDiYnm8hu0pHhT87eIOccu2BvgR79mgDVMdE97Ym2k34w4Cm6SW501Jv3FW1c1fQeCbxZkW2-wR1gufSq5h9opR5pauybpGojU0au3pHelH-Vs5HmlIpidih7ZB7PwIcnLlXTCgBtfH7CSR1ffV4sInhFUKjeMVIbuXvn6Yr8rxafFKTBbh6VCEa1Fv0cx_aSVx_t3xRyE77_8imaU_ZUOxkRZlAsUGO1rMjkGSoQL64peHfymN]--></g></svg>