<?xml version="1.0" encoding="us-ascii" standalone="no"?><svg xmlns="http://www.w3.org/2000/svg" xmlns:xlink="http://www.w3.org/1999/xlink" contentStyleType="text/css" height="457px" preserveAspectRatio="none" style="width:768px;height:457px;background:#FFFFFF;" version="1.1" viewBox="0 0 768 457" width="768px" zoomAndPan="magnify"><defs/><g><!--cluster [UCP01]???????--><g id="cluster_[UCP01]&#24180;&#38291;&#12487;&#12540;&#12479;&#30331;&#37682;"><path d="M145.5,6 L301.5,6 A3.75,3.75 0 0 1 304,8.5 L311,28.4883 L758.74,28.4883 A2.5,2.5 0 0 1 761.24,30.9883 L761.24,447.5 A2.5,2.5 0 0 1 758.74,450 L145.5,450 A2.5,2.5 0 0 1 143,447.5 L143,8.5 A2.5,2.5 0 0 1 145.5,6 " fill="none" style="stroke:#000000;stroke-width:1.5;"/><line style="stroke:#000000;stroke-width:1.5;" x1="143" x2="311" y1="28.4883" y2="28.4883"/><text fill="#000000" font-family="sans-serif" font-size="14" font-weight="bold" lengthAdjust="spacing" textLength="155" x="147" y="21.5352">[UCP01]&#24180;&#38291;&#12487;&#12540;&#12479;&#30331;&#37682;</text></g><g id="elem_[UC0101]&#26332;&#26085;&#26178;&#38480;&#12434;&#35373;&#23450;&#12377;&#12427;"><ellipse cx="285.1143" cy="66.0029" fill="#F1F1F1" rx="113.0143" ry="25.0029" style="stroke:#181818;stroke-width:0.5;"/><text fill="#000000" font-family="sans-serif" font-size="14" lengthAdjust="spacing" textLength="192" x="189.1143" y="69.2939">[UC0101]&#26332;&#26085;&#26178;&#38480;&#12434;&#35373;&#23450;&#12377;&#12427;</text></g><g id="elem_[UC0102]&#25945;&#21729;&#24773;&#22577;&#12434;&#30331;&#37682;&#12377;&#12427;"><ellipse cx="285.1143" cy="151.0029" fill="#F1F1F1" rx="113.0143" ry="25.0029" style="stroke:#181818;stroke-width:0.5;"/><text fill="#000000" font-family="sans-serif" font-size="14" lengthAdjust="spacing" textLength="192" x="189.1143" y="154.2939">[UC0102]&#25945;&#21729;&#24773;&#22577;&#12434;&#30331;&#37682;&#12377;&#12427;</text></g><g id="elem_[UC0103]&#25945;&#21729;&#12398;&#21220;&#24608;&#12434;&#30331;&#37682;&#12377;&#12427;"><ellipse cx="285.1139" cy="236.9968" fill="#F1F1F1" rx="119.5339" ry="26.3068" style="stroke:#181818;stroke-width:0.5;"/><text fill="#000000" font-family="sans-serif" font-size="14" lengthAdjust="spacing" textLength="206" x="182.1139" y="240.2878">[UC0103]&#25945;&#21729;&#12398;&#21220;&#24608;&#12434;&#30331;&#37682;&#12377;&#12427;</text></g><g id="elem_[UC0104]&#31185;&#30446;&#12434;&#30331;&#37682;&#12377;&#12427;"><ellipse cx="285.1059" cy="320.9952" fill="#F1F1F1" rx="100.1759" ry="22.4352" style="stroke:#181818;stroke-width:0.5;"/><text fill="#000000" font-family="sans-serif" font-size="14" lengthAdjust="spacing" textLength="164" x="203.1059" y="324.2862">[UC0104]&#31185;&#30446;&#12434;&#30331;&#37682;&#12377;&#12427;</text></g><g id="elem_[UC0105]&#12459;&#12522;&#12461;&#12517;&#12521;&#12512;&#12434;&#30331;&#37682;&#12377;&#12427;"><ellipse cx="285.1062" cy="406.0012" fill="#F1F1F1" rx="126.1062" ry="27.6212" style="stroke:#181818;stroke-width:0.5;"/><text fill="#000000" font-family="sans-serif" font-size="14" lengthAdjust="spacing" textLength="220" x="175.1062" y="409.2923">[UC0105]&#12459;&#12522;&#12461;&#12517;&#12521;&#12512;&#12434;&#30331;&#37682;&#12377;&#12427;</text></g><g id="elem_[UC0106]&#35611;&#24231;&#12434;&#36861;&#21152;&#12377;&#12427;"><ellipse cx="632.2259" cy="411.9952" fill="#F1F1F1" rx="100.1759" ry="22.4352" style="stroke:#181818;stroke-width:0.5;"/><text fill="#000000" font-family="sans-serif" font-size="14" lengthAdjust="spacing" textLength="164" x="550.2259" y="415.2862">[UC0106]&#35611;&#24231;&#12434;&#36861;&#21152;&#12377;&#12427;</text></g><g id="elem_[UC0107]&#12502;&#12525;&#12483;&#12463;&#12434;&#36861;&#21152;&#12377;&#12427;"><ellipse cx="632.2343" cy="330.0029" fill="#F1F1F1" rx="113.0143" ry="25.0029" style="stroke:#181818;stroke-width:0.5;"/><text fill="#000000" font-family="sans-serif" font-size="14" lengthAdjust="spacing" textLength="192" x="536.2343" y="333.2939">[UC0107]&#12502;&#12525;&#12483;&#12463;&#12434;&#36861;&#21152;&#12377;&#12427;</text></g><g id="elem_[UC0108]&#23398;&#32026;&#12434;&#36861;&#21152;&#12377;&#12427;"><ellipse cx="632.2259" cy="247.9952" fill="#F1F1F1" rx="100.1759" ry="22.4352" style="stroke:#181818;stroke-width:0.5;"/><text fill="#000000" font-family="sans-serif" font-size="14" lengthAdjust="spacing" textLength="164" x="550.2259" y="251.2862">[UC0108]&#23398;&#32026;&#12434;&#36861;&#21152;&#12377;&#12427;</text></g><!--entity ??--><g id="elem_&#25945;&#21209;"><ellipse cx="20" cy="207.26" fill="#F1F1F1" rx="8" ry="8" style="stroke:#181818;stroke-width:0.5;"/><path d="M20,215.26 L20,242.26 M7,223.26 L33,223.26 M20,242.26 L7,257.26 M20,242.26 L33,257.26 " fill="none" style="stroke:#181818;stroke-width:0.5;"/><text fill="#000000" font-family="sans-serif" font-size="14" lengthAdjust="spacing" textLength="28" x="6" y="272.2952">&#25945;&#21209;</text></g><!--link ?? to [UC0101]?????????--><g id="link_&#25945;&#21209;_[UC0101]&#26332;&#26085;&#26178;&#38480;&#12434;&#35373;&#23450;&#12377;&#12427;"><path d="M34.46,214.89 C53.3,185.88 90.29,135.43 135,108 C153.68,96.54 169.8187,89.7956 190.9987,83.6356 " fill="none" id="&#25945;&#21209;-to-[UC0101]&#26332;&#26085;&#26178;&#38480;&#12434;&#35373;&#23450;&#12377;&#12427;" style="stroke:#181818;stroke-width:1.0;"/><polygon fill="#181818" points="196.76,81.96,187.001,80.6326,191.9589,83.3563,189.2352,88.3143,196.76,81.96" style="stroke:#181818;stroke-width:1.0;"/></g><!--link ?? to [UC0102]?????????--><g id="link_&#25945;&#21209;_[UC0102]&#25945;&#21729;&#24773;&#22577;&#12434;&#30331;&#37682;&#12377;&#12427;"><path d="M34.42,227.55 C42.65,222.1 53.58,215.47 64,211 C107.68,192.27 152.9425,179.307 194.9025,169.337 " fill="none" id="&#25945;&#21209;-to-[UC0102]&#25945;&#21729;&#24773;&#22577;&#12434;&#30331;&#37682;&#12377;&#12427;" style="stroke:#181818;stroke-width:1.0;"/><polygon fill="#181818" points="200.74,167.95,191.0591,166.1389,195.8754,169.1059,192.9085,173.9222,200.74,167.95" style="stroke:#181818;stroke-width:1.0;"/></g><!--link ?? to [UC0103]??????????--><g id="link_&#25945;&#21209;_[UC0103]&#25945;&#21729;&#12398;&#21220;&#24608;&#12434;&#30331;&#37682;&#12377;&#12427;"><path d="M34.41,237 C58.97,237 107.41,237 159.21,237 " fill="none" id="&#25945;&#21209;-to-[UC0103]&#25945;&#21729;&#12398;&#21220;&#24608;&#12434;&#30331;&#37682;&#12377;&#12427;" style="stroke:#181818;stroke-width:1.0;"/><polygon fill="#181818" points="165.21,237,156.21,233,160.21,237,156.21,241,165.21,237" style="stroke:#181818;stroke-width:1.0;"/></g><!--link ?? to [UC0104]???????--><g id="link_&#25945;&#21209;_[UC0104]&#31185;&#30446;&#12434;&#30331;&#37682;&#12377;&#12427;"><path d="M34.17,242.61 C55.23,251.46 97.89,268.9 135,281 C161.25,289.56 184.7044,296.1951 210.3044,302.8751 " fill="none" id="&#25945;&#21209;-to-[UC0104]&#31185;&#30446;&#12434;&#30331;&#37682;&#12377;&#12427;" style="stroke:#181818;stroke-width:1.0;"/><polygon fill="#181818" points="216.11,304.39,208.4115,298.2472,211.272,303.1276,206.3917,305.9881,216.11,304.39" style="stroke:#181818;stroke-width:1.0;"/></g><!--link ?? to [UC0105]???????????--><g id="link_&#25945;&#21209;_[UC0105]&#12459;&#12522;&#12461;&#12517;&#12521;&#12512;&#12434;&#30331;&#37682;&#12377;&#12427;"><path d="M34.34,257.28 C53.44,284.75 91.15,333.49 135,361 C152.52,371.99 167.1804,378.586 187.1204,385.026 " fill="none" id="&#25945;&#21209;-to-[UC0105]&#12459;&#12522;&#12461;&#12517;&#12521;&#12512;&#12434;&#30331;&#37682;&#12377;&#12427;" style="stroke:#181818;stroke-width:1.0;"/><polygon fill="#181818" points="192.83,386.87,185.4949,380.2976,188.072,385.3333,183.0362,387.9104,192.83,386.87" style="stroke:#181818;stroke-width:1.0;"/></g><!--link [UC0105]??????????? to [UC0106]???????--><g id="link_[UC0105]&#12459;&#12522;&#12461;&#12517;&#12521;&#12512;&#12434;&#30331;&#37682;&#12377;&#12427;_[UC0106]&#35611;&#24231;&#12434;&#36861;&#21152;&#12377;&#12427;"><path d="M411.19,408.17 C450.93,408.87 488.3109,409.5165 525.9709,410.1665 " fill="none" id="[UC0105]&#12459;&#12522;&#12461;&#12517;&#12521;&#12512;&#12434;&#30331;&#37682;&#12377;&#12427;-to-[UC0106]&#35611;&#24231;&#12434;&#36861;&#21152;&#12377;&#12427;" style="stroke:#181818;stroke-width:1.0;stroke-dasharray:7.0,7.0;"/><polygon fill="#181818" points="531.97,410.27,523.0404,406.1153,526.9707,410.1837,522.9023,414.1141,531.97,410.27" style="stroke:#181818;stroke-width:1.0;"/><text fill="#000000" font-family="sans-serif" font-size="13" lengthAdjust="spacing" textLength="46" x="442.21" y="405.3884">include</text></g><!--link [UC0105]??????????? to [UC0107]?????????--><g id="link_[UC0105]&#12459;&#12522;&#12461;&#12517;&#12521;&#12512;&#12434;&#30331;&#37682;&#12377;&#12427;_[UC0107]&#12502;&#12525;&#12483;&#12463;&#12434;&#36861;&#21152;&#12377;&#12427;"><path d="M375.43,386.33 C429.66,374.39 492.4403,360.5598 544.9603,348.9998 " fill="none" id="[UC0105]&#12459;&#12522;&#12461;&#12517;&#12521;&#12512;&#12434;&#30331;&#37682;&#12377;&#12427;-to-[UC0107]&#12502;&#12525;&#12483;&#12463;&#12434;&#36861;&#21152;&#12377;&#12427;" style="stroke:#181818;stroke-width:1.0;stroke-dasharray:7.0,7.0;"/><polygon fill="#181818" points="550.82,347.71,541.1706,345.7382,545.9369,348.7848,542.8902,353.5511,550.82,347.71" style="stroke:#181818;stroke-width:1.0;"/><text fill="#000000" font-family="sans-serif" font-size="13" lengthAdjust="spacing" textLength="46" x="442.21" y="360.0184">include</text></g><!--link [UC0105]??????????? to [UC0108]???????--><g id="link_[UC0105]&#12459;&#12522;&#12461;&#12517;&#12521;&#12512;&#12434;&#30331;&#37682;&#12377;&#12427;_[UC0108]&#23398;&#32026;&#12434;&#36861;&#21152;&#12377;&#12427;"><path d="M360.53,383.5 C377.62,377.17 395.41,369.63 411.21,361 C425.96,352.95 427.51,347.72 441.21,338 C475,314.05 482.04,305.28 519.21,287 C535.38,279.05 547.91,273.9424 564.87,268.0724 " fill="none" id="[UC0105]&#12459;&#12522;&#12461;&#12517;&#12521;&#12512;&#12434;&#30331;&#37682;&#12377;&#12427;-to-[UC0108]&#23398;&#32026;&#12434;&#36861;&#21152;&#12377;&#12427;" style="stroke:#181818;stroke-width:1.0;stroke-dasharray:7.0,7.0;"/><polygon fill="#181818" points="570.54,266.11,560.7267,265.2737,565.815,267.7454,563.3433,272.8336,570.54,266.11" style="stroke:#181818;stroke-width:1.0;"/><text fill="#000000" font-family="sans-serif" font-size="13" lengthAdjust="spacing" textLength="46" x="442.21" y="300.7684">include</text></g><!--SRC=[oqbDAr4eoLSeoapFA558oInAJIx9pC_Zuh9wDdNcq-wPLbnS2a1Ga9YSdPYUgX0TwXnWO1ZxTEUMbzCcFsvkVzoyvt7J_kSpTx_isQHG3LOA0X2zkhgwTXf07GQ6G2tFPizvDdtfivbDBsTEUDmqwSMAjK_NpNhSEFDnKxScRdr6iI2XoGkVDRS-NR0Hg0zY5K5znb1zZnlNFUrUygnX0V5QJMAVBv_uVFOwudMOnZvkMlsuUTNZfhMFcvS-Rbxvk1dJFhXs4ZGfwEdPmTIRnRvOC_lfhkMWiDk_zsdN0fWQAuNClEISqfHKIcqmZttSFErnCr1ny-EczRIpnoBswTfbpxVCmc83YXMrN000]--></g></svg>