<?xml version="1.0" encoding="us-ascii" standalone="no"?><svg xmlns="http://www.w3.org/2000/svg" xmlns:xlink="http://www.w3.org/1999/xlink" contentStyleType="text/css" height="752px" preserveAspectRatio="none" style="width:962px;height:752px;background:#FFFFFF;" version="1.1" viewBox="0 0 962 752" width="962px" zoomAndPan="magnify"><defs/><g><!--cluster [UCP02]???????--><g id="cluster_[UCP02]&#24180;&#38291;&#26178;&#38291;&#21106;&#32232;&#25104;"><path d="M145.5,6 L301.5,6 A3.75,3.75 0 0 1 304,8.5 L311,28.4883 L953.44,28.4883 A2.5,2.5 0 0 1 955.94,30.9883 L955.94,742.5 A2.5,2.5 0 0 1 953.44,745 L145.5,745 A2.5,2.5 0 0 1 143,742.5 L143,8.5 A2.5,2.5 0 0 1 145.5,6 " fill="none" style="stroke:#000000;stroke-width:1.5;"/><line style="stroke:#000000;stroke-width:1.5;" x1="143" x2="311" y1="28.4883" y2="28.4883"/><text fill="#000000" font-family="sans-serif" font-size="14" font-weight="bold" lengthAdjust="spacing" textLength="155" x="147" y="21.5352">[UCP02]&#24180;&#38291;&#26178;&#38291;&#21106;&#32232;&#25104;</text></g><g id="elem_[UC0201] &#21046;&#32004;&#26465;&#20214;&#12434;&#35506;&#12377;&#65288;&#32068;&#12415;&#36796;&#12415;&#65289;"><ellipse cx="320.4565" cy="71.9973" fill="#F1F1F1" rx="141.2865" ry="30.6573" style="stroke:#181818;stroke-width:0.5;"/><text fill="#000000" font-family="sans-serif" font-size="14" lengthAdjust="spacing" textLength="252" x="194.4565" y="75.2883">[UC0201] &#21046;&#32004;&#26465;&#20214;&#12434;&#35506;&#12377;&#65288;&#32068;&#12415;&#36796;&#12415;&#65289;</text></g><g id="elem_[UC0202] &#21046;&#32004;&#26465;&#20214;&#12434;&#35506;&#12377;&#65288;&#12481;&#12515;&#12483;&#12488;&#65289;"><ellipse cx="320.4565" cy="167.9973" fill="#F1F1F1" rx="141.2865" ry="30.6573" style="stroke:#181818;stroke-width:0.5;"/><text fill="#000000" font-family="sans-serif" font-size="14" lengthAdjust="spacing" textLength="252" x="194.4565" y="171.2883">[UC0202] &#21046;&#32004;&#26465;&#20214;&#12434;&#35506;&#12377;&#65288;&#12481;&#12515;&#12483;&#12488;&#65289;</text></g><g id="elem_[UC0203] &#32232;&#25104;&#12434;&#23455;&#34892;&#12377;&#12427;"><ellipse cx="320.4606" cy="255.9981" fill="#F1F1F1" rx="101.9906" ry="22.7981" style="stroke:#181818;stroke-width:0.5;"/><text fill="#000000" font-family="sans-serif" font-size="14" lengthAdjust="spacing" textLength="168" x="236.4606" y="259.2891">[UC0203] &#32232;&#25104;&#12434;&#23455;&#34892;&#12377;&#12427;</text></g><g id="elem_[UC0204] &#32232;&#25104;&#32080;&#26524;&#12434;&#35211;&#12427;"><ellipse cx="320.4606" cy="336.9981" fill="#F1F1F1" rx="101.9906" ry="22.7981" style="stroke:#181818;stroke-width:0.5;"/><text fill="#000000" font-family="sans-serif" font-size="14" lengthAdjust="spacing" textLength="168" x="236.4606" y="340.2891">[UC0204] &#32232;&#25104;&#32080;&#26524;&#12434;&#35211;&#12427;</text></g><g id="elem_[UC0209] &#21046;&#32004;&#26465;&#20214;&#12434;&#32233;&#21644;&#12377;&#12427;"><ellipse cx="320.4611" cy="420.0042" fill="#F1F1F1" rx="114.8711" ry="25.3742" style="stroke:#181818;stroke-width:0.5;"/><text fill="#000000" font-family="sans-serif" font-size="14" lengthAdjust="spacing" textLength="196" x="222.4611" y="423.2952">[UC0209] &#21046;&#32004;&#26465;&#20214;&#12434;&#32233;&#21644;&#12377;&#12427;</text></g><g id="elem_[UC0214] &#12467;&#12510;&#12434;&#20837;&#12428;&#26367;&#12360;&#12427;"><ellipse cx="320.4552" cy="503.999" fill="#F1F1F1" rx="108.3952" ry="24.079" style="stroke:#181818;stroke-width:0.5;"/><text fill="#000000" font-family="sans-serif" font-size="14" lengthAdjust="spacing" textLength="182" x="229.4552" y="507.2901">[UC0214] &#12467;&#12510;&#12434;&#20837;&#12428;&#26367;&#12360;&#12427;</text></g><g id="elem_[UC0215] &#25215;&#35469;&#21069;&#12398;&#26178;&#38291;&#21106;&#12434;&#12480;&#12454;&#12531;&#12525;&#12540;&#12489;&#12377;&#12427;"><ellipse cx="320.4555" cy="598.0011" fill="#F1F1F1" rx="161.4555" ry="34.6911" style="stroke:#181818;stroke-width:0.5;"/><text fill="#000000" font-family="sans-serif" font-size="14" lengthAdjust="spacing" textLength="294" x="173.4555" y="601.2921">[UC0215] &#25215;&#35469;&#21069;&#12398;&#26178;&#38291;&#21106;&#12434;&#12480;&#12454;&#12531;&#12525;&#12540;&#12489;&#12377;&#12427;</text></g><g id="elem_[UC0216] &#26178;&#38291;&#21106;&#12434;&#25215;&#35469;&#12377;&#12427;"><ellipse cx="320.4552" cy="691.999" fill="#F1F1F1" rx="108.3952" ry="24.079" style="stroke:#181818;stroke-width:0.5;"/><text fill="#000000" font-family="sans-serif" font-size="14" lengthAdjust="spacing" textLength="182" x="229.4552" y="695.2901">[UC0216] &#26178;&#38291;&#21106;&#12434;&#25215;&#35469;&#12377;&#12427;</text></g><g id="elem_[UC0205] &#23398;&#32026;&#12499;&#12517;&#12540;&#12434;&#35211;&#12427;"><ellipse cx="764.9152" cy="313.999" fill="#F1F1F1" rx="108.3952" ry="24.079" style="stroke:#181818;stroke-width:0.5;"/><text fill="#000000" font-family="sans-serif" font-size="14" lengthAdjust="spacing" textLength="182" x="673.9152" y="317.2901">[UC0205] &#23398;&#32026;&#12499;&#12517;&#12540;&#12434;&#35211;&#12427;</text></g><g id="elem_[UC0206] &#25945;&#21729;&#12499;&#12517;&#12540;&#12434;&#35211;&#12427;"><ellipse cx="764.9152" cy="230.999" fill="#F1F1F1" rx="108.3952" ry="24.079" style="stroke:#181818;stroke-width:0.5;"/><text fill="#000000" font-family="sans-serif" font-size="14" lengthAdjust="spacing" textLength="182" x="673.9152" y="234.2901">[UC0206] &#25945;&#21729;&#12499;&#12517;&#12540;&#12434;&#35211;&#12427;</text></g><g id="elem_[UC0207] &#25945;&#23460;&#12499;&#12517;&#12540;&#12434;&#35211;&#12427;"><ellipse cx="764.9152" cy="147.999" fill="#F1F1F1" rx="108.3952" ry="24.079" style="stroke:#181818;stroke-width:0.5;"/><text fill="#000000" font-family="sans-serif" font-size="14" lengthAdjust="spacing" textLength="182" x="673.9152" y="151.2901">[UC0207] &#25945;&#23460;&#12499;&#12517;&#12540;&#12434;&#35211;&#12427;</text></g><g id="elem_[UC0208] &#32113;&#35336;&#12499;&#12517;&#12540;&#12434;&#35211;&#12427;"><ellipse cx="764.9152" cy="64.999" fill="#F1F1F1" rx="108.3952" ry="24.079" style="stroke:#181818;stroke-width:0.5;"/><text fill="#000000" font-family="sans-serif" font-size="14" lengthAdjust="spacing" textLength="182" x="673.9152" y="68.2901">[UC0208] &#32113;&#35336;&#12499;&#12517;&#12540;&#12434;&#35211;&#12427;</text></g><g id="elem_[UC0213] &#21046;&#32004;&#26465;&#20214;&#12398;&#20869;&#23481;&#12434;&#22793;&#26356;&#12377;&#12427;&#65288;&#12481;&#12515;&#12483;&#12488;&#65289;"><ellipse cx="764.9221" cy="692.0024" fill="#F1F1F1" rx="175.0121" ry="37.4024" style="stroke:#181818;stroke-width:0.5;"/><text fill="#000000" font-family="sans-serif" font-size="14" lengthAdjust="spacing" textLength="322" x="603.9221" y="695.2934">[UC0213] &#21046;&#32004;&#26465;&#20214;&#12398;&#20869;&#23481;&#12434;&#22793;&#26356;&#12377;&#12427;&#65288;&#12481;&#12515;&#12483;&#12488;&#65289;</text></g><g id="elem_[UC0212] &#21046;&#32004;&#26465;&#20214;&#12398;&#20869;&#23481;&#12434;&#22793;&#26356;&#12377;&#12427;&#65288;&#32068;&#12415;&#36796;&#12415;&#65289;"><ellipse cx="764.9221" cy="582.0024" fill="#F1F1F1" rx="175.0121" ry="37.4024" style="stroke:#181818;stroke-width:0.5;"/><text fill="#000000" font-family="sans-serif" font-size="14" lengthAdjust="spacing" textLength="322" x="603.9221" y="585.2934">[UC0212] &#21046;&#32004;&#26465;&#20214;&#12398;&#20869;&#23481;&#12434;&#22793;&#26356;&#12377;&#12427;&#65288;&#32068;&#12415;&#36796;&#12415;&#65289;</text></g><g id="elem_[UC0211] &#21046;&#32004;&#26465;&#20214;&#12434;&#36861;&#21152;&#12377;&#12427;"><ellipse cx="764.9211" cy="484.0042" fill="#F1F1F1" rx="114.8711" ry="25.3742" style="stroke:#181818;stroke-width:0.5;"/><text fill="#000000" font-family="sans-serif" font-size="14" lengthAdjust="spacing" textLength="196" x="666.9211" y="487.2952">[UC0211] &#21046;&#32004;&#26465;&#20214;&#12434;&#36861;&#21152;&#12377;&#12427;</text></g><g id="elem_[UC0210] &#21046;&#32004;&#26465;&#20214;&#12434;&#38500;&#22806;&#12377;&#12427;"><ellipse cx="764.9211" cy="398.0042" fill="#F1F1F1" rx="114.8711" ry="25.3742" style="stroke:#181818;stroke-width:0.5;"/><text fill="#000000" font-family="sans-serif" font-size="14" lengthAdjust="spacing" textLength="196" x="666.9211" y="401.2952">[UC0210] &#21046;&#32004;&#26465;&#20214;&#12434;&#38500;&#22806;&#12377;&#12427;</text></g><!--entity ??--><g id="elem_&#25945;&#21209;"><ellipse cx="20" cy="352.26" fill="#F1F1F1" rx="8" ry="8" style="stroke:#181818;stroke-width:0.5;"/><path d="M20,360.26 L20,387.26 M7,368.26 L33,368.26 M20,387.26 L7,402.26 M20,387.26 L33,402.26 " fill="none" style="stroke:#181818;stroke-width:0.5;"/><text fill="#000000" font-family="sans-serif" font-size="14" lengthAdjust="spacing" textLength="28" x="6" y="417.2952">&#25945;&#21209;</text></g><!--link ?? to [UC0201] ?????????????--><g id="link_&#25945;&#21209;_[UC0201] &#21046;&#32004;&#26465;&#20214;&#12434;&#35506;&#12377;&#65288;&#32068;&#12415;&#36796;&#12415;&#65289;"><path d="M26.58,343.35 C37.05,285.55 65.24,177.31 135,120 C153.15,105.09 169.7062,96.5495 192.4162,89.4095 " fill="none" id="&#25945;&#21209;-to-[UC0201] &#21046;&#32004;&#26465;&#20214;&#12434;&#35506;&#12377;&#65288;&#32068;&#12415;&#36796;&#12415;&#65289;" style="stroke:#181818;stroke-width:1.0;"/><polygon fill="#181818" points="198.14,87.61,188.3546,86.4935,193.3702,89.1096,190.754,94.1252,198.14,87.61" style="stroke:#181818;stroke-width:1.0;"/></g><!--link ?? to [UC0202] ?????????????--><g id="link_&#25945;&#21209;_[UC0202] &#21046;&#32004;&#26465;&#20214;&#12434;&#35506;&#12377;&#65288;&#12481;&#12515;&#12483;&#12488;&#65289;"><path d="M34.38,349.23 C51.73,311.03 85.73,248.93 135,216 C155.49,202.3 173.92,194.19 197.92,187.19 " fill="none" id="&#25945;&#21209;-to-[UC0202] &#21046;&#32004;&#26465;&#20214;&#12434;&#35506;&#12377;&#65288;&#12481;&#12515;&#12483;&#12488;&#65289;" style="stroke:#181818;stroke-width:1.0;"/><polygon fill="#181818" points="203.68,185.51,193.92,184.19,198.88,186.91,196.16,191.87,203.68,185.51" style="stroke:#181818;stroke-width:1.0;"/></g><!--link ?? to [UC0203] ???????--><g id="link_&#25945;&#21209;_[UC0203] &#32232;&#25104;&#12434;&#23455;&#34892;&#12377;&#12427;"><path d="M34.21,365.44 C42.2,356.09 52.95,344.59 64,336 C112.44,298.35 172.9573,279.4405 225.9273,268.8105 " fill="none" id="&#25945;&#21209;-to-[UC0203] &#32232;&#25104;&#12434;&#23455;&#34892;&#12377;&#12427;" style="stroke:#181818;stroke-width:1.0;"/><polygon fill="#181818" points="231.81,267.63,222.1989,265.479,226.9077,268.6138,223.773,273.3226,231.81,267.63" style="stroke:#181818;stroke-width:1.0;"/></g><!--link ?? to [UC0204] ???????--><g id="link_&#25945;&#21209;_[UC0204] &#32232;&#25104;&#32080;&#26524;&#12434;&#35211;&#12427;"><path d="M34.49,374.28 C42.75,369.93 53.67,364.82 64,362 C113.87,348.39 165.0014,342.3501 212.5714,339.4101 " fill="none" id="&#25945;&#21209;-to-[UC0204] &#32232;&#25104;&#32080;&#26524;&#12434;&#35211;&#12427;" style="stroke:#181818;stroke-width:1.0;"/><polygon fill="#181818" points="218.56,339.04,209.3304,335.6028,213.5695,339.3484,209.8239,343.5876,218.56,339.04" style="stroke:#181818;stroke-width:1.0;"/></g><!--link ?? to [UC0209] ?????????--><g id="link_&#25945;&#21209;_[UC0209] &#21046;&#32004;&#26465;&#20214;&#12434;&#32233;&#21644;&#12377;&#12427;"><path d="M34.21,383.68 C66.36,387.78 145.1481,397.8015 213.9681,406.5715 " fill="none" id="&#25945;&#21209;-to-[UC0209] &#21046;&#32004;&#26465;&#20214;&#12434;&#32233;&#21644;&#12377;&#12427;" style="stroke:#181818;stroke-width:1.0;"/><polygon fill="#181818" points="219.92,407.33,211.4978,402.2244,214.9601,406.6979,210.4866,410.1602,219.92,407.33" style="stroke:#181818;stroke-width:1.0;"/></g><!--link ?? to [UC0214] ????????--><g id="link_&#25945;&#21209;_[UC0214] &#12467;&#12510;&#12434;&#20837;&#12428;&#26367;&#12360;&#12427;"><path d="M34.28,394.19 C54.48,412.05 94.84,445.15 135,463 C164.08,475.92 191.7215,483.7384 222.1515,489.9584 " fill="none" id="&#25945;&#21209;-to-[UC0214] &#12467;&#12510;&#12434;&#20837;&#12428;&#26367;&#12360;&#12427;" style="stroke:#181818;stroke-width:1.0;"/><polygon fill="#181818" points="228.03,491.16,220.0134,485.4387,223.1313,490.1587,218.4113,493.2766,228.03,491.16" style="stroke:#181818;stroke-width:1.0;"/></g><!--link ?? to [UC0215] ????????????????--><g id="link_&#25945;&#21209;_[UC0215] &#25215;&#35469;&#21069;&#12398;&#26178;&#38291;&#21106;&#12434;&#12480;&#12454;&#12531;&#12525;&#12540;&#12489;&#12377;&#12427;"><path d="M34.39,412.85 C52.07,449.98 86.71,511.59 135,546 C153.02,558.84 168.441,566.5836 189.821,573.8736 " fill="none" id="&#25945;&#21209;-to-[UC0215] &#25215;&#35469;&#21069;&#12398;&#26178;&#38291;&#21106;&#12434;&#12480;&#12454;&#12531;&#12525;&#12540;&#12489;&#12377;&#12427;" style="stroke:#181818;stroke-width:1.0;"/><polygon fill="#181818" points="195.5,575.81,188.2725,569.1195,190.7675,574.1964,185.6907,576.6914,195.5,575.81" style="stroke:#181818;stroke-width:1.0;"/></g><!--link ?? to [UC0216] ????????--><g id="link_&#25945;&#21209;_[UC0216] &#26178;&#38291;&#21106;&#12434;&#25215;&#35469;&#12377;&#12427;"><path d="M26.2,420.47 C36.26,479.21 64.01,590.66 135,650 C157.55,668.85 181.0106,678.4147 209.6206,684.4847 " fill="none" id="&#25945;&#21209;-to-[UC0216] &#26178;&#38291;&#21106;&#12434;&#25215;&#35469;&#12377;&#12427;" style="stroke:#181818;stroke-width:1.0;"/><polygon fill="#181818" points="215.49,685.73,207.5161,679.9492,210.5989,684.6923,205.8558,687.775,215.49,685.73" style="stroke:#181818;stroke-width:1.0;"/></g><!--reverse link [UC0204] ??????? to [UC0205] ????????--><g id="link_[UC0204] &#32232;&#25104;&#32080;&#26524;&#12434;&#35211;&#12427;_[UC0205] &#23398;&#32026;&#12499;&#12517;&#12540;&#12434;&#35211;&#12427;"><path d="M438.1757,330.935 C509.1157,327.245 586.6,323.22 658.92,319.46 " fill="none" id="[UC0204] &#32232;&#25104;&#32080;&#26524;&#12434;&#35211;&#12427;-backto-[UC0205] &#23398;&#32026;&#12499;&#12517;&#12540;&#12434;&#35211;&#12427;" style="stroke:#181818;stroke-width:1.0;"/><polygon fill="none" points="420.2,331.87,438.4874,336.9269,437.864,324.9431,420.2,331.87" style="stroke:#181818;stroke-width:1.0;"/></g><!--reverse link [UC0204] ??????? to [UC0206] ????????--><g id="link_[UC0204] &#32232;&#25104;&#32080;&#26524;&#12434;&#35211;&#12427;_[UC0206] &#25945;&#21729;&#12499;&#12517;&#12540;&#12434;&#35211;&#12427;"><path d="M408.1694,315.863 C462.3594,302.673 522.16,288.18 589.91,272 C622.36,264.25 658.25,255.78 688.95,248.56 " fill="none" id="[UC0204] &#32232;&#25104;&#32080;&#26524;&#12434;&#35211;&#12427;-backto-[UC0206] &#25945;&#21729;&#12499;&#12517;&#12540;&#12434;&#35211;&#12427;" style="stroke:#181818;stroke-width:1.0;"/><polygon fill="none" points="390.68,320.12,409.5884,321.6928,406.7504,310.0332,390.68,320.12" style="stroke:#181818;stroke-width:1.0;"/></g><!--reverse link [UC0204] ??????? to [UC0207] ????????--><g id="link_[UC0204] &#32232;&#25104;&#32080;&#26524;&#12434;&#35211;&#12427;_[UC0207] &#25945;&#23460;&#12499;&#12517;&#12540;&#12434;&#35211;&#12427;"><path d="M423.3918,320.0244 C448.9018,313.8944 458.77,309.11 481.91,296 C540.7,262.69 530.81,221.75 589.91,189 C614.48,175.38 643.42,166.27 670.58,160.18 " fill="none" id="[UC0204] &#32232;&#25104;&#32080;&#26524;&#12434;&#35211;&#12427;-backto-[UC0207] &#25945;&#23460;&#12499;&#12517;&#12540;&#12434;&#35211;&#12427;" style="stroke:#181818;stroke-width:1.0;"/><polygon fill="none" points="405.89,324.23,424.7937,325.8583,421.9899,314.1904,405.89,324.23" style="stroke:#181818;stroke-width:1.0;"/></g><!--reverse link [UC0204] ??????? to [UC0208] ????????--><g id="link_[UC0204] &#32232;&#25104;&#32080;&#26524;&#12434;&#35211;&#12427;_[UC0208] &#32113;&#35336;&#12499;&#12517;&#12540;&#12434;&#35211;&#12427;"><path d="M431.5262,323.2688 C455.6162,317.2088 462.7,311.8 481.91,296 C505.86,276.3 497.11,260.25 511.91,233 C543.53,174.79 536.22,144.79 589.91,106 C611.67,90.28 638.59,80.5 664.71,74.44 " fill="none" id="[UC0204] &#32232;&#25104;&#32080;&#26524;&#12434;&#35211;&#12427;-backto-[UC0208] &#32113;&#35336;&#12499;&#12517;&#12540;&#12434;&#35211;&#12427;" style="stroke:#181818;stroke-width:1.0;"/><polygon fill="none" points="414.07,327.66,432.9899,329.0875,430.0624,317.4501,414.07,327.66" style="stroke:#181818;stroke-width:1.0;"/></g><!--link [UC0209] ????????? to [UC0213] ??????????????????--><g id="link_[UC0209] &#21046;&#32004;&#26465;&#20214;&#12434;&#32233;&#21644;&#12377;&#12427;_[UC0213] &#21046;&#32004;&#26465;&#20214;&#12398;&#20869;&#23481;&#12434;&#22793;&#26356;&#12377;&#12427;&#65288;&#12481;&#12515;&#12483;&#12488;&#65289;"><path d="M422.92,431.73 C444.23,438.03 465.26,447.58 481.91,462 C507.81,484.42 494.84,503.3 511.91,533 C540.7,583.09 542.78,603.58 589.91,637 C606.07,648.45 619.0981,655.4409 638.0481,662.7109 " fill="none" id="[UC0209] &#21046;&#32004;&#26465;&#20214;&#12434;&#32233;&#21644;&#12377;&#12427;-to-[UC0213] &#21046;&#32004;&#26465;&#20214;&#12398;&#20869;&#23481;&#12434;&#22793;&#26356;&#12377;&#12427;&#65288;&#12481;&#12515;&#12483;&#12488;&#65289;" style="stroke:#181818;stroke-width:1.0;stroke-dasharray:7.0,7.0;"/><polygon fill="#181818" points="643.65,664.86,636.6799,657.9017,638.9817,663.0691,633.8144,665.3709,643.65,664.86" style="stroke:#181818;stroke-width:1.0;"/><text fill="#000000" font-family="sans-serif" font-size="13" lengthAdjust="spacing" textLength="46" x="512.91" y="529.5684">include</text></g><!--link [UC0209] ????????? to [UC0212] ??????????????????--><g id="link_[UC0209] &#21046;&#32004;&#26465;&#20214;&#12434;&#32233;&#21644;&#12377;&#12427;_[UC0212] &#21046;&#32004;&#26465;&#20214;&#12398;&#20869;&#23481;&#12434;&#22793;&#26356;&#12377;&#12427;&#65288;&#32068;&#12415;&#36796;&#12415;&#65289;"><path d="M405.82,437.27 C430.81,443.66 457.9,451.88 481.91,462 C494.82,467.44 577.15,521.24 589.91,527 C610.85,536.45 628.1815,543.0818 650.4515,550.4218 " fill="none" id="[UC0209] &#21046;&#32004;&#26465;&#20214;&#12434;&#32233;&#21644;&#12377;&#12427;-to-[UC0212] &#21046;&#32004;&#26465;&#20214;&#12398;&#20869;&#23481;&#12434;&#22793;&#26356;&#12377;&#12427;&#65288;&#32068;&#12415;&#36796;&#12415;&#65289;" style="stroke:#181818;stroke-width:1.0;stroke-dasharray:7.0,7.0;"/><polygon fill="#181818" points="656.15,552.3,648.8544,545.6838,651.4013,550.7349,646.3502,553.2817,656.15,552.3" style="stroke:#181818;stroke-width:1.0;"/><text fill="#000000" font-family="sans-serif" font-size="13" lengthAdjust="spacing" textLength="46" x="512.91" y="477.0984">include</text></g><!--link [UC0209] ????????? to [UC0211] ?????????--><g id="link_[UC0209] &#21046;&#32004;&#26465;&#20214;&#12434;&#32233;&#21644;&#12377;&#12427;_[UC0211] &#21046;&#32004;&#26465;&#20214;&#12434;&#36861;&#21152;&#12377;&#12427;"><path d="M417.46,433.89 C491.55,444.6 587.6418,458.5014 661.7818,469.2214 " fill="none" id="[UC0209] &#21046;&#32004;&#26465;&#20214;&#12434;&#32233;&#21644;&#12377;&#12427;-to-[UC0211] &#21046;&#32004;&#26465;&#20214;&#12434;&#36861;&#21152;&#12377;&#12427;" style="stroke:#181818;stroke-width:1.0;stroke-dasharray:7.0,7.0;"/><polygon fill="#181818" points="667.72,470.08,659.385,464.8332,662.7715,469.3645,658.2402,472.7509,667.72,470.08" style="stroke:#181818;stroke-width:1.0;"/><text fill="#000000" font-family="sans-serif" font-size="13" lengthAdjust="spacing" textLength="46" x="512.91" y="444.7384">include</text></g><!--link [UC0209] ????????? to [UC0210] ?????????--><g id="link_[UC0209] &#21046;&#32004;&#26465;&#20214;&#12434;&#32233;&#21644;&#12377;&#12427;_[UC0210] &#21046;&#32004;&#26465;&#20214;&#12434;&#38500;&#22806;&#12377;&#12427;"><path d="M433.11,414.45 C500.18,411.11 579.2474,407.1775 646.3174,403.8475 " fill="none" id="[UC0209] &#21046;&#32004;&#26465;&#20214;&#12434;&#32233;&#21644;&#12377;&#12427;-to-[UC0210] &#21046;&#32004;&#26465;&#20214;&#12434;&#38500;&#22806;&#12377;&#12427;" style="stroke:#181818;stroke-width:1.0;stroke-dasharray:7.0,7.0;"/><polygon fill="#181818" points="652.31,403.55,643.1227,400.0012,647.3162,403.7979,643.5194,407.9914,652.31,403.55" style="stroke:#181818;stroke-width:1.0;"/><text fill="#000000" font-family="sans-serif" font-size="13" lengthAdjust="spacing" textLength="46" x="512.91" y="404.9084">include</text></g><!--SRC=[hPJBJi9068NtVOfPwgA6YrTYtFW2RboPBWWY4WaOWYiriHqmhMX289BKEn48cjX4BH0YoiFyJbjMl89JQedXKZGoYrcTyvsJVowHu5O29M8e7Wvj9z1cE1uC9CAnACFuj7EPf6KVmo2wTls17NyeY3RMLzTS7euqr7O-fya2tOdqejShcfX1-rsfkImlox8hKzJXyhZS729YJLUJsdNXywq6GjPuV05UxZH5lPe4lcLyDEdUQKhJeo6UqH30FE1xm1Ymw0pnSiYgI-r4kJKAfvG0Gjh1CcjRz6f6kxaoSyjfPylIG5Mz_a2oOxFSD0k4Ly0tPhrK2OHJxR85lEZickEG9hMCnpCYdG6lz0w6GW0VWL06J9bFW9k0fR4TvYdj1y4YswwURTnmqF81ozegMf0ybNNr0d0ESCaiCZZ5Fn7DahHuhZ0nue95L8eJ8ovILVNPg8Z3YFt8CLS6pSoiV4lTtZufhv3Z554QvfqfIjgbQdc6l0laG-5e8BAt6Vn7lEVNyVrlUoBnG_wIrZivkREbayXm3KZRSf4KyuCPtP13vWi0]--></g></svg>