<?xml version="1.0" encoding="us-ascii" standalone="no"?><svg xmlns="http://www.w3.org/2000/svg" xmlns:xlink="http://www.w3.org/1999/xlink" contentStyleType="text/css" height="445px" preserveAspectRatio="none" style="width:755px;height:445px;background:#FFFFFF;" version="1.1" viewBox="0 0 755 445" width="755px" zoomAndPan="magnify"><defs/><g><!--cluster [UCP01]???????--><g id="cluster_[UCP01]&#24180;&#38291;&#12487;&#12540;&#12479;&#30331;&#37682;"><path d="M145.5,6 L301.5,6 A3.75,3.75 0 0 1 304,8.5 L311,28.4883 L745.6,28.4883 A2.5,2.5 0 0 1 748.1,30.9883 L748.1,435.5 A2.5,2.5 0 0 1 745.6,438 L145.5,438 A2.5,2.5 0 0 1 143,435.5 L143,8.5 A2.5,2.5 0 0 1 145.5,6 " fill="none" style="stroke:#000000;stroke-width:1.5;"/><line style="stroke:#000000;stroke-width:1.5;" x1="143" x2="311" y1="28.4883" y2="28.4883"/><text fill="#000000" font-family="sans-serif" font-size="14" font-weight="bold" lengthAdjust="spacing" textLength="155" x="147" y="21.5352">[UCP01]&#24180;&#38291;&#12487;&#12540;&#12479;&#30331;&#37682;</text></g><g id="elem_[UC0101]&#26332;&#26085;&#26178;&#38480;&#12434;&#35373;&#23450;&#12377;&#12427;"><ellipse cx="278.5343" cy="66.0029" fill="#F1F1F1" rx="113.0143" ry="25.0029" style="stroke:#181818;stroke-width:0.5;"/><text fill="#000000" font-family="sans-serif" font-size="14" lengthAdjust="spacing" textLength="192" x="182.5343" y="69.2939">[UC0101]&#26332;&#26085;&#26178;&#38480;&#12434;&#35373;&#23450;&#12377;&#12427;</text></g><g id="elem_[UC0102]&#25945;&#21729;&#24773;&#22577;&#12434;&#30331;&#37682;&#12377;&#12427;"><ellipse cx="278.5343" cy="151.0029" fill="#F1F1F1" rx="113.0143" ry="25.0029" style="stroke:#181818;stroke-width:0.5;"/><text fill="#000000" font-family="sans-serif" font-size="14" lengthAdjust="spacing" textLength="192" x="182.5343" y="154.2939">[UC0102]&#25945;&#21729;&#24773;&#22577;&#12434;&#30331;&#37682;&#12377;&#12427;</text></g><g id="elem_[UC0103]&#25945;&#21729;&#12398;&#21220;&#24608;&#12434;&#30331;&#37682;&#12377;&#12427;"><ellipse cx="278.5339" cy="236.9968" fill="#F1F1F1" rx="119.5339" ry="26.3068" style="stroke:#181818;stroke-width:0.5;"/><text fill="#000000" font-family="sans-serif" font-size="14" lengthAdjust="spacing" textLength="206" x="175.5339" y="240.2878">[UC0103]&#25945;&#21729;&#12398;&#21220;&#24608;&#12434;&#30331;&#37682;&#12377;&#12427;</text></g><g id="elem_[UC0104]&#31185;&#30446;&#12434;&#30331;&#37682;&#12377;&#12427;"><ellipse cx="278.5259" cy="320.9952" fill="#F1F1F1" rx="100.1759" ry="22.4352" style="stroke:#181818;stroke-width:0.5;"/><text fill="#000000" font-family="sans-serif" font-size="14" lengthAdjust="spacing" textLength="164" x="196.5259" y="324.2862">[UC0104]&#31185;&#30446;&#12434;&#30331;&#37682;&#12377;&#12427;</text></g><g id="elem_&#12459;&#12522;&#12461;&#12517;&#12521;&#12512;&#12434;&#30331;&#37682;&#12377;&#12427;"><ellipse cx="278.5323" cy="400.0045" fill="#F1F1F1" rx="95.6723" ry="21.5345" style="stroke:#181818;stroke-width:0.5;"/><text fill="#000000" font-family="sans-serif" font-size="14" lengthAdjust="spacing" textLength="154" x="201.5323" y="403.2955">&#12459;&#12522;&#12461;&#12517;&#12521;&#12512;&#12434;&#30331;&#37682;&#12377;&#12427;</text></g><g id="elem_[UC0105]&#35611;&#24231;&#12434;&#36861;&#21152;&#12377;&#12427;"><ellipse cx="619.0759" cy="399.9952" fill="#F1F1F1" rx="100.1759" ry="22.4352" style="stroke:#181818;stroke-width:0.5;"/><text fill="#000000" font-family="sans-serif" font-size="14" lengthAdjust="spacing" textLength="164" x="537.0759" y="403.2862">[UC0105]&#35611;&#24231;&#12434;&#36861;&#21152;&#12377;&#12427;</text></g><g id="elem_[UC0106]&#12502;&#12525;&#12483;&#12463;&#12434;&#36861;&#21152;&#12377;&#12427;"><ellipse cx="619.0843" cy="318.0029" fill="#F1F1F1" rx="113.0143" ry="25.0029" style="stroke:#181818;stroke-width:0.5;"/><text fill="#000000" font-family="sans-serif" font-size="14" lengthAdjust="spacing" textLength="192" x="523.0843" y="321.2939">[UC0106]&#12502;&#12525;&#12483;&#12463;&#12434;&#36861;&#21152;&#12377;&#12427;</text></g><g id="elem_[UC0107]&#23398;&#32026;&#12434;&#36861;&#21152;&#12377;&#12427;"><ellipse cx="619.0759" cy="235.9952" fill="#F1F1F1" rx="100.1759" ry="22.4352" style="stroke:#181818;stroke-width:0.5;"/><text fill="#000000" font-family="sans-serif" font-size="14" lengthAdjust="spacing" textLength="164" x="537.0759" y="239.2862">[UC0107]&#23398;&#32026;&#12434;&#36861;&#21152;&#12377;&#12427;</text></g><!--entity ??--><g id="elem_&#25945;&#21209;"><ellipse cx="20" cy="207.26" fill="#F1F1F1" rx="8" ry="8" style="stroke:#181818;stroke-width:0.5;"/><path d="M20,215.26 L20,242.26 M7,223.26 L33,223.26 M20,242.26 L7,257.26 M20,242.26 L33,257.26 " fill="none" style="stroke:#181818;stroke-width:0.5;"/><text fill="#000000" font-family="sans-serif" font-size="14" lengthAdjust="spacing" textLength="28" x="6" y="272.2952">&#25945;&#21209;</text></g><!--link ?? to [UC0101]?????????--><g id="link_&#25945;&#21209;_[UC0101]&#26332;&#26085;&#26178;&#38480;&#12434;&#35373;&#23450;&#12377;&#12427;"><path d="M34.35,215.22 C53.2,186.33 90.33,135.77 135,108 C152.64,97.04 167.5324,90.5648 187.5424,84.4448 " fill="none" id="&#25945;&#21209;-to-[UC0101]&#26332;&#26085;&#26178;&#38480;&#12434;&#35373;&#23450;&#12377;&#12427;" style="stroke:#181818;stroke-width:1.0;"/><polygon fill="#181818" points="193.28,82.69,183.5036,81.4972,188.4986,84.1524,185.8434,89.1474,193.28,82.69" style="stroke:#181818;stroke-width:1.0;"/></g><!--link ?? to [UC0102]?????????--><g id="link_&#25945;&#21209;_[UC0102]&#25945;&#21729;&#24773;&#22577;&#12434;&#30331;&#37682;&#12377;&#12427;"><path d="M34.43,227.58 C42.67,222.14 53.59,215.51 64,211 C106.13,192.74 149.5258,179.9217 190.0858,169.8817 " fill="none" id="&#25945;&#21209;-to-[UC0102]&#25945;&#21729;&#24773;&#22577;&#12434;&#30331;&#37682;&#12377;&#12427;" style="stroke:#181818;stroke-width:1.0;"/><polygon fill="#181818" points="195.91,168.44,186.2125,166.7197,191.0565,169.6414,188.1348,174.4854,195.91,168.44" style="stroke:#181818;stroke-width:1.0;"/></g><!--link ?? to [UC0103]??????????--><g id="link_&#25945;&#21209;_[UC0103]&#25945;&#21729;&#12398;&#21220;&#24608;&#12434;&#30331;&#37682;&#12377;&#12427;"><path d="M34.43,237 C58.09,237 103.38,237 152.79,237 " fill="none" id="&#25945;&#21209;-to-[UC0103]&#25945;&#21729;&#12398;&#21220;&#24608;&#12434;&#30331;&#37682;&#12377;&#12427;" style="stroke:#181818;stroke-width:1.0;"/><polygon fill="#181818" points="158.79,237,149.79,233,153.79,237,149.79,241,158.79,237" style="stroke:#181818;stroke-width:1.0;"/></g><!--link ?? to [UC0104]???????--><g id="link_&#25945;&#21209;_[UC0104]&#31185;&#30446;&#12434;&#30331;&#37682;&#12377;&#12427;"><path d="M34.19,242.56 C55.27,251.34 97.96,268.68 135,281 C159.88,289.27 181.774,295.7118 206.074,302.3818 " fill="none" id="&#25945;&#21209;-to-[UC0104]&#31185;&#30446;&#12434;&#30331;&#37682;&#12377;&#12427;" style="stroke:#181818;stroke-width:1.0;"/><polygon fill="#181818" points="211.86,303.97,204.2398,297.7304,207.0383,302.6465,202.1222,305.4451,211.86,303.97" style="stroke:#181818;stroke-width:1.0;"/></g><!--link ?? to ???????????--><g id="link_&#25945;&#21209;_&#12459;&#12522;&#12461;&#12517;&#12521;&#12512;&#12434;&#30331;&#37682;&#12377;&#12427;"><path d="M34.24,257.44 C53.22,285.1 90.8,334.07 135,361 C154.72,373.01 172.3876,379.8728 194.5376,385.7028 " fill="none" id="&#25945;&#21209;-to-&#12459;&#12522;&#12461;&#12517;&#12521;&#12512;&#12434;&#30331;&#37682;&#12377;&#12427;" style="stroke:#181818;stroke-width:1.0;"/><polygon fill="#181818" points="200.34,387.23,192.6546,381.0709,195.5047,385.9573,190.6183,388.8074,200.34,387.23" style="stroke:#181818;stroke-width:1.0;"/></g><!--link ??????????? to [UC0105]???????--><g id="link_&#12459;&#12522;&#12461;&#12517;&#12521;&#12512;&#12434;&#30331;&#37682;&#12377;&#12427;_[UC0105]&#35611;&#24231;&#12434;&#36861;&#21152;&#12377;&#12427;"><path d="M374.29,400 C419.28,400 467.05,400 512.62,400 " fill="none" id="&#12459;&#12522;&#12461;&#12517;&#12521;&#12512;&#12434;&#30331;&#37682;&#12377;&#12427;-to-[UC0105]&#35611;&#24231;&#12434;&#36861;&#21152;&#12377;&#12427;" style="stroke:#181818;stroke-width:1.0;stroke-dasharray:7.0,7.0;"/><polygon fill="#181818" points="518.62,400,509.62,396,513.62,400,509.62,404,518.62,400" style="stroke:#181818;stroke-width:1.0;"/><text fill="#000000" font-family="sans-serif" font-size="13" lengthAdjust="spacing" textLength="46" x="429.07" y="396.5684">include</text></g><!--link ??????????? to [UC0106]?????????--><g id="link_&#12459;&#12522;&#12461;&#12517;&#12521;&#12512;&#12434;&#30331;&#37682;&#12377;&#12427;_[UC0106]&#12502;&#12525;&#12483;&#12463;&#12434;&#36861;&#21152;&#12377;&#12427;"><path d="M344.81,384.19 C401.01,370.58 476.3587,352.3328 535.6287,337.9728 " fill="none" id="&#12459;&#12522;&#12461;&#12517;&#12521;&#12512;&#12434;&#30331;&#37682;&#12377;&#12427;-to-[UC0106]&#12502;&#12525;&#12483;&#12463;&#12434;&#36861;&#21152;&#12377;&#12427;" style="stroke:#181818;stroke-width:1.0;stroke-dasharray:7.0,7.0;"/><polygon fill="#181818" points="541.46,336.56,531.7712,334.7917,536.6006,337.7373,533.6549,342.5667,541.46,336.56" style="stroke:#181818;stroke-width:1.0;"/><text fill="#000000" font-family="sans-serif" font-size="13" lengthAdjust="spacing" textLength="46" x="429.07" y="350.6584">include</text></g><!--link ??????????? to [UC0107]???????--><g id="link_&#12459;&#12522;&#12461;&#12517;&#12521;&#12512;&#12434;&#30331;&#37682;&#12377;&#12427;_[UC0107]&#23398;&#32026;&#12434;&#36861;&#21152;&#12377;&#12427;"><path d="M346.14,384.5 C363.83,378.71 382.36,371.02 398.07,361 C414.5,350.52 413.3,341.73 428.07,329 C460,301.47 468.48,294.11 506.07,275 C522.04,266.88 534.4208,261.7447 551.3008,255.8947 " fill="none" id="&#12459;&#12522;&#12461;&#12517;&#12521;&#12512;&#12434;&#30331;&#37682;&#12377;&#12427;-to-[UC0107]&#23398;&#32026;&#12434;&#36861;&#21152;&#12377;&#12427;" style="stroke:#181818;stroke-width:1.0;stroke-dasharray:7.0,7.0;"/><polygon fill="#181818" points="556.97,253.93,547.1564,253.0976,552.2457,255.5673,549.776,260.6566,556.97,253.93" style="stroke:#181818;stroke-width:1.0;"/><text fill="#000000" font-family="sans-serif" font-size="13" lengthAdjust="spacing" textLength="46" x="429.07" y="288.2384">include</text></g><!--SRC=[oqbDAr4eoLSeoapFA558oInAJIx9pC_Zuh9wDdNcq-wPLbnS2a1Ga9YSdPYUgX0TwXnWO1ZxTEUMbzCcFsvkVzoyvt7J_kSpTx_isQHG3LOA0X2zkhgwTXf07GQ6G2tFPizvDdtfivbDBsTEUDmqwSMAjK_NpNhSEFDnKxScRdr6iI2XoGkVDRS-NR0Hg0zY5K5znb1zZnlNFUrUygnX0V5QJMAVBv_uVFOwOdGyRbhzk7dLuwQrZvkNFcvU-RWPqnwuDY8KA-ZfsIb0dM4Q-sBDxAUxbeF2Ql_UfrqBO6gi53BpadDAKrB9DTaizd7pjCVDGCNDZvlMOp6VKWlCOv-kNVPyoon2HjTo0G00]--></g></svg>